<?xml version="1.0" encoding="utf-8"?>
<!-- Generator: Adobe Illustrator 24.1.0, SVG Export Plug-In . SVG Version: 6.00 Build 0)  -->
<svg version="1.1" id="Capa_1" xmlns="http://www.w3.org/2000/svg" xmlns:xlink="http://www.w3.org/1999/xlink" x="0px" y="0px"
	 viewBox="0 0 512 512" style="enable-background:new 0 0 512 512;" xml:space="preserve">
<style type="text/css">
	.st0{fill:#FFF6E6;}
	.st1{fill:#FED19A;}
	.st2{fill:#E1E6E9;}
</style>
<path class="st0" d="M341.7,119.1v21.2c0,47.3-38.3,85.6-85.6,85.6c-47.3,0-85.6-38.3-85.6-85.6V97.5c0,0,32.1,0,70.6-38.4
	C241,59.1,282,119.1,341.7,119.1z"/>
<path d="M256.1,229.7c-49.3-0.1-89.3-40-89.3-89.3V97.5c0-2,1.7-3.7,3.7-3.7c0.3,0,31.2-0.6,68-37.4c1.4-1.4,3.8-1.5,5.2,0
	c0.2,0.2,0.3,0.3,0.4,0.5c0.4,0.6,40.6,58.4,97.6,58.4c2,0,3.7,1.7,3.7,3.7v21.2C345.4,189.6,305.4,229.6,256.1,229.7L256.1,229.7z
	 M174.2,100.9v39.4c0,45.2,36.7,81.9,82,81.9c45.2,0,81.9-36.7,81.9-81.9v-17.6c-51.2-2-87.6-45.1-97.4-58
	C209.9,94,183.6,99.8,174.2,100.9z"/>
<path d="M341.7,89.3v29.8c-59.7,0-100.7-60-100.7-60c-38.4,38.4-70.6,38.4-70.6,38.4v-8.2c0-47.3,38.3-85.6,85.6-85.6
	C303.4,3.7,341.7,42.1,341.7,89.3z"/>
<path d="M341.7,122.8c-53.1,0-91.1-44.8-101.2-58.1c-37.7,36.1-68.8,36.5-70.1,36.5c-2,0-3.7-1.7-3.7-3.7v-8.2
	c0-49.3,40-89.3,89.3-89.3s89.3,40,89.3,89.3v29.8C345.4,121.1,343.8,122.8,341.7,122.8L341.7,122.8z M241,55.4h0.3
	c1.1,0.1,2.1,0.7,2.7,1.6c0.4,0.6,38.9,55.9,93.9,58.3v-26c0-45.2-36.7-81.9-81.9-81.9c-45.2,0-81.9,36.7-81.9,81.9v4.1
	c9.3-1.4,34.9-7.7,64.2-37C239.1,55.7,240,55.3,241,55.4L241,55.4z"/>
<path class="st1" d="M129.2,431.2c-13.6,9.9-32.7,6.9-42.6-6.7c-2.8-3.8-4.6-8.3-5.4-12.9c-1.3-8-1.9-16.1-1.9-24.2
	c-0.5-63.3,39.3-120,99.2-140.8c5.9-2,11.8-3.6,17.9-4.9c15.4,16.2,37.2,24.9,59.6,23.7c22.4,1.2,44.2-7.4,59.6-23.7
	c6.1,1.3,12,2.9,17.9,4.9c59.8,20.8,99.7,77.5,99.2,140.8c0,8.1-0.7,16.2-1.9,24.2c-2.7,16.6-18.4,27.8-35,25.1
	c-4.7-0.8-9.1-2.6-12.9-5.4"/>
<g>
	<path d="M400.4,440.8c-7.2,0-14.2-2.3-19.9-6.6c-1.6-1.2-1.9-3.6-0.7-5.2c1.2-1.6,3.6-1.9,5.2-0.7c12,8.6,28.7,5.9,37.4-6.1
		c2.4-3.3,4-7.2,4.7-11.2c1.2-7.8,1.9-15.7,1.9-23.6c0.6-61.8-38.3-117-96.6-137.3c-5.1-1.7-10.3-3.2-15.5-4.4
		c-16.1,16-38.2,24.4-60.8,23.3c-22.6,1.2-44.7-7.3-60.8-23.3c-5.2,1.2-10.4,2.6-15.5,4.4c-58.4,20.3-97.3,75.5-96.7,137.3
		c0,7.9,0.7,15.8,1.9,23.7c2.4,14.6,16.2,24.4,30.8,22c4.1-0.7,7.9-2.3,11.2-4.7c1.6-1.2,4-0.9,5.2,0.7c1.2,1.6,0.9,4-0.7,5.2
		c-15.2,11.1-36.6,7.8-47.8-7.4c-3.2-4.3-5.3-9.3-6.1-14.6c-1.3-8.2-2-16.5-2-24.8C75,322.4,116,264.3,177.3,243
		c6-2,12.1-3.7,18.3-5c1.2-0.3,2.5,0.1,3.4,1c14.7,15.5,35.5,23.8,56.9,22.5c21.4,1.3,42.2-7,56.9-22.5c0.9-0.9,2.2-1.3,3.4-1
		c6.2,1.3,12.3,3,18.3,5c61.4,21.3,102.3,79.4,101.7,144.3c0,8.3-0.7,16.6-2,24.8c-1.9,11.9-9.9,21.8-21.1,26.2
		C409.2,440,404.8,440.8,400.4,440.8L400.4,440.8z"/>
</g>
<path class="st2" d="M129.1,431.3v76.9c50.5-22.9,93.9-25.6,126.9,0V338.6c-32.9-25.6-76.4-22.9-126.9,0v41.5"/>
<path d="M256,512c-0.8,0-1.6-0.3-2.3-0.8c-30.3-23.5-70.5-23.4-123.1,0.5c-1.9,0.8-4.1,0-4.9-1.9c-0.2-0.5-0.3-1-0.3-1.5v-76.9
	c0-2,1.7-3.7,3.7-3.7c2,0,3.7,1.7,3.7,3.7v71.2c48.8-21,89-21.5,119.5-1.5V340.4c-29.7-22.1-68.8-21.9-119.5,0.6v39.1
	c0,2-1.7,3.7-3.7,3.7c-2,0-3.7-1.7-3.7-3.7v-41.5c0-1.5,0.8-2.8,2.2-3.4c54.5-24.7,98.5-24.6,130.7,0.5c0.9,0.7,1.4,1.8,1.4,3v169.7
	C259.7,510.3,258,512,256,512z"/>
<path class="st2" d="M382.9,431.3v76.9c-50.5-22.9-93.9-25.6-126.9,0V338.6c32.9-25.6,76.4-22.9,126.9,0v41.5"/>
<path d="M256,512c-2,0-3.7-1.7-3.7-3.7V338.6c0-1.2,0.5-2.3,1.4-3c32.2-25,76.2-25.2,130.7-0.5c1.3,0.6,2.2,1.9,2.2,3.4V380
	c0,2-1.7,3.7-3.7,3.7s-3.7-1.7-3.7-3.7v-39c-50.7-22.5-89.8-22.7-119.5-0.6v160.7c30.5-20,70.6-19.5,119.5,1.5v-71.2
	c0-2,1.7-3.7,3.7-3.7s3.7,1.7,3.7,3.7v77c0,2-1.7,3.7-3.7,3.7c-0.5,0-1.1-0.1-1.5-0.3c-52.5-23.8-92.8-24-123.1-0.5
	C257.6,511.7,256.8,512,256,512z"/>
<ellipse class="st1" cx="127.6" cy="405.7" rx="20.8" ry="25.7"/>
<path d="M127.6,435.1c-13.5,0-24.5-13.2-24.5-29.4s11-29.4,24.5-29.4s24.5,13.2,24.5,29.4S141.1,435.1,127.6,435.1L127.6,435.1z
	 M127.6,383.7c-9.4,0-17.1,9.9-17.1,22s7.7,22,17.1,22s17.1-9.9,17.1-22S137,383.7,127.6,383.7L127.6,383.7z"/>
<ellipse class="st1" cx="384.4" cy="405.7" rx="20.8" ry="25.7"/>
<path d="M384.4,435.1c-13.5,0-24.5-13.2-24.5-29.4s11-29.4,24.5-29.4s24.5,13.2,24.5,29.4S397.9,435.1,384.4,435.1L384.4,435.1z
	 M384.4,383.7c-9.4,0-17.1,9.9-17.1,22s7.7,22,17.1,22s17.1-9.9,17.1-22S393.8,383.7,384.4,383.7L384.4,383.7z"/>
</svg>
