<?xml version="1.0" encoding="utf-8"?>
<!-- Generator: Adobe Illustrator 24.1.0, SVG Export Plug-In . SVG Version: 6.00 Build 0)  -->
<svg version="1.1" id="Capa_1" xmlns="http://www.w3.org/2000/svg" xmlns:xlink="http://www.w3.org/1999/xlink" x="0px" y="0px"
	 viewBox="0 0 512 512" style="enable-background:new 0 0 512 512;" xml:space="preserve">
<style type="text/css">
	.st0{fill:#EEEFEE;}
	.st1{fill:#A9B2BF;}
	.st2{fill:#E1E6E9;}
	.st3{fill:#FED19A;}
	.st4{fill:#FFF6E6;}
	.st5{opacity:0.1;fill:#606060;}
</style>
<path class="st0" d="M299,320.2c30.2,5.2,83.7,20.4,105.6,40.3c29,27.2,45.2,65.4,44.6,105.2v42.6H62.8V466
	c-0.5-42.9,18.3-83.8,51.3-111.3c21-17,71.7-29.8,98.9-34.5"/>
<path class="st1" d="M127.1,414.2h257.7v94.1H127.1V414.2z"/>
<path class="st1" d="M395.6,508.4V353.6c-9.8-6.3-20.4-11.4-31.3-15.4v170.2H395.6z"/>
<path class="st1" d="M116.4,508.4V352.8c9.8-6.4,20.3-11.6,31.3-15.4v171H116.4z"/>
<path class="st2" d="M404.7,360.4c-3.8-3.4-7.9-6.4-12.3-8.8c21.8,26.2,33.6,59.4,33.3,93.5v42.6h-27v20.7h50.6v-42.6
	C449.8,425.9,433.6,387.7,404.7,360.4z"/>
<path class="st2" d="M62.8,487.6h50.7v20.7H62.8L62.8,487.6z"/>
<path class="st1" d="M119.4,487.6h273.3v20.7H119.4V487.6z"/>
<g>
	<path d="M364.2,512H147.8c-2,0-3.6-1.6-3.6-3.6v-94.1c0-2,1.6-3.6,3.6-3.6h216.5c2,0,3.6,1.6,3.6,3.6v94.1
		C367.9,510.4,366.2,512,364.2,512z M151.4,504.7h209.2v-86.9H151.4V504.7z"/>
	<path d="M395.6,512h-31.4c-2,0-3.6-1.6-3.6-3.6V338.2c0-1.2,0.6-2.3,1.6-3c1-0.7,2.2-0.8,3.3-0.4c11.3,4,22,9.3,32.1,15.8
		c1,0.7,1.6,1.8,1.6,3v154.8C399.2,510.4,397.6,512,395.6,512z M367.9,504.7H392V355.5c-7.7-4.7-15.7-8.8-24.1-12.1V504.7z"/>
	<path d="M147.8,512h-31.3c-2,0-3.6-1.6-3.6-3.6V352.8c0-1.2,0.6-2.3,1.6-3c10-6.6,20.8-11.9,32.1-15.9c1.9-0.7,4,0.3,4.7,2.2
		c0.1,0.4,0.2,0.8,0.2,1.2v171C151.4,510.4,149.8,512,147.8,512z M120,504.7h24.1V342.7c-8.4,3.2-16.5,7.3-24.1,12.1V504.7z"/>
	<path d="M449.2,511.9H62.8c-2,0-3.6-1.6-3.6-3.6V466c-0.7-44,18.7-86,52.6-114.1c22.2-18,75.5-30.9,100.5-35.3
		c2-0.3,3.8,1.1,4.1,3.1c0.3,1.9-1,3.7-2.9,4.1c-24.4,4.2-76.1,16.7-97.2,33.8C84.2,384.2,65.8,424.1,66.5,466v38.7h379.1v-39
		c0.6-38.7-15.2-75.9-43.4-102.5c-21.3-19.4-75-34.5-103.8-39.4c-2-0.3-3.4-2.1-3.1-4.1c0.3-2,2.1-3.4,4.1-3.1c0.1,0,0.1,0,0.2,0
		c30.8,5.3,84.8,20.6,107.4,41.2c29.7,27.9,46.3,67.1,45.7,107.9v42.6C452.8,510.3,451.2,511.9,449.2,511.9L449.2,511.9z"/>
</g>
<path class="st3" d="M369.3,165.7c16.5,4.6,26.7,25.4,21.5,42.8c-4.4,14.2-17.2,24.1-32.1,24.8"/>
<path d="M358.8,237c-2,0-3.7-1.6-3.7-3.6c0-2,1.6-3.7,3.6-3.7c13.3-0.7,24.7-9.6,28.7-22.3c2.3-8.4,1.1-17.4-3.1-25
	c-3.3-6.4-9-11.2-15.9-13.4c-1.9-0.6-3-2.6-2.4-4.5c0.6-1.9,2.5-3,4.4-2.5c8.8,2.6,16.1,8.7,20.3,16.8c5.3,9.3,6.6,20.3,3.8,30.5
	c-4.9,15.7-19,26.6-35.4,27.4L358.8,237z"/>
<path class="st3" d="M142.7,165.7c-16.5,4.6-26.7,25.4-21.5,42.8c4.4,14.2,17.2,24.1,32.1,24.8"/>
<path d="M153.3,237h-0.1c-16.4-0.8-30.5-11.8-35.4-27.4c-2.9-10.3-1.5-21.3,3.8-30.5c4.2-8.1,11.5-14.2,20.3-16.8
	c1.9-0.5,3.9,0.7,4.4,2.6c0.5,1.9-0.6,3.8-2.5,4.4c-6.9,2.1-12.6,7-15.9,13.4c-4.3,7.6-5.4,16.5-3.1,25c4,12.7,15.4,21.6,28.7,22.3
	c2,0,3.6,1.7,3.6,3.7C156.9,235.5,155.3,237.1,153.3,237L153.3,237z"/>
<path class="st3" d="M308.6,317.1v-25.3H203.4v25.3c0,29.1,23.6,52.7,52.6,52.7c0.1,0,0.1,0,0.2,0
	C285.2,369.6,308.6,346,308.6,317.1z"/>
<path d="M256,373.3c-31.1,0-56.3-25.2-56.3-56.3v-25.3c0-2,1.6-3.6,3.6-3.6h105.3c2,0,3.6,1.6,3.6,3.6v25.3
	c-0.1,31-25.1,56.1-56,56.3H256z M207,295.4v21.7c0,27.1,21.9,49,49,49c0,0,0,0,0,0h0.2c27-0.2,48.8-22.1,48.8-49v-21.7L207,295.4z"
	/>
<path class="st4" d="M362.7,148.7v59.9c0,48.4-35.6,80.9-65.8,99.6c-25.1,15.7-56.9,15.7-82,0c-30.2-18.7-65.7-51.2-65.7-99.6v-59.9
	"/>
<path class="st5" d="M362.8,148.7v59.9c0,48.4-35.6,80.9-65.8,99.6c-22.7,14.3-51.3,15.7-75.3,3.7c19,3.5,38.5-0.3,54.9-10.4
	c30.1-18.8,65.7-51.2,65.7-99.6v-53.1L362.8,148.7z"/>
<path d="M255.9,323.5c-15.2,0-30-4.2-42.9-12.2c-30.7-19.1-67.4-52.4-67.4-102.7v-59.9c0-2,1.6-3.6,3.6-3.6c2,0,3.6,1.6,3.6,3.6
	v59.9c0,46.9,34.8,78.4,64,96.5c23.9,14.9,54.2,14.9,78.1,0c29.2-18.1,64.1-49.7,64.1-96.5v-59.9c0-2,1.6-3.6,3.6-3.6
	c2,0,3.6,1.6,3.6,3.6v59.9c0,50.2-36.7,83.6-67.4,102.7C286,319.3,271.1,323.5,255.9,323.5L255.9,323.5z"/>
<path class="st4" d="M135.3,142.1c3.7,24.6,5.8,46.3,5.8,46.3c0.4,6.4,3.9,11.2,8,11.2h1c4.1,0,7.9-4.8,8-11.1
	c-0.1-16.5,1.4-32.9,4.5-49.1L135.3,142.1z"/>
<path d="M150.2,203.2h-1c-6.1,0-11.1-6.3-11.6-14.6c0-0.1-2.2-21.8-5.8-46c-0.3-2,1.1-3.8,3-4.1c0.1,0,0.1,0,0.2,0l27.3-2.8
	c2-0.2,3.8,1.2,4,3.2c0,0.4,0,0.8-0.1,1.2c-3,16-4.4,32.2-4.4,48.4C162.5,195.7,157.4,202.2,150.2,203.2L150.2,203.2z M139.4,145.3
	c3.3,22.8,5.3,42.5,5.3,42.7c0.3,4.7,2.5,8,4.4,8h1c1.8,0,4.3-2.9,4.4-7.6c0-15.1,1.2-30.1,3.6-45L139.4,145.3z"/>
<path class="st4" d="M376.7,142.1c-3.7,24.6-7.4,46.3-7.4,46.3c-0.4,6.4-3.9,11.2-8,11.2h-1c-4.1,0-7.9-4.8-8-11.1
	c0.1-16.5-1.4-32.9-4.5-49.1L376.7,142.1z"/>
<path d="M361.3,203.2h-1c-7.2-1-12.3-7.5-11.6-14.7c0.1-16.2-1.4-32.4-4.4-48.4c-0.3-1.1,0-2.3,0.8-3.2c0.8-0.9,1.9-1.3,3.1-1.2
	l28.9,2.8c2,0.2,3.5,2,3.3,4c0,0.1,0,0.1,0,0.2c-3.7,24.7-7.4,46.4-7.4,46.4C373.3,196,368.3,202.1,361.3,203.2L361.3,203.2z
	 M352.4,143.3c2.3,14.9,3.5,29.9,3.6,45c0.1,4.7,2.6,7.6,4.4,7.6h1c1.8,0,4.1-3.2,4.4-7.8c0-0.4,3.4-19.9,6.9-42.8L352.4,143.3z"/>
<path class="st3" d="M256,3.6c65.2,0,117.5,57.6,120.7,142.7c-34.9-28-75.6-37.9-120.7-39.5c-45.1,1.6-85.8,11.4-120.7,39.5
	C138.5,61.2,190.8,3.6,256,3.6z"/>
<path class="st5" d="M376.8,146.3c-5.6-4.5-11.4-8.6-17.5-12.3C348.5,61.3,299.9,13.6,240.6,13.6c-17.5,0-34.8,4.3-50.3,12.5
	C209.1,11.5,232.2,3.6,256,3.6C321.2,3.6,373.5,61.2,376.8,146.3L376.8,146.3z"/>
<path class="st3" d="M256,106.8c45.1,1.6,85.8,11.4,120.7,39.5l-18.6,33.2c-5,8.9-16,12.4-25.3,8.2c-24.3-10.4-50.4-16-76.8-16.6
	c-26.4,0.6-52.5,6.2-76.8,16.6c-9.3,4.2-20.3,0.6-25.3-8.2l-18.6-33.2C170.2,118.3,210.9,108.4,256,106.8L256,106.8z"/>
<path class="st5" d="M355.7,131.9c1.4,1,2.7,2,4.1,3.1l-22.6,37.1c-4.9,8.6-15.4,12.2-24.5,8.4l4,1c5.5,1.8,10.9,3.9,16.2,6.2
	c9.3,4.2,20.3,0.6,25.3-8.3l18.6-33.2C370.1,141,363,136.1,355.7,131.9L355.7,131.9z"/>
<path d="M376.7,149.9c-0.8,0-1.6-0.3-2.3-0.8c-30.7-24.6-68.3-36.9-118.6-38.7c-50,1.8-87.7,14.1-118.3,38.7c-1.6,1.3-3.8,1-5.1-0.6
	c-0.5-0.7-0.8-1.5-0.8-2.4C134.9,61.5,187.2,0,256,0s121.1,61.5,124.4,146.1c0.1,2-1.5,3.7-3.5,3.8
	C376.8,149.9,376.7,149.9,376.7,149.9L376.7,149.9z M255.9,103.2c48.7,1.7,86,13,116.8,35.4C366.8,62,318.7,7.3,256,7.3
	S145.2,62,139.4,138.6C170.1,116.2,207.4,104.9,255.9,103.2z"/>
<path d="M341,193.1c-3.3,0-6.6-0.7-9.6-2c-23.9-10.2-49.5-15.7-75.5-16.3c-25.9,0.6-51.4,6.1-75.2,16.3c-11,5-24,0.7-29.9-9.7
	l-18.6-33.2c-0.9-1.5-0.5-3.5,0.9-4.6c31.9-25.6,71-38.4,122.9-40.3h0.3c51.9,1.8,90.9,14.6,122.9,40.3c1.4,1.1,1.8,3.1,0.9,4.6
	l-18.6,33.2C357.2,188.6,349.4,193.1,341,193.1L341,193.1z M255.9,167.5c27,0.6,53.6,6.3,78.4,16.9c7.6,3.4,16.6,0.5,20.7-6.7
	l17-30.5c-30.2-23.3-67.2-35-116-36.8c-48.9,1.7-85.9,13.5-116,36.8l17.1,30.5c4.1,7.2,13.1,10.1,20.7,6.7
	C202.5,173.9,229,168.1,255.9,167.5L255.9,167.5z"/>
</svg>
