<?xml version="1.0" encoding="utf-8"?>
<!-- Generator: Adobe Illustrator 24.1.2, SVG Export Plug-In . SVG Version: 6.00 Build 0)  -->
<svg version="1.1" id="Layer_1" xmlns="http://www.w3.org/2000/svg" xmlns:xlink="http://www.w3.org/1999/xlink" x="0px" y="0px"
	 viewBox="0 0 309.2 308.9" style="enable-background:new 0 0 309.2 308.9;" xml:space="preserve">
<style type="text/css">
	.st0{fill:#0077B7;}
</style>
<g>
	<path class="st0" d="M306.8,27.8c0,83.8,0,167.6,0,251.5c-0.3,0.8-0.7,1.6-0.8,2.5c-1,11.3-10.8,21.8-21.8,23.5
		c-1.4,0.2-2.8,0.6-4.2,0.8c-83.8,0-167.6,0-251.4,0c-1.8-0.4-3.6-0.7-5.4-1.2C9.9,301.4,2,291.1,2,276.9c0-82.2,0-164.4,0-246.7
		c0-6.4,1.6-12.5,5.6-17.8C13.8,4.2,22.3,1.3,32.1,1.3c79.6,0,159.2,0,238.9,0c3.7,0,7.3,0.2,11,0.5c11.9,0.8,21.4,9.9,23.9,21.5
		C306.2,24.8,306.5,26.3,306.8,27.8z M169.4,130.6c0-2.7,0-5.8,0-9c0-5.7-3.2-8.8-8.8-8.8c-11,0-22,0-33.1,0c-6,0-9.1,3.1-9.1,9.2
		c0,47.2,0,94.3,0,141.5c0,6.1,3.2,9.4,9.3,9.4c10.7,0,21.4,0,32.2,0c6.5,0,9.6-3.1,9.6-9.7c0-24,0-48.1,0-72.1
		c0-7.9,1.7-15.3,5.1-22.4c4.9-10.2,14.1-15.4,25.4-14.3c10.7,1,18.1,7.1,20.8,18.2c1.4,5.6,2.2,11.5,2.3,17.3
		c0.2,24.6,0.1,49.3,0.1,73.9c0,6.1,3,9.1,9.1,9.1c11.1,0,22.2,0,33.4,0c6.3,0,9.7-3.2,9.7-9.4c-0.1-29-0.1-58-0.6-87
		c-0.2-11.5-2-22.9-6.4-33.7c-5.4-13.4-14.2-23.5-28-28.6c-10.5-3.9-21.5-4.4-32.6-3.5c-9.3,0.8-18.3,2.9-25.9,8.7
		C177.4,122.8,173.5,126.9,169.4,130.6z M45.6,192.9c0,23.3,0,46.7,0,70c0,6.8,3.2,10,10,10c9.9,0,19.8,0,29.8,0
		c8.3,0,11.3-3,11.3-11.3c0-28.9,0-57.8,0-86.7c0-17.4,0-34.7,0-52.1c0-6.8-3.3-10.1-10-10.1c-10.4,0-20.8,0-31.3,0
		c-6.7,0-9.8,3.1-9.8,9.8C45.6,146.1,45.6,169.5,45.6,192.9z M103.9,67.2c0-18.1-14.8-33-32.9-33C53,34.2,38,49,38.2,67.1
		c0.1,18.7,14.6,32.6,32.7,33C88.9,100.4,103.8,85.3,103.9,67.2z"/>
</g>
</svg>
