<?xml version="1.0" encoding="utf-8"?>
<!-- Generator: Adobe Illustrator 24.1.0, SVG Export Plug-In . SVG Version: 6.00 Build 0)  -->
<svg version="1.1" id="Layer_1" xmlns="http://www.w3.org/2000/svg" xmlns:xlink="http://www.w3.org/1999/xlink" x="0px" y="0px"
	 viewBox="0 0 4321.4 1618.5" style="enable-background:new 0 0 4321.4 1618.5;" xml:space="preserve">
<style type="text/css">
	.st0{fill:none;}
	.st1{fill:#FFFFFF;}
	.st2{enable-background:new    ;}
</style>
<g>
	<g>
		<g>
			<path class="st0" d="M421.5,376.5c0,13.1,0.1,26.2,0.1,39.3c0.1,20.4-5.4,38.2-18.4,52.7c13-14.5,18.5-32.3,18.4-52.7
				C421.6,402.7,421.5,389.6,421.5,376.5z"/>
		</g>
	</g>
	<g>
		<g>
			<path class="st0" d="M427.9,225.3c-4.4,10.3-6.3,21.5-6.3,33.3c0,26.2-0.1,52.4-0.1,78.6c0-26.2,0.1-52.4,0.1-78.6
				C421.6,246.8,423.5,235.6,427.9,225.3z"/>
		</g>
	</g>
	<g>
		<g>
			<path class="st0" d="M715.8,179.8c-71.5,0-143.1,0-214.6,0c-0.1,0-0.1,0-0.2,0c0.1,0,0.1,0,0.2,0
				C572.7,179.8,644.2,179.8,715.8,179.8z"/>
		</g>
	</g>
	<g>
		<g>
			<path class="st0" d="M167.3,495.2c-0.7,0.2-1.4,0.3-2.1,0.5c-3.5,0.9-6.8,1.9-10.1,3.2c3.2-1.3,6.6-2.4,10.1-3.2
				C165.9,495.5,166.6,495.3,167.3,495.2z"/>
		</g>
	</g>
	<g>
		<g>
			<path class="st0" d="M449.1,1509.8c23.8,0,47.6,0,71.3,0c-20.1,0-40.2,0-60.3,0C456.4,1509.8,452.7,1509.8,449.1,1509.8z"/>
		</g>
	</g>
	<g>
		<g>
			<path class="st0" d="M108.3,1153.4c0-64.9,0-129.7,0-194.6C108.3,1023.7,108.3,1088.5,108.3,1153.4c0,93.7-0.2,187.4,0.1,281.1
				c0,10.4,1.7,19.9,5,28.4c-3.3-8.5-5-18-5-28.4C108.1,1340.8,108.3,1247.1,108.3,1153.4z"/>
		</g>
	</g>
	<g>
		<g>
			<path class="st0" d="M228.8,492.8c-13.6,0-27.3,0.1-40.9,0.1c-1,0-1.9,0-2.9,0.1c1,0,1.9-0.1,2.9-0.1
				C201.5,492.9,215.1,492.8,228.8,492.8z"/>
		</g>
	</g>
	<g>
		<g>
			<path class="st0" d="M346.4,492.9c-0.7,0-1.4,0-2.1,0c0.2,0,0.4,0,0.7,0C345.4,492.9,345.9,492.9,346.4,492.9z"/>
		</g>
	</g>
	<g>
		<g>
			<path class="st0" d="M115.4,1467.5c-0.7-1.5-1.4-3.1-2-4.7C114,1464.5,114.7,1466,115.4,1467.5z"/>
		</g>
	</g>
	<g>
		<g>
			<path class="st0" d="M1088.2,1195.1c0-38.3,0-76.5,0-114.7c0-40,0.1-80-0.1-119.9c-0.1-8.1-0.6-16.5-2.6-24.4
				c-6.7-27.1-31.1-55.7-75.8-56c-40.7-0.3-81.4-0.2-122.1,0c-14.3,0.1-28.2,2.8-40.6,10.3c-26.1,15.8-38,39.3-38,69.7
				c0.1,156.8,0.1,313.5,0.1,470.3c0,4.5,0.2,8.9,0.6,13.4c3.5,37.2,38.3,67,75.8,66.3c41.8-0.7,83.7-0.3,125.6-0.2
				c23.1,0,42.6-8,58.1-25.1c13.9-15.4,19.2-33.8,19.1-54.5C1088,1351.9,1088.2,1273.5,1088.2,1195.1z"/>
		</g>
	</g>
	<g>
		<g>
			<path class="st0" d="M738,1429.6C738,1429.6,738,1429.6,738,1429.6C738,1429.7,738,1429.7,738,1429.6
				C738,1429.7,738,1429.7,738,1429.6z"/>
		</g>
	</g>
	<g>
		<g>
			<path class="st0" d="M1438.6,950.8c-1.9-33.3-26.6-62-59.2-68.5c-7-1.4-14.3-2.2-21.4-2.2c-42.3,0-84.6-0.4-126.8,0.7
				c-40.2,1-71.4,34.7-71.4,75.1c0,79.7,0,159.3,0,239c0,79.8,0,159.6,0,239.5c0,4,0.3,8.1,0.9,12.1c4.8,36.1,38.7,64.2,75.1,63.6
				c41.8-0.6,83.7-0.6,125.6-0.1c33.7,0.4,64.4-20.7,73.8-53.1c2.5-8.7,3.8-18.2,3.8-27.3c0.2-153.1,0.2-306.3,0.1-459.4
				C1439.1,963.8,1439,957.3,1438.6,950.8z"/>
		</g>
	</g>
	<g>
		<g>
			<path class="st0" d="M123.9,1481.1c-1.3-1.6-2.5-3.2-3.6-4.9C121.4,1477.9,122.6,1479.5,123.9,1481.1z"/>
		</g>
	</g>
	<g>
		<g>
			<path class="st0" d="M120.3,1476.2c-1.1-1.7-2.2-3.4-3.1-5.1C118.1,1472.8,119.2,1474.6,120.3,1476.2z"/>
		</g>
	</g>
	<g>
		<g>
			<path class="st0" d="M169.5,420.6c6.4,1,12.9,1.3,19.4,1.3c31.2,0,62.4,0.7,93.5-0.5c34.6-1.3,65.3-32,67.5-66.5
				c1-16.8,0.2-33.7,0.2-50.6c0,0,0,0,0.1,0c0-18.9,1-37.9-0.2-56.7c-2.3-36.9-34.7-67.2-71.5-67.6c-32.6-0.4-65.3-0.4-97.9,0
				c-38.5,0.5-71.5,33.4-72.1,71.9c-0.5,32.6-0.4,65.3,0,97.9C108.8,384.1,135.6,415,169.5,420.6z"/>
		</g>
	</g>
	<g>
		<g>
			<path class="st0" d="M658.5,1509.8c0.4,0,0.9,0,1.3,0C659.4,1509.8,658.9,1509.8,658.5,1509.8
				C658.5,1509.8,658.5,1509.8,658.5,1509.8z"/>
		</g>
	</g>
	<g>
		<g>
			<path class="st0" d="M1439.1,257.3c0,0.8,0,1.5,0,2.3c0,34.1,0.1,68.3,0.1,102.4c0-34.1,0-68.3-0.1-102.4
				C1439.1,258.8,1439.1,258,1439.1,257.3z"/>
		</g>
	</g>
	<g>
		<g>
			<path class="st0" d="M1426.6,775c-0.3,0.4-0.6,0.8-0.9,1.3C1426,775.8,1426.3,775.4,1426.6,775c9.3-13.7,12.5-29.3,12.6-45.6
				c0-29.5,0-58.9,0-88.4c0,29.5,0,58.9,0,88.4C1439.1,745.7,1435.9,761.3,1426.6,775z"/>
		</g>
	</g>
	<g>
		<g>
			<path class="st0" d="M737.8,1160.3c0-89.8,0-179.6,0-269.4c0-3.1,0.1-6.2,0.2-9.3c-0.2,3.1-0.2,6.2-0.2,9.3
				C737.9,980.7,737.8,1070.5,737.8,1160.3z"/>
		</g>
	</g>
	<g>
		<g>
			<path class="st0" d="M1359.8,809.1c0.5,0,1,0,1.5,0c0,0,0,0,0,0c0,0,0,0,0,0C1360.8,809.1,1360.3,809.1,1359.8,809.1z"/>
		</g>
	</g>
	<g>
		<g>
			<path class="st0" d="M738.1,881.4c0.1-1,0.1-2,0.2-3c0.6-7.8,2-15.1,4.4-21.8c-2.4,6.7-3.8,13.9-4.4,21.8
				C738.2,879.3,738.1,880.4,738.1,881.4z"/>
		</g>
	</g>
	<g>
		<g>
			<path class="st0" d="M814.9,809.1c0.4,0,0.8,0,1.2,0c0,0,0,0-0.1,0C815.6,809.1,815.2,809.1,814.9,809.1z"/>
		</g>
	</g>
	<g>
		<g>
			<path class="st1" d="M1449.1,109.8c-1.4-0.2-2.7-0.4-4.1-0.6C1446.3,109.3,1447.7,109.6,1449.1,109.8z"/>
		</g>
	</g>
	<g>
		<g>
			<path class="st1" d="M1476.3,119.9C1476.3,119.9,1476.3,119.9,1476.3,119.9c-3.4-2.1-7-4-10.6-5.4
				C1469.4,116,1472.9,117.8,1476.3,119.9z"/>
		</g>
	</g>
	<g>
		<g>
			<path class="st1" d="M1430.9,108.3c-431.8,0-863.5,0-1295.3,0C567.4,108.4,999.1,108.4,1430.9,108.3c1,0,2.1,0,3.1,0
				C1433,108.4,1431.9,108.3,1430.9,108.3C1430.9,108.3,1430.9,108.3,1430.9,108.3z"/>
		</g>
	</g>
	<g>
		<g>
			<path d="M75.5,117.4c1.5-0.8,2.9-1.5,4.5-2.2c0.8-0.3,1.5-0.7,2.3-1c1-0.4,1.9-0.8,2.9-1.1c6.8-2.4,14.1-3.8,21.9-4.2
				c2.4-0.1,4.8-0.2,7.1-0.3c2.4-0.1,4.8-0.1,7.1-0.2c4.8-0.1,9.5-0.1,14.3-0.1c0,0,0,0,0,0c431.8,0,863.5,0,1295.3,0c0,0,0,0,0,0
				c1,0,2.1,0,3.1,0c0,0,0,0,0,0c1,0,1.9,0.1,2.9,0.1c0.1,0,0.1,0,0.2,0c0.9,0,1.7,0.1,2.5,0.2c0.2,0,0.3,0,0.5,0
				c1.6,0.1,3.3,0.3,4.9,0.5c1.4,0.2,2.7,0.4,4.1,0.6c0.6,0.1,1.2,0.2,1.8,0.3c1.2,0.2,2.4,0.5,3.6,0.8c0,0,0,0,0,0
				c3.9,0.9,7.6,2.1,11.3,3.6c0,0,0,0,0,0c3.7,1.5,7.2,3.3,10.6,5.4c0,0,0,0,0,0c-35.3-30.2-81-48.4-131-48.4H201.7
				c-15.5,0-30.6,1.8-45.1,5.1c-3.7,0.9-7.4,1.8-11.1,2.9c-3.4,1-6.8,2.1-10.2,3.2c-1.9,0.7-3.8,1.3-5.7,2.1
				c-1.4,0.5-2.8,1.1-4.2,1.7c-2.1,0.8-4.1,1.7-6.2,2.6c-2,0.9-4.1,1.9-6.1,2.8c-5.3,2.6-10.6,5.5-15.6,8.5
				c-5.1,3.1-10,6.3-14.7,9.8c-4.8,3.5-9.4,7.2-13.8,11c1.4-1,2.8-1.9,4.2-2.7C74,118.2,74.7,117.8,75.5,117.4z"/>
		</g>
	</g>
	<g>
		<g>
			<path class="st1" d="M36.9,837.2c0-216.6,0-433.2,0-649.8c0-7.5,0.7-14.8,2.2-21.7c-1.5,6.9-2.2,14.2-2.2,21.7
				C36.9,404,36.9,620.6,36.9,837.2z"/>
		</g>
	</g>
	<g>
		<g>
			<path class="st1" d="M49.7,140.7C49.7,140.7,49.7,140.7,49.7,140.7c-0.6,0.9-1.1,1.7-1.7,2.6C48.5,142.4,49.1,141.5,49.7,140.7z"
				/>
		</g>
	</g>
	<g>
		<g>
			<path class="st1" d="M37.2,1508.1c-0.3-6-0.3-12-0.3-18C36.9,1496,36.9,1502.1,37.2,1508.1z"/>
		</g>
	</g>
	<g>
		<g>
			<path class="st1" d="M0,273.2c0-3.4,0.1-6.8,0.3-10.2C0.1,266.4,0,269.8,0,273.2l0,1143.6c0,3.7,0.1,7.4,0.3,11.1
				c-0.2-3.7-0.3-7.3-0.3-11.1V273.2z"/>
		</g>
	</g>
	<g>
		<g>
			<path class="st1" d="M4.2,1457.7c-0.5-2.4-0.9-4.8-1.4-7.3C3.2,1452.9,3.7,1455.3,4.2,1457.7z"/>
		</g>
	</g>
	<g>
		<g>
			<path class="st1" d="M1506.5,152.1c1.5,2,3,4.1,4.5,6.2C1509.6,156.2,1508.1,154.1,1506.5,152.1z"/>
		</g>
	</g>
	<g>
		<g>
			<path class="st1" d="M1535.9,207.2c7.2,20.7,11.1,42.9,11.1,66v1143.6c0,15.7-1.8,31-5.2,45.7c3.4-14.7,5.2-30,5.2-45.7V273.2
				C1547,250.1,1543.1,227.9,1535.9,207.2z"/>
		</g>
	</g>
	<g>
		<g>
			<path class="st1" d="M1541.8,1462.5c-0.8,3.4-1.7,6.7-2.6,10.1C1540.2,1469.2,1541,1465.9,1541.8,1462.5z"/>
		</g>
	</g>
	<g>
		<g>
			<path class="st1" d="M1499.1,142.7C1499.1,142.7,1499.1,142.7,1499.1,142.7c0.6,0.9,1.1,1.9,1.7,2.8
				C1500.2,144.6,1499.7,143.6,1499.1,142.7z"/>
		</g>
	</g>
	<g>
		<g>
			<path class="st1" d="M1510.1,1502.6c0,1.7,0,3.4-0.1,5.1C1510.1,1506,1510.1,1504.3,1510.1,1502.6c0-438.6,0-877.1,0-1315.7
				c0-0.4,0-0.9,0-1.3c0,0.4,0,0.9,0,1.3C1510.1,625.5,1510.1,1064.1,1510.1,1502.6z"/>
		</g>
	</g>
	<g>
		<g>
			<path class="st1" d="M1497.8,1548.8C1497.8,1548.8,1497.8,1548.8,1497.8,1548.8c1.8-2.7,3.5-5.6,5-8.6
				C1501.3,1543.2,1499.7,1546.1,1497.8,1548.8z"/>
		</g>
	</g>
	<g>
		<g>
			<path class="st1" d="M1505.5,1533.9c0.3-0.8,0.6-1.5,0.8-2.3c0.6-1.7,1-3.3,1.5-5c-0.4,1.7-0.9,3.3-1.5,5
				C1506.1,1532.4,1505.8,1533.2,1505.5,1533.9z"/>
		</g>
	</g>
	<g>
		<g>
			<path d="M1547,273.2c0-23.1-3.9-45.3-11.1-66c-1.7-4.8-3.5-9.5-5.5-14.1c-1.7-4-3.5-7.8-5.5-11.7c-0.5-0.9-0.9-1.8-1.4-2.7
				c-0.2-0.3-0.3-0.6-0.5-0.9c-1.2-2.3-2.5-4.5-3.8-6.7c-0.6-1.1-1.3-2.2-2-3.3c-1.3-2.2-2.7-4.3-4.1-6.5c-0.7-1.1-1.4-2.1-2.2-3.2
				c-1.5-2.1-3-4.2-4.5-6.2c-2.4-3.2-4.9-6.3-7.5-9.3c0,0,0,0,0,0c0.6,0.9,1.1,1.9,1.7,2.8c6.6,11.5,9.7,24.5,9.3,38.8
				c0,0.4,0,0.9,0,1.3c0,0,0,0,0,0c0,0,0,0,0,0c0,0.4,0,0.9,0,1.3c0,438.6,0,877.1,0,1315.7c0,1.7,0,3.4-0.1,5.1
				c0,1.7-0.1,3.4-0.2,5c-0.1,1.7-0.3,3.3-0.4,5c-0.2,1.7-0.4,3.3-0.7,5c-0.1,0.6-0.2,1.2-0.4,1.8c-0.2,0.7-0.3,1.4-0.5,2.2
				c-0.4,1.7-0.9,3.3-1.5,5c-0.3,0.8-0.5,1.5-0.8,2.3c-0.3,0.8-0.6,1.5-0.9,2.3c-0.6,1.4-1.2,2.7-1.8,4c-1.5,3-3.1,5.9-5,8.6
				c0,0,0,0,0,0c8.3-9.5,15.6-19.9,22-30.9c0.5-0.9,1.1-1.9,1.6-2.8c1.2-2.1,2.3-4.2,3.4-6.4c2-3.9,3.9-8,5.7-12
				c0.6-1.4,1.2-2.7,1.7-4.1c1.1-2.8,2.2-5.5,3.2-8.4c0.5-1.4,1-2.8,1.5-4.2c0.8-2.5,1.6-5,2.3-7.5c1-3.3,1.8-6.7,2.6-10.1
				c3.4-14.7,5.2-30,5.2-45.7V273.2z"/>
		</g>
	</g>
	<g>
		<g>
			<path class="st1" d="M65.7,1565.8c13.7,12.5,29,23.1,45.7,31.4C94.8,1588.9,79.4,1578.3,65.7,1565.8
				C65.7,1565.8,65.7,1565.8,65.7,1565.8z"/>
		</g>
	</g>
	<g>
		<g>
			<path class="st1" d="M1476,1570.4c1-0.8,1.9-1.6,2.8-2.5c0,0,0,0,0,0C1477.9,1568.8,1476.9,1569.6,1476,1570.4z"/>
		</g>
	</g>
	<g>
		<g>
			<path class="st1" d="M115.6,1580.8c-0.3,0-0.6,0-0.8,0C115.1,1580.8,115.3,1580.8,115.6,1580.8
				C115.6,1580.8,115.6,1580.8,115.6,1580.8z"/>
		</g>
	</g>
	<g>
		<g>
			<path class="st1" d="M773.5,1580.6L773.5,1580.6c0,0,0,0.1,0,0.1h0C773.5,1580.7,773.5,1580.7,773.5,1580.6z"/>
		</g>
	</g>
	<g>
		<g>
			<path class="st1" d="M68,1567.4c2.5,1.8,5.2,3.4,8,5C73.2,1570.8,70.5,1569.2,68,1567.4z"/>
		</g>
	</g>
	<g>
		<g>
			<path class="st1" d="M1438.3,1580.6c-188.1,0-376.3,0-564.4,0c93.2,0,186.3,0,279.5,0C1248.3,1580.6,1343.3,1580.6,1438.3,1580.6
				z"/>
		</g>
	</g>
	<g>
		<g>
			<path d="M1477.8,1568.7c-1.3,0.8-2.6,1.7-3.9,2.4c-1.4,0.8-2.8,1.5-4.2,2.2c-3.2,1.6-6.5,2.9-9.9,4c-2.6,0.8-5.2,1.5-7.8,2
				c-0.9,0.2-1.8,0.3-2.7,0.5c-2.6,0.4-5.3,0.7-8,0.8c-1,0-2,0.1-2.9,0.1c0,0,0,0,0,0c-95,0-189.9,0-284.9,0
				c-93.2,0-186.4,0-279.5,0c-33.4,0-66.9,0-100.3,0c0,0,0,0.1,0,0.1h0c0,0,0,0,0,0c-91,0-182,0-273.1,0c-26.6,0-53.3,0-79.9,0
				c-101.6,0-203.2,0-304.9,0c0,0,0,0,0,0c0,0,0,0,0,0c-0.3,0-0.5,0-0.8,0c-0.5,0-1,0-1.5,0c-0.3,0-0.6,0-1,0c-0.4,0-0.9,0-1.3,0
				c-0.4,0-0.8,0-1.1,0c-0.4,0-0.8,0-1.2,0c-0.4,0-0.8,0-1.2-0.1c-0.4,0-0.7,0-1.1-0.1c-0.4,0-0.9-0.1-1.3-0.1c-0.3,0-0.7,0-1-0.1
				c-0.4,0-0.9-0.1-1.3-0.1c-0.3,0-0.7-0.1-1-0.1c-0.4,0-0.8-0.1-1.3-0.1c-0.3,0-0.7-0.1-1-0.1c-0.4-0.1-0.9-0.1-1.3-0.2
				c-0.3,0-0.6-0.1-1-0.1c-0.4-0.1-0.9-0.1-1.3-0.2c-0.3-0.1-0.6-0.1-1-0.2c-0.4-0.1-0.8-0.2-1.3-0.3c-0.3-0.1-0.6-0.1-1-0.2
				c-0.4-0.1-0.8-0.2-1.3-0.3c-0.3-0.1-0.6-0.1-1-0.2c-0.4-0.1-0.9-0.2-1.3-0.4c-0.3-0.1-0.6-0.2-0.9-0.2c-0.4-0.1-0.8-0.3-1.2-0.4
				c-0.3-0.1-0.6-0.2-0.9-0.3c-0.4-0.1-0.7-0.3-1.1-0.4c-0.4-0.1-0.7-0.2-1.1-0.4c-0.3-0.1-0.7-0.3-1-0.4c-0.4-0.2-0.8-0.3-1.2-0.5
				c-0.2-0.1-0.4-0.2-0.6-0.3c-0.5-0.2-1-0.4-1.5-0.7c-1.3-0.6-2.6-1.3-3.8-2c-2.8-1.5-5.5-3.2-8-5c-0.8-0.5-1.6-1.1-2.3-1.6
				c13.7,12.5,29,23.1,45.7,31.4c4.7,2.3,9.4,4.5,14.3,6.5c2.5,1,5.1,2,7.6,2.9c1.9,0.7,3.8,1.3,5.8,2c6.4,2.1,12.9,3.9,19.6,5.3
				c1.5,0.3,3.1,0.6,4.6,0.9c12.4,2.4,25.2,3.6,38.3,3.6h1143.6c49.9,0,95.5-18.1,130.7-48.1c1-0.8,1.9-1.6,2.8-2.5
				C1478.5,1568.2,1478.1,1568.5,1477.8,1568.7z"/>
		</g>
	</g>
	<g>
		<g>
			<g>
				<path class="st0" d="M36.9,837.2c0-216.6,0-433.2,0-649.8c0-7.5,0.7-14.8,2.2-21.7c-1.5,6.9-2.2,14.2-2.2,21.7
					C36.9,404,36.9,620.6,36.9,837.2z"/>
			</g>
		</g>
		<g>
			<g>
				<path class="st0" d="M37.2,1508.1c-0.3-6-0.3-12-0.3-18C36.9,1496,36.9,1502.1,37.2,1508.1z"/>
			</g>
		</g>
		<g>
			<g>
				<path class="st0" d="M169.5,420.6c6.4,1,12.9,1.3,19.4,1.3c31.2,0,62.4,0.7,93.5-0.5c34.6-1.3,65.3-32,67.5-66.5
					c1-16.8,0.2-33.7,0.2-50.6c0,0,0,0,0.1,0c0-18.9,1-37.9-0.2-56.7c-2.3-36.9-34.7-67.2-71.5-67.6c-32.6-0.4-65.3-0.4-97.9,0
					c-38.5,0.5-71.5,33.4-72.1,71.9c-0.5,32.6-0.4,65.3,0,97.9C108.8,384.1,135.6,415,169.5,420.6z"/>
			</g>
		</g>
		<g>
			<g>
				<path class="st0" d="M1438.6,950.8c-1.9-33.3-26.6-62-59.2-68.5c-7-1.4-14.3-2.2-21.4-2.2c-42.3,0-84.6-0.4-126.8,0.7
					c-40.2,1-71.4,34.7-71.4,75.1c0,79.7,0,159.3,0,239c0,79.8,0,159.6,0,239.5c0,4,0.3,8.1,0.9,12.1c4.8,36.1,38.7,64.2,75.1,63.6
					c41.8-0.6,83.7-0.6,125.6-0.1c33.7,0.4,64.4-20.7,73.8-53.1c2.5-8.7,3.8-18.2,3.8-27.3c0.2-153.1,0.2-306.3,0.1-459.4
					C1439.1,963.8,1439,957.3,1438.6,950.8z"/>
			</g>
		</g>
		<g>
			<g>
				<path class="st0" d="M1088.2,1195.1c0-38.3,0-76.5,0-114.7c0-40,0.1-80-0.1-119.9c-0.1-8.1-0.6-16.5-2.6-24.4
					c-6.7-27.1-31.1-55.7-75.8-56c-40.7-0.3-81.4-0.2-122.1,0c-14.3,0.1-28.2,2.8-40.6,10.3c-26.1,15.8-38,39.3-38,69.7
					c0.1,156.8,0.1,313.5,0.1,470.3c0,4.5,0.2,8.9,0.6,13.4c3.5,37.2,38.3,67,75.8,66.3c41.8-0.7,83.7-0.3,125.6-0.2
					c23.1,0,42.6-8,58.1-25.1c13.9-15.4,19.2-33.8,19.1-54.5C1088,1351.9,1088.2,1273.5,1088.2,1195.1z"/>
			</g>
		</g>
		<g>
			<g>
				<path class="st0" d="M1439.1,257.3c0-1.5-0.1-3-0.2-4.5c-0.1-1.5-0.2-3-0.3-4.5c-0.1-1.5-0.3-3-0.5-4.4
					c-0.6-4.2-1.5-8.3-2.9-12.3c-0.1-0.4-0.3-0.9-0.4-1.3c-0.4-1.1-0.8-2.2-1.3-3.3c-0.1-0.2-0.2-0.5-0.3-0.7
					c-0.3-0.6-0.5-1.1-0.8-1.7c-0.6-1.3-1.3-2.6-1.9-3.8c-0.5-1-1.1-2-1.7-3c-2.5-4.3-5.2-8.2-8.2-11.8c-0.4-0.5-0.8-1-1.2-1.5
					c-14.2-16.4-33.6-24.7-58.1-24.7c-71.1,0-142.1,0-213.2,0c-68.8,0-137.7,0-206.5,0c-3.7,0-7.5,0-11.2,0c-71.5,0-143.1,0-214.6,0
					c-71.5,0-143.1,0-214.6,0c-0.1,0-0.1,0-0.2,0c-0.6,0-1.2,0-1.8,0c-1.1,0-2.1,0-3.2,0c0,0,0,0,0,0c-1.4,0-2.8,0.1-4.2,0.2
					c-2.8,0.2-5.5,0.5-8.1,1c-1.2,0.2-2.3,0.4-3.4,0.7c-1.7,0.4-3.4,0.8-5,1.3c-1.6,0.5-3.3,1-4.9,1.6c-0.8,0.3-1.6,0.6-2.4,0.9
					c-1.6,0.6-3.1,1.4-4.6,2.1c-0.8,0.4-1.5,0.8-2.3,1.2c-1,0.5-2,1.1-2.9,1.7c-2.2,1.4-4.4,2.8-6.5,4.5c-2.1,1.6-4.1,3.4-6.1,5.2
					c-2,1.9-3.9,3.9-5.7,6c-4.1,4.7-7.4,9.7-10,14.9c-0.4,0.7-0.7,1.4-1,2.2c-0.3,0.7-0.6,1.4-0.9,2.1c-4.4,10.3-6.3,21.5-6.3,33.3
					c0,26.2-0.1,52.4-0.1,78.6c0,13.1,0,26.2,0,39.3c0,13.1,0.1,26.2,0.1,39.3c0.1,20.4-5.4,38.2-18.4,52.7c-0.9,1-1.8,1.9-2.7,2.9
					c-1.5,1.6-3.2,3.1-4.9,4.5c0,0,0,0,0,0c-0.9,0.8-1.8,1.5-2.7,2.2c-0.3,0.2-0.6,0.5-0.9,0.7c-0.6,0.5-1.3,0.9-1.9,1.4
					c-0.4,0.3-0.8,0.5-1.2,0.8c-0.6,0.4-1.1,0.8-1.7,1.1c-0.4,0.3-0.9,0.5-1.3,0.8c-0.6,0.3-1.1,0.7-1.7,1c-0.5,0.2-0.9,0.5-1.4,0.7
					c-0.5,0.3-1.1,0.6-1.6,0.8c-0.5,0.2-0.9,0.4-1.4,0.7c-0.5,0.2-1.1,0.5-1.6,0.7c-0.5,0.2-1,0.4-1.5,0.6c-0.5,0.2-1.1,0.4-1.7,0.7
					c-0.5,0.2-1,0.3-1.5,0.5c-0.6,0.2-1.1,0.4-1.7,0.6c-0.5,0.2-1,0.3-1.5,0.5c-0.6,0.2-1.1,0.3-1.7,0.5c-0.5,0.1-1,0.3-1.6,0.4
					c-0.6,0.1-1.1,0.3-1.7,0.4c-0.5,0.1-1.1,0.2-1.6,0.3c-0.6,0.1-1.1,0.2-1.7,0.3c-0.5,0.1-1.1,0.2-1.6,0.3
					c-0.6,0.1-1.2,0.2-1.7,0.3c-0.6,0.1-1.1,0.1-1.7,0.2c-0.6,0.1-1.2,0.1-1.8,0.2c-0.6,0.1-1.1,0.1-1.7,0.1c-0.6,0-1.2,0.1-1.8,0.1
					c-0.6,0-1.1,0.1-1.7,0.1c-0.6,0-1.2,0.1-1.8,0.1c-0.6,0-1.2,0-1.7,0c-0.7,0-1.4,0-2.1,0c0,0,0,0,0,0
					c-12.5-0.1-24.9-0.1-37.4-0.1c-4.2,0-8.4,0-12.6,0c-8.1,0-16.3,0-24.4,0c-9.3,0-18.6,0-27.9,0c-4.4,0-8.8,0-13.1,0
					c-13.6,0-27.3,0.1-40.9,0.1c-1,0-1.9,0-2.9,0.1c-5.9,0.2-11.9,0.9-17.6,2.2c-0.7,0.2-1.4,0.3-2.1,0.5c-3.5,0.9-6.8,1.9-10.1,3.2
					c-1.7,0.7-3.4,1.4-5.1,2.2c-25.6,12.4-41.8,38.3-41.8,68.5c0,129.7,0,259.5,0,389.2c0,64.9,0,129.7,0,194.6
					c0,93.7-0.2,187.4,0.1,281.1c0,7.8,1,15.1,2.8,21.8c0.6,2.3,1.3,4.4,2.2,6.6c0.6,1.6,1.3,3.2,2,4.7c0.6,1.2,1.2,2.4,1.8,3.5
					c1,1.8,2,3.5,3.1,5.1c1.1,1.7,2.3,3.3,3.6,4.9c1.4,1.8,3,3.5,4.6,5.2c6,6.1,13.2,11.4,21.7,15.9c0.7,0.4,1.5,0.8,2.3,1.1
					c0.2,0.1,0.4,0.2,0.6,0.3c0.6,0.3,1.1,0.5,1.7,0.8c0.3,0.1,0.5,0.2,0.8,0.3c0.5,0.2,1,0.4,1.6,0.6c0.3,0.1,0.6,0.2,0.9,0.3
					c0.5,0.2,0.9,0.3,1.4,0.5c0.3,0.1,0.7,0.2,1.1,0.3c0.4,0.1,0.9,0.3,1.3,0.4c0.4,0.1,0.7,0.2,1.1,0.3c0.4,0.1,0.8,0.2,1.3,0.3
					c0.4,0.1,0.8,0.2,1.1,0.3c0.4,0.1,0.8,0.2,1.3,0.3c0.4,0.1,0.8,0.2,1.2,0.2c0.4,0.1,0.8,0.2,1.3,0.2c0.4,0.1,0.8,0.1,1.2,0.2
					c0.4,0.1,0.8,0.1,1.2,0.2c0.4,0.1,0.8,0.1,1.2,0.2c0.4,0.1,0.8,0.1,1.2,0.2c0.4,0,0.8,0.1,1.2,0.1c0.4,0,0.8,0.1,1.2,0.1
					c0.4,0,0.8,0.1,1.2,0.1c0.4,0,0.9,0.1,1.3,0.1c0.4,0,0.8,0,1.2,0.1c0.4,0,0.9,0.1,1.3,0.1c0.4,0,0.8,0,1.2,0
					c0.4,0,0.9,0,1.3,0.1c0.4,0,0.8,0,1.2,0c0.4,0,0.9,0,1.3,0c0.4,0,0.8,0,1.2,0c0.5,0,0.9,0,1.4,0c42.9,0,85.9,0,128.8-0.1
					c15,0,30,0,45.1,0c28.8,0,57.6,0,86.4,0c23.8,0,47.6,0,71.3,0c45.5,0,91,0,136.5,0c0.5,0,1,0,1.5,0c0.4,0,0.9,0,1.3,0
					c0.1,0,0.1,0,0.2,0c0.2,0,0.5,0,0.7,0c0.6,0,1.1,0,1.7,0c0.8,0,1.6,0,2.3,0c0.2,0,0.4,0,0.6,0c0.6,0,1.2,0,1.7-0.1
					c0.3,0,0.5,0,0.8-0.1c0.5,0,1-0.1,1.5-0.1c0.3,0,0.6-0.1,0.9-0.1c0.5,0,0.9-0.1,1.4-0.1c0.3,0,0.6-0.1,0.9-0.1
					c0.4-0.1,0.9-0.1,1.3-0.2c0.3,0,0.6-0.1,0.9-0.1c0.4-0.1,0.8-0.1,1.3-0.2c0.3-0.1,0.6-0.1,0.9-0.2c0.4-0.1,0.8-0.1,1.2-0.2
					c0.3-0.1,0.6-0.1,1-0.2c0.4-0.1,0.8-0.2,1.2-0.3c0.3-0.1,0.6-0.1,0.9-0.2c0.4-0.1,0.8-0.2,1.2-0.3c0.3-0.1,0.6-0.2,0.9-0.2
					c0.4-0.1,0.8-0.2,1.1-0.3c0.3-0.1,0.6-0.2,0.9-0.3c0.4-0.1,0.8-0.2,1.1-0.4c0.3-0.1,0.6-0.2,0.9-0.3c0.4-0.1,0.7-0.3,1.1-0.4
					c0.3-0.1,0.6-0.2,0.9-0.3c0.4-0.1,0.7-0.3,1.1-0.4c0.3-0.1,0.6-0.2,0.9-0.4c0.4-0.1,0.7-0.3,1.1-0.4c0.3-0.1,0.6-0.3,0.9-0.4
					c0.4-0.2,0.7-0.3,1.1-0.5c0.3-0.1,0.6-0.3,0.9-0.4c0.4-0.2,0.7-0.3,1-0.5c0.3-0.1,0.6-0.3,0.9-0.4c0.3-0.2,0.7-0.4,1-0.5
					c0.3-0.2,0.6-0.3,0.8-0.5c0.3-0.2,0.7-0.4,1-0.6c0.3-0.2,0.6-0.3,0.8-0.5c0.3-0.2,0.7-0.4,1-0.6c0.3-0.2,0.5-0.3,0.8-0.5
					c0.3-0.2,0.7-0.4,1-0.6c0.3-0.2,0.5-0.4,0.8-0.5c0.3-0.2,0.6-0.5,1-0.7c0.3-0.2,0.5-0.4,0.8-0.6c0.3-0.2,0.6-0.5,1-0.7
					c0.3-0.2,0.5-0.4,0.8-0.6c0.3-0.2,0.6-0.5,0.9-0.7c0.3-0.2,0.5-0.4,0.8-0.6c0.3-0.3,0.6-0.5,0.9-0.8c0.3-0.2,0.5-0.4,0.7-0.6
					c0.3-0.3,0.6-0.5,0.9-0.8c0.2-0.2,0.5-0.4,0.7-0.7c0.3-0.3,0.6-0.6,0.9-0.9c0.2-0.2,0.5-0.4,0.7-0.7c0.3-0.3,0.6-0.6,0.9-0.9
					c0.2-0.2,0.5-0.5,0.7-0.7c0.3-0.3,0.6-0.6,0.9-1c0.2-0.2,0.4-0.4,0.6-0.7c0.3-0.3,0.6-0.7,1-1.1c0.2-0.2,0.4-0.4,0.6-0.7
					c0.4-0.4,0.7-0.8,1-1.2c0.2-0.2,0.3-0.4,0.5-0.5c0.5-0.6,1-1.2,1.5-1.8c11.7-14.9,15.6-32,15.6-50.8c0,0,0-0.1,0-0.1
					c0,0,0,0,0,0c-0.1-89.8-0.1-179.6-0.1-269.4c0-89.8,0-179.6,0-269.4c0-3.1,0.1-6.2,0.2-9.3c0-0.1,0-0.1,0-0.2c0.1-1,0.1-2,0.2-3
					c0.4-5.9,1.4-11.4,2.8-16.6c0.5-1.7,1-3.5,1.6-5.1c0.8-2.2,1.7-4.4,2.7-6.5c2.4-5,5.3-9.7,8.9-14c0.2-0.2,0.3-0.4,0.5-0.6
					c0.6-0.8,1.3-1.5,2-2.3c0.5-0.6,1.1-1.1,1.6-1.7c1.3-1.4,2.7-2.7,4.2-4c4.1-3.6,8.7-6.8,13.9-9.7c0.5-0.3,1-0.6,1.5-0.8
					c0.3-0.1,0.5-0.3,0.8-0.4c0.5-0.2,1-0.5,1.4-0.7c0.3-0.1,0.6-0.3,0.9-0.4c0.4-0.2,0.9-0.4,1.4-0.6c0.3-0.1,0.7-0.3,1-0.4
					c0.5-0.2,1-0.4,1.4-0.5c0.3-0.1,0.6-0.3,1-0.4c0.5-0.2,1-0.4,1.6-0.5c0.3-0.1,0.6-0.2,0.9-0.3c0.5-0.2,1-0.3,1.5-0.4
					c0.3-0.1,0.6-0.2,0.9-0.3c0.5-0.1,1-0.3,1.5-0.4c0.3-0.1,0.6-0.2,0.9-0.2c0.5-0.1,1.1-0.2,1.6-0.4c0.3-0.1,0.6-0.1,0.8-0.2
					c0.5-0.1,1-0.2,1.6-0.3c0.3-0.1,0.6-0.1,0.9-0.2c0.5-0.1,1-0.2,1.6-0.2c0.3,0,0.6-0.1,0.9-0.1c0.5-0.1,1.1-0.1,1.6-0.2
					c0.3,0,0.6-0.1,0.9-0.1c0.5-0.1,1-0.1,1.5-0.1c0.3,0,0.7-0.1,1-0.1c0.5,0,1-0.1,1.5-0.1c0.4,0,0.7-0.1,1.1-0.1
					c0.5,0,1,0,1.5-0.1c0.4,0,0.7,0,1.1-0.1c0.5,0,1,0,1.4,0c0.4,0,0.8,0,1.1,0c0.5,0,1,0,1.5,0c0.4,0,0.8,0,1.2,0c0,0,0,0,0,0
					c0.7,0,1.4,0,2,0c105.3,0,210.5,0,315.8,0c74.8,0,149.6,0,224.4,0c0.5,0,1,0,1.5,0c0.5,0,1,0,1.5,0c0,0,0,0,0,0c0.5,0,1,0,1.5,0
					c0.4,0,0.9,0,1.3,0c0.4,0,0.8,0,1.3,0c0.4,0,0.9,0,1.3,0c0.4,0,0.8-0.1,1.3-0.1c0.4,0,0.8-0.1,1.2-0.1c0.4,0,0.8-0.1,1.3-0.1
					c0.4,0,0.8-0.1,1.2-0.1c0.4,0,0.8-0.1,1.3-0.1c0.4,0,0.8-0.1,1.2-0.1c0.4-0.1,0.8-0.1,1.3-0.2c0.4-0.1,0.8-0.1,1.1-0.2
					c0.4-0.1,0.8-0.1,1.3-0.2c0.4-0.1,0.7-0.1,1.1-0.2c0.4-0.1,0.8-0.2,1.3-0.3c0.4-0.1,0.7-0.1,1.1-0.2c0.4-0.1,0.8-0.2,1.3-0.3
					c0.3-0.1,0.7-0.2,1-0.3c0.4-0.1,0.8-0.2,1.2-0.3c0.3-0.1,0.7-0.2,1-0.3c0.4-0.1,0.8-0.3,1.2-0.4c0.3-0.1,0.7-0.2,1-0.3
					c0.4-0.1,0.8-0.3,1.2-0.4c0.3-0.1,0.6-0.2,0.9-0.3c0.4-0.2,0.8-0.3,1.2-0.5c0.3-0.1,0.6-0.2,0.9-0.4c0.4-0.2,0.8-0.3,1.2-0.5
					c0.3-0.1,0.6-0.2,0.9-0.4c0.4-0.2,0.8-0.4,1.2-0.6c0.3-0.1,0.6-0.3,0.8-0.4c0.4-0.2,0.8-0.4,1.2-0.6c0.3-0.1,0.5-0.3,0.8-0.4
					c0.4-0.2,0.8-0.4,1.2-0.7c0.3-0.1,0.5-0.3,0.8-0.4c0.4-0.2,0.8-0.5,1.2-0.7c0.3-0.2,0.5-0.3,0.8-0.5c0.4-0.2,0.8-0.5,1.2-0.8
					c0.3-0.2,0.5-0.3,0.8-0.5c0.4-0.3,0.8-0.5,1.2-0.8c0.2-0.2,0.5-0.3,0.7-0.5c0.4-0.3,0.8-0.6,1.2-0.8c0.2-0.2,0.5-0.3,0.7-0.5
					c0.4-0.3,0.8-0.6,1.1-0.9c0.2-0.2,0.5-0.4,0.7-0.6c0.4-0.3,0.7-0.6,1.1-0.9c0.2-0.2,0.5-0.4,0.7-0.6c0.4-0.3,0.7-0.6,1.1-1
					c0.2-0.2,0.5-0.4,0.7-0.6c0.4-0.3,0.7-0.7,1.1-1c0.2-0.2,0.5-0.4,0.7-0.6c0.3-0.3,0.7-0.7,1-1c0.2-0.2,0.5-0.5,0.7-0.7
					c0.3-0.3,0.7-0.7,1-1c0.2-0.2,0.5-0.5,0.7-0.7c0.3-0.4,0.6-0.7,1-1.1c0.2-0.3,0.5-0.5,0.7-0.8c0.3-0.4,0.6-0.7,0.9-1.1
					c0.2-0.3,0.5-0.5,0.7-0.8c0.3-0.3,0.6-0.7,0.8-1.1c0.2-0.3,0.5-0.6,0.7-0.9c0.3-0.3,0.5-0.7,0.8-1c0.2-0.3,0.5-0.7,0.8-1
					c0.2-0.3,0.4-0.6,0.6-0.8c0.3-0.4,0.6-0.8,0.9-1.3c5.3-7.7,8.6-16,10.5-24.7c0.4-1.9,0.8-3.9,1.1-5.8c0.1-1,0.3-2,0.4-3
					c0.2-2,0.4-4,0.5-6c0.1-2,0.2-4,0.2-6.1c0-29.5,0-58.9,0-88.4c0-58.9,0-117.8,0-176.7c0-34.1,0-68.3,0-102.4s0-68.3-0.1-102.4
					C1439.1,258.8,1439.1,258,1439.1,257.3z"/>
			</g>
		</g>
		<g>
			<g>
				<path d="M44.5,1540c-0.3-0.6-0.5-1.2-0.8-1.7c-0.7-1.7-1.4-3.5-2-5.3c-0.5-1.5-1-3-1.4-4.6c-0.4-1.6-0.8-3.1-1.1-4.8
					c-0.3-1.2-0.5-2.4-0.7-3.6c-0.4-2.2-0.6-4.4-0.8-6.8c-0.1-0.8-0.1-1.6-0.2-2.4c-0.1-0.9-0.1-1.9-0.2-2.8c-0.3-6-0.3-12-0.3-18
					c0-1,0-2,0-3c0-216.6,0-433.2,0-649.8c0-216.6,0-433.2,0-649.8c0-7.5,0.7-14.8,2.2-21.7c0.4-2,0.9-3.9,1.5-5.9
					c0.9-2.9,1.9-5.7,3.1-8.5c0.8-1.8,1.7-3.7,2.7-5.4c0.5-0.9,1-1.8,1.5-2.6c0.5-0.9,1.1-1.7,1.7-2.6c0,0,0,0,0,0
					c-6.8,7.8-13,16-18.5,24.8c-1.6,2.5-3.1,5-4.6,7.6c-4,7-7.6,14.2-10.7,21.6c-0.7,1.6-1.4,3.3-2,4.9c-1.7,4.2-3.2,8.5-4.6,12.9
					c-0.4,1.4-0.8,2.7-1.2,4.1c-0.3,1.1-0.7,2.3-1,3.4c-1.6,6-3,12.1-4.1,18.3c-0.4,2.1-0.7,4.1-1,6.2c-0.1,0.5-0.1,0.9-0.2,1.4
					c-0.5,3.4-0.8,6.7-1.1,10.1c-0.1,1.2-0.2,2.4-0.3,3.6c-0.1,1.1-0.1,2.3-0.2,3.4c-0.2,3.4-0.3,6.8-0.3,10.2v1143.6
					c0,3.7,0.1,7.4,0.3,11.1c0,0.3,0,0.5,0,0.8c0.2,3.6,0.5,7.2,0.9,10.8c0.3,2.5,0.6,4.9,1,7.4c0.2,1.2,0.4,2.4,0.6,3.7
					c0.4,2.4,0.9,4.8,1.4,7.3c0.5,2.4,1,4.8,1.6,7.2c0.9,3.6,1.8,7.1,2.9,10.6c0.7,2.2,1.3,4.3,2.1,6.4c0.8,2.5,1.7,5,2.7,7.4
					c1.1,2.8,2.2,5.6,3.4,8.3c1,2.3,2.1,4.6,3.2,6.8c7.4,15.3,16.6,29.4,27.4,42.3c1,1.1,1.9,2.3,2.9,3.4c-1-1.4-1.9-2.8-2.7-4.2
					C46.5,1544,45.4,1542,44.5,1540z"/>
			</g>
		</g>
		<g>
			<g>
				<path d="M1510.1,185.7C1510.1,185.7,1510.1,185.7,1510.1,185.7C1510.1,185.6,1510.1,185.6,1510.1,185.7c0-0.4,0-0.9,0-1.3
					c0.4-14.3-2.7-27.3-9.3-38.8c-0.5-0.9-1.1-1.9-1.7-2.8c-3.1-4.8-6.8-9.4-11.2-13.7c-3.7-3.6-7.5-6.6-11.6-9.1
					c-3.4-2.1-7-4-10.6-5.4c0,0,0,0,0,0c-3.6-1.5-7.4-2.7-11.3-3.6c0,0,0,0,0,0c-1.2-0.3-2.4-0.5-3.6-0.8c-0.6-0.1-1.2-0.2-1.8-0.3
					c-1.4-0.2-2.7-0.4-4.1-0.6c-1.6-0.2-3.2-0.4-4.9-0.5c-0.2,0-0.3,0-0.5,0c-0.8-0.1-1.7-0.1-2.5-0.2c-0.1,0-0.1,0-0.2,0
					c-1,0-1.9-0.1-2.9-0.1c0,0,0,0,0,0c-1,0-2,0-3.1,0c-431.8,0-863.5,0-1295.3,0c0,0,0,0,0,0c-4.8,0-9.5,0-14.3,0.1
					c-2.4,0-4.8,0.1-7.1,0.2c-2.4,0.1-4.8,0.2-7.1,0.3c-7.8,0.3-15.1,1.7-21.9,4.2c-1,0.4-2,0.7-2.9,1.1c-0.8,0.3-1.5,0.6-2.3,1
					c-1.5,0.7-3,1.4-4.5,2.2c-0.7,0.4-1.5,0.8-2.2,1.2c-1.4,0.8-2.8,1.7-4.2,2.7c-4.1,2.8-8,6.1-11.7,9.9c-2.9,3-5.5,6.2-7.7,9.5
					c-0.6,0.9-1.1,1.7-1.7,2.6c-0.5,0.9-1.1,1.8-1.5,2.6c-1,1.8-1.9,3.6-2.7,5.4c-1.2,2.8-2.3,5.6-3.1,8.5c-0.6,1.9-1.1,3.9-1.5,5.9
					c-1.5,6.9-2.2,14.2-2.2,21.7c0,216.6,0,433.2,0,649.8c0,216.6,0,433.2,0,649.8c0,1,0,2,0,3c0,6,0,12,0.3,18
					c0,0.9,0.1,1.9,0.2,2.8c0.1,0.8,0.1,1.6,0.2,2.4c0.2,2.3,0.5,4.6,0.8,6.8c0.2,1.2,0.4,2.4,0.7,3.6c0.3,1.6,0.7,3.2,1.1,4.8
					c0.4,1.6,0.9,3.1,1.4,4.6c0.6,1.8,1.3,3.6,2,5.3c0.3,0.6,0.5,1.2,0.8,1.7c1,2,2,4,3.1,5.9c0.9,1.4,1.8,2.8,2.7,4.2
					c4.2,5.9,9.3,11.1,15.4,15.7c0,0,0,0,0,0c0.7,0.6,1.5,1.1,2.3,1.6c2.5,1.8,5.2,3.4,8,5c1.2,0.7,2.5,1.3,3.8,2
					c0.5,0.2,1,0.5,1.5,0.7c0.2,0.1,0.4,0.2,0.6,0.3c0.4,0.2,0.8,0.3,1.2,0.5c0.3,0.1,0.7,0.3,1,0.4c0.4,0.1,0.7,0.3,1.1,0.4
					c0.4,0.1,0.7,0.3,1.1,0.4c0.3,0.1,0.6,0.2,0.9,0.3c0.4,0.1,0.8,0.3,1.2,0.4c0.3,0.1,0.6,0.2,0.9,0.2c0.4,0.1,0.9,0.2,1.3,0.4
					c0.3,0.1,0.6,0.2,1,0.2c0.4,0.1,0.8,0.2,1.3,0.3c0.3,0.1,0.6,0.1,1,0.2c0.4,0.1,0.8,0.2,1.3,0.3c0.3,0.1,0.6,0.1,1,0.2
					c0.4,0.1,0.9,0.2,1.3,0.2c0.3,0,0.6,0.1,1,0.1c0.4,0.1,0.9,0.1,1.3,0.2c0.3,0,0.7,0.1,1,0.1c0.4,0,0.8,0.1,1.3,0.1
					c0.3,0,0.7,0.1,1,0.1c0.4,0,0.9,0.1,1.3,0.1c0.3,0,0.7,0,1,0.1c0.4,0,0.9,0.1,1.3,0.1c0.4,0,0.7,0,1.1,0.1c0.4,0,0.8,0,1.2,0.1
					c0.4,0,0.8,0,1.2,0c0.4,0,0.8,0,1.1,0c0.4,0,0.9,0,1.3,0c0.3,0,0.6,0,1,0c0.5,0,1,0,1.5,0c0.3,0,0.6,0,0.8,0c0,0,0,0,0,0
					c101.6,0,203.2,0,304.9,0c26.6,0,53.3,0,79.9,0c91,0,182,0,273.1,0c0,0,0,0,0,0c0,0,0-0.1,0-0.1h0c33.4,0,66.9,0,100.3,0
					c188.1,0,376.3,0,564.4,0c0,0,0,0,0,0c1,0,2,0,2.9-0.1c2.7-0.1,5.4-0.4,8-0.8c0.9-0.1,1.8-0.3,2.7-0.5c2.7-0.5,5.3-1.2,7.8-2
					c3.4-1.1,6.7-2.4,9.9-4c1.4-0.7,2.8-1.4,4.2-2.2c1.3-0.8,2.6-1.6,3.9-2.4c0.4-0.2,0.7-0.5,1.1-0.7c0,0,0,0,0,0
					c7.4-5.1,13.9-11.6,19-19.2c1.8-2.7,3.5-5.6,5-8.6c0.6-1.3,1.3-2.6,1.8-4c0.3-0.7,0.6-1.5,0.9-2.3c0.3-0.8,0.6-1.5,0.8-2.3
					c0.6-1.7,1-3.3,1.5-5c0.2-0.7,0.3-1.4,0.5-2.2c0.1-0.6,0.2-1.2,0.4-1.8c0.3-1.7,0.5-3.3,0.7-5c0.2-1.7,0.3-3.3,0.4-5
					c0.1-1.7,0.2-3.4,0.2-5c0-1.7,0.1-3.4,0.1-5.1c0-438.6,0-877.1,0-1315.7C1510.1,186.5,1510.1,186.1,1510.1,185.7z M108.4,251.8
					c0.6-38.5,33.6-71.4,72.1-71.9c32.6-0.4,65.3-0.4,97.9,0c36.9,0.5,69.2,30.8,71.5,67.6c1.2,18.8,0.2,37.8,0.2,56.7
					c0,0,0,0-0.1,0c0,16.9,0.9,33.8-0.2,50.6c-2.1,34.5-32.8,65.1-67.5,66.5c-31.1,1.2-62.3,0.5-93.5,0.5c-6.5,0-13-0.3-19.4-1.3
					c-33.9-5.6-60.7-36.4-61.1-70.9C108,317.1,107.9,284.4,108.4,251.8z M1069.2,1484.8c-15.5,17.2-35,25.2-58.1,25.1
					c-41.9-0.1-83.7-0.5-125.6,0.2c-37.5,0.7-72.3-29.1-75.8-66.3c-0.4-4.4-0.6-8.9-0.6-13.4c0-156.8,0.1-313.5-0.1-470.3
					c0-30.4,11.8-53.9,38-69.7c12.4-7.5,26.3-10.2,40.6-10.3c40.7-0.2,81.4-0.3,122.1,0c44.6,0.3,69.1,28.9,75.8,56
					c1.9,7.9,2.5,16.2,2.6,24.4c0.3,40,0.1,80,0.1,119.9c0,38.3,0,76.5,0,114.7c0,78.4-0.2,156.8,0.1,235.1
					C1088.4,1450.9,1083.1,1469.3,1069.2,1484.8z M1439,1429.7c0,9.1-1.3,18.5-3.8,27.3c-9.4,32.4-40.1,53.5-73.8,53.1
					c-41.8-0.5-83.7-0.5-125.6,0.1c-36.4,0.5-70.3-27.6-75.1-63.6c-0.5-4-0.9-8-0.9-12.1c-0.1-79.8,0-159.6,0-239.5
					c0-79.7,0-159.3,0-239c0-40.5,31.2-74.1,71.4-75.1c42.3-1.1,84.5-0.7,126.8-0.7c7.2,0,14.4,0.8,21.4,2.2
					c32.6,6.5,57.4,35.2,59.2,68.5c0.4,6.5,0.5,13,0.5,19.4C1439.2,1123.4,1439.2,1276.5,1439,1429.7z M1439.2,464.4
					c0,58.9,0,117.8,0,176.7c0,29.5,0,58.9,0,88.4c0,2-0.1,4.1-0.2,6.1c-0.1,2-0.3,4-0.5,6c-0.1,1-0.2,2-0.4,3
					c-0.3,2-0.6,3.9-1.1,5.8c-1.9,8.7-5.2,17-10.5,24.7c-0.3,0.4-0.6,0.8-0.9,1.3c-0.2,0.3-0.4,0.6-0.6,0.8c-0.2,0.3-0.5,0.7-0.8,1
					c-0.3,0.3-0.5,0.7-0.8,1c-0.2,0.3-0.5,0.6-0.7,0.9c-0.3,0.4-0.6,0.7-0.8,1.1c-0.2,0.3-0.5,0.5-0.7,0.8c-0.3,0.4-0.6,0.7-0.9,1.1
					c-0.2,0.3-0.5,0.5-0.7,0.8c-0.3,0.4-0.6,0.7-1,1.1c-0.2,0.2-0.5,0.5-0.7,0.7c-0.3,0.3-0.6,0.7-1,1c-0.2,0.2-0.5,0.5-0.7,0.7
					c-0.3,0.3-0.7,0.7-1,1c-0.2,0.2-0.5,0.4-0.7,0.6c-0.4,0.3-0.7,0.7-1.1,1c-0.2,0.2-0.5,0.4-0.7,0.6c-0.4,0.3-0.7,0.6-1.1,1
					c-0.2,0.2-0.5,0.4-0.7,0.6c-0.4,0.3-0.7,0.6-1.1,0.9c-0.2,0.2-0.5,0.4-0.7,0.6c-0.4,0.3-0.8,0.6-1.1,0.9
					c-0.2,0.2-0.5,0.3-0.7,0.5c-0.4,0.3-0.8,0.6-1.2,0.8c-0.2,0.2-0.5,0.3-0.7,0.5c-0.4,0.3-0.8,0.5-1.2,0.8
					c-0.3,0.2-0.5,0.3-0.8,0.5c-0.4,0.3-0.8,0.5-1.2,0.8c-0.3,0.2-0.5,0.3-0.8,0.5c-0.4,0.2-0.8,0.5-1.2,0.7
					c-0.3,0.1-0.5,0.3-0.8,0.4c-0.4,0.2-0.8,0.4-1.2,0.7c-0.3,0.1-0.5,0.3-0.8,0.4c-0.4,0.2-0.8,0.4-1.2,0.6
					c-0.3,0.1-0.6,0.3-0.8,0.4c-0.4,0.2-0.8,0.4-1.2,0.6c-0.3,0.1-0.6,0.2-0.9,0.4c-0.4,0.2-0.8,0.4-1.2,0.5
					c-0.3,0.1-0.6,0.2-0.9,0.4c-0.4,0.2-0.8,0.3-1.2,0.5c-0.3,0.1-0.6,0.2-0.9,0.3c-0.4,0.1-0.8,0.3-1.2,0.4c-0.3,0.1-0.7,0.2-1,0.3
					c-0.4,0.1-0.8,0.3-1.2,0.4c-0.3,0.1-0.7,0.2-1,0.3c-0.4,0.1-0.8,0.2-1.2,0.3c-0.3,0.1-0.7,0.2-1,0.3c-0.4,0.1-0.8,0.2-1.3,0.3
					c-0.4,0.1-0.7,0.2-1.1,0.2c-0.4,0.1-0.8,0.2-1.3,0.3c-0.4,0.1-0.7,0.1-1.1,0.2c-0.4,0.1-0.8,0.2-1.3,0.2
					c-0.4,0.1-0.8,0.1-1.1,0.2c-0.4,0.1-0.8,0.1-1.3,0.2c-0.4,0.1-0.8,0.1-1.2,0.1c-0.4,0.1-0.8,0.1-1.3,0.1c-0.4,0-0.8,0.1-1.2,0.1
					c-0.4,0-0.8,0.1-1.3,0.1c-0.4,0-0.8,0.1-1.2,0.1c-0.4,0-0.8,0.1-1.3,0.1c-0.4,0-0.9,0-1.3,0c-0.4,0-0.8,0-1.3,0
					c-0.4,0-0.9,0-1.3,0c-0.5,0-1,0-1.5,0c0,0,0,0,0,0c-0.5,0-1,0-1.5,0c-0.5,0-1,0-1.5,0c-74.8,0-149.6,0-224.4,0
					c-105.3,0-210.5,0-315.8,0c-0.7,0-1.4,0-2,0c0,0,0,0,0,0c-0.4,0-0.8,0-1.2,0c-0.5,0-1,0-1.5,0c-0.4,0-0.8,0-1.1,0
					c-0.5,0-1,0-1.4,0c-0.4,0-0.7,0-1.1,0.1c-0.5,0-1,0-1.5,0.1c-0.4,0-0.7,0-1.1,0.1c-0.5,0-1,0.1-1.5,0.1c-0.3,0-0.7,0.1-1,0.1
					c-0.5,0-1,0.1-1.5,0.1c-0.3,0-0.6,0.1-0.9,0.1c-0.5,0.1-1.1,0.1-1.6,0.2c-0.3,0-0.6,0.1-0.9,0.1c-0.5,0.1-1,0.1-1.6,0.2
					c-0.3,0.1-0.6,0.1-0.9,0.2c-0.5,0.1-1,0.2-1.6,0.3c-0.3,0.1-0.6,0.1-0.8,0.2c-0.5,0.1-1.1,0.2-1.6,0.4c-0.3,0.1-0.6,0.2-0.9,0.2
					c-0.5,0.1-1,0.2-1.5,0.4c-0.3,0.1-0.6,0.2-0.9,0.3c-0.5,0.1-1,0.3-1.5,0.4c-0.3,0.1-0.6,0.2-0.9,0.3c-0.5,0.2-1,0.3-1.6,0.5
					c-0.3,0.1-0.6,0.2-1,0.4c-0.5,0.2-1,0.4-1.4,0.5c-0.3,0.1-0.7,0.3-1,0.4c-0.5,0.2-0.9,0.4-1.4,0.6c-0.3,0.1-0.6,0.3-0.9,0.4
					c-0.5,0.2-1,0.4-1.4,0.7c-0.3,0.1-0.5,0.3-0.8,0.4c-0.5,0.3-1,0.5-1.5,0.8c-5.1,2.9-9.8,6.2-13.9,9.7c-1.5,1.3-2.9,2.6-4.2,4
					c-0.5,0.6-1.1,1.1-1.6,1.7c-0.7,0.7-1.4,1.5-2,2.3c-0.2,0.2-0.3,0.4-0.5,0.6c-3.5,4.3-6.5,9-8.9,14c-1,2.1-1.9,4.3-2.7,6.5
					c-0.6,1.7-1.1,3.4-1.6,5.1c-1.4,5.2-2.4,10.8-2.8,16.6c-0.1,1-0.1,2-0.2,3c0,0.1,0,0.1,0,0.2c-0.2,3.1-0.2,6.2-0.2,9.3
					c0,89.8,0,179.6,0,269.4c0,89.8,0,179.6,0.1,269.4c0,0,0,0,0,0c0,0,0,0.1,0,0.1c0,18.8-3.9,36-15.6,50.8c-0.5,0.6-1,1.2-1.5,1.8
					c-0.2,0.2-0.3,0.4-0.5,0.5c-0.3,0.4-0.7,0.8-1,1.2c-0.2,0.2-0.4,0.4-0.6,0.7c-0.3,0.4-0.6,0.7-1,1.1c-0.2,0.2-0.4,0.5-0.6,0.7
					c-0.3,0.3-0.6,0.7-0.9,1c-0.2,0.2-0.5,0.5-0.7,0.7c-0.3,0.3-0.6,0.6-0.9,0.9c-0.2,0.2-0.5,0.4-0.7,0.7c-0.3,0.3-0.6,0.6-0.9,0.9
					c-0.2,0.2-0.5,0.4-0.7,0.7c-0.3,0.3-0.6,0.6-0.9,0.8c-0.2,0.2-0.5,0.4-0.7,0.6c-0.3,0.3-0.6,0.5-0.9,0.8
					c-0.3,0.2-0.5,0.4-0.8,0.6c-0.3,0.3-0.6,0.5-0.9,0.7c-0.3,0.2-0.5,0.4-0.8,0.6c-0.3,0.2-0.6,0.5-1,0.7c-0.3,0.2-0.5,0.4-0.8,0.6
					c-0.3,0.2-0.6,0.5-1,0.7c-0.3,0.2-0.5,0.4-0.8,0.5c-0.3,0.2-0.7,0.4-1,0.6c-0.3,0.2-0.5,0.3-0.8,0.5c-0.3,0.2-0.7,0.4-1,0.6
					c-0.3,0.2-0.6,0.3-0.8,0.5c-0.3,0.2-0.7,0.4-1,0.6c-0.3,0.2-0.6,0.3-0.8,0.5c-0.3,0.2-0.7,0.4-1,0.5c-0.3,0.1-0.6,0.3-0.9,0.4
					c-0.3,0.2-0.7,0.3-1,0.5c-0.3,0.1-0.6,0.3-0.9,0.4c-0.4,0.2-0.7,0.3-1.1,0.5c-0.3,0.1-0.6,0.3-0.9,0.4c-0.4,0.2-0.7,0.3-1.1,0.4
					c-0.3,0.1-0.6,0.2-0.9,0.4c-0.4,0.1-0.7,0.3-1.1,0.4c-0.3,0.1-0.6,0.2-0.9,0.3c-0.4,0.1-0.7,0.3-1.1,0.4
					c-0.3,0.1-0.6,0.2-0.9,0.3c-0.4,0.1-0.8,0.2-1.1,0.4c-0.3,0.1-0.6,0.2-0.9,0.3c-0.4,0.1-0.8,0.2-1.1,0.3
					c-0.3,0.1-0.6,0.2-0.9,0.2c-0.4,0.1-0.8,0.2-1.2,0.3c-0.3,0.1-0.6,0.2-0.9,0.2c-0.4,0.1-0.8,0.2-1.2,0.3c-0.3,0.1-0.6,0.1-1,0.2
					c-0.4,0.1-0.8,0.1-1.2,0.2c-0.3,0.1-0.6,0.1-0.9,0.2c-0.4,0.1-0.8,0.1-1.3,0.2c-0.3,0-0.6,0.1-0.9,0.1c-0.4,0.1-0.9,0.1-1.3,0.2
					c-0.3,0-0.6,0.1-0.9,0.1c-0.4,0-0.9,0.1-1.4,0.1c-0.3,0-0.6,0.1-0.9,0.1c-0.5,0-1,0.1-1.5,0.1c-0.3,0-0.5,0-0.8,0.1
					c-0.6,0-1.2,0-1.7,0.1c-0.2,0-0.4,0-0.6,0c-0.8,0-1.6,0-2.3,0c-0.5,0-1.1,0-1.7,0c-0.2,0-0.5,0-0.7,0c-0.1,0-0.1,0-0.2,0
					c-0.4,0-0.9,0-1.3,0c-0.5,0-1,0-1.5,0c-45.5,0-91,0-136.5,0c-23.8,0-47.6,0-71.3,0c-28.8,0-57.6,0-86.4,0c-15,0-30,0-45.1,0
					c-42.9,0-85.9,0-128.8,0.1c-0.5,0-0.9,0-1.4,0c-0.4,0-0.8,0-1.2,0c-0.4,0-0.9,0-1.3,0c-0.4,0-0.8,0-1.2,0c-0.4,0-0.9,0-1.3-0.1
					c-0.4,0-0.8,0-1.2,0c-0.4,0-0.9-0.1-1.3-0.1c-0.4,0-0.8,0-1.2-0.1c-0.4,0-0.9-0.1-1.3-0.1c-0.4,0-0.8-0.1-1.2-0.1
					c-0.4,0-0.8-0.1-1.2-0.1c-0.4,0-0.8-0.1-1.2-0.1c-0.4,0-0.8-0.1-1.2-0.2c-0.4-0.1-0.8-0.1-1.2-0.2c-0.4-0.1-0.8-0.1-1.2-0.2
					c-0.4-0.1-0.8-0.1-1.2-0.2c-0.4-0.1-0.8-0.2-1.3-0.2c-0.4-0.1-0.8-0.1-1.2-0.2c-0.4-0.1-0.8-0.2-1.3-0.3
					c-0.4-0.1-0.8-0.2-1.1-0.3c-0.4-0.1-0.8-0.2-1.3-0.3c-0.4-0.1-0.7-0.2-1.1-0.3c-0.4-0.1-0.9-0.3-1.3-0.4
					c-0.4-0.1-0.7-0.2-1.1-0.3c-0.5-0.2-0.9-0.3-1.4-0.5c-0.3-0.1-0.6-0.2-0.9-0.3c-0.5-0.2-1-0.4-1.6-0.6c-0.3-0.1-0.5-0.2-0.8-0.3
					c-0.6-0.2-1.1-0.5-1.7-0.8c-0.2-0.1-0.4-0.2-0.6-0.3c-0.8-0.4-1.5-0.7-2.3-1.1c-8.5-4.5-15.7-9.8-21.7-15.9
					c-1.6-1.7-3.2-3.4-4.6-5.2c-1.3-1.6-2.5-3.2-3.6-4.9c-1.1-1.7-2.2-3.4-3.1-5.1c-0.6-1.2-1.2-2.3-1.8-3.5c-0.7-1.5-1.4-3.1-2-4.7
					c-0.8-2.1-1.5-4.3-2.2-6.6c-1.9-6.8-2.8-14-2.8-21.8c-0.3-93.7-0.1-187.4-0.1-281.1c0-64.9,0-129.7,0-194.6
					c0-129.7,0-259.5,0-389.2c0-30.2,16.2-56.1,41.8-68.5c1.6-0.8,3.3-1.5,5.1-2.2c3.2-1.3,6.6-2.4,10.1-3.2
					c0.7-0.2,1.4-0.3,2.1-0.5c5.8-1.3,11.7-2,17.6-2.2c1,0,1.9-0.1,2.9-0.1c13.6-0.1,27.3-0.1,40.9-0.1c4.4,0,8.8,0,13.1,0
					c9.3,0,18.6,0,27.9,0c8.1,0,16.3,0,24.4,0c4.2,0,8.4,0,12.6,0c12.5,0,24.9,0.1,37.4,0.1c0,0,0,0,0,0c0.7,0,1.4,0,2.1,0
					c0.6,0,1.2,0,1.7,0c0.6,0,1.2,0,1.8-0.1c0.6,0,1.1,0,1.7-0.1c0.6,0,1.2-0.1,1.8-0.1c0.6,0,1.1-0.1,1.7-0.1
					c0.6-0.1,1.2-0.1,1.8-0.2c0.6-0.1,1.1-0.1,1.7-0.2c0.6-0.1,1.2-0.2,1.7-0.3c0.5-0.1,1.1-0.2,1.6-0.3c0.6-0.1,1.1-0.2,1.7-0.3
					c0.5-0.1,1.1-0.2,1.6-0.3c0.6-0.1,1.1-0.3,1.7-0.4c0.5-0.1,1.1-0.2,1.6-0.4c0.6-0.2,1.1-0.3,1.7-0.5c0.5-0.1,1-0.3,1.5-0.5
					c0.6-0.2,1.1-0.4,1.7-0.6c0.5-0.2,1-0.3,1.5-0.5c0.6-0.2,1.1-0.4,1.7-0.7c0.5-0.2,1-0.4,1.5-0.6c0.6-0.2,1.1-0.5,1.6-0.7
					c0.5-0.2,1-0.4,1.4-0.7c0.6-0.3,1.1-0.6,1.6-0.8c0.5-0.2,0.9-0.5,1.4-0.7c0.6-0.3,1.1-0.6,1.7-1c0.4-0.3,0.9-0.5,1.3-0.8
					c0.6-0.4,1.1-0.7,1.7-1.1c0.4-0.3,0.8-0.5,1.2-0.8c0.6-0.4,1.3-0.9,1.9-1.4c0.3-0.2,0.6-0.4,0.9-0.7c0.9-0.7,1.8-1.4,2.7-2.2
					c0,0,0,0,0,0c1.7-1.5,3.4-3,4.9-4.5c0.9-0.9,1.8-1.9,2.7-2.9c13-14.5,18.5-32.3,18.4-52.7c-0.1-13.1-0.1-26.2-0.1-39.3
					c0-13.1,0-26.2,0-39.3c0-26.2,0.1-52.4,0.1-78.6c0-11.8,1.9-23,6.3-33.3c0.3-0.7,0.6-1.4,0.9-2.1c0.3-0.7,0.7-1.4,1-2.2
					c2.6-5.2,5.9-10.2,10-14.9c1.9-2.1,3.8-4.1,5.7-6c2-1.9,4-3.6,6.1-5.2c2.1-1.6,4.3-3.1,6.5-4.5c1-0.6,2-1.2,2.9-1.7
					c0.7-0.4,1.5-0.8,2.3-1.2c1.5-0.8,3.1-1.5,4.6-2.1c0.8-0.3,1.6-0.6,2.4-0.9c1.6-0.6,3.2-1.1,4.9-1.6c1.6-0.5,3.3-0.9,5-1.3
					c1.1-0.2,2.3-0.5,3.4-0.7c2.6-0.5,5.3-0.8,8.1-1c1.4-0.1,2.8-0.2,4.2-0.2c0,0,0,0,0,0c1.1,0,2.1,0,3.2,0c0.6,0,1.2,0,1.8,0
					c0.1,0,0.1,0,0.2,0c71.5,0,143.1,0,214.6,0c71.5,0,143.1,0,214.6,0c3.7,0,7.5,0,11.2,0c68.8,0,137.7,0,206.5,0
					c71.1,0,142.1,0,213.2,0c24.4,0,43.8,8.3,58.1,24.7c0.4,0.5,0.8,1,1.2,1.5c3,3.6,5.7,7.5,8.2,11.8c0.6,1,1.1,2,1.7,3
					c0.7,1.2,1.3,2.5,1.9,3.8c0.3,0.6,0.5,1.1,0.8,1.7c0.1,0.2,0.2,0.5,0.3,0.7c0.5,1.1,0.9,2.2,1.3,3.3c0.2,0.4,0.3,0.9,0.4,1.3
					c1.3,4,2.3,8.1,2.9,12.3c0.2,1.5,0.4,3,0.5,4.4c0.1,1.5,0.3,3,0.3,4.5c0.1,1.5,0.1,3,0.2,4.5c0,0.8,0,1.5,0,2.3
					c0,34.1,0.1,68.3,0.1,102.4S1439.2,430.2,1439.2,464.4z"/>
			</g>
		</g>
	</g>
</g>
<g>
	<g>
		<path d="M1499.4,318.4h-60.6c0-76.4-62.2-138.6-138.6-138.6v-60.6c53.2,0,103.2,20.7,140.9,58.4S1499.4,265.2,1499.4,318.4z"/>
	</g>
</g>
<g>
	<g>
		<path d="M1301,869.3v-60.6c76.4,0,138.6-62.2,138.6-138.6h60.6c0,53.2-20.7,103.2-58.4,140.9
			C1404.2,848.6,1354.2,869.3,1301,869.3z"/>
	</g>
</g>
<g>
	<g>
		<path d="M421,318.4h-60.6c0-53.2,20.7-103.2,58.4-140.9s87.7-58.4,140.9-58.4v60.6C483.1,179.8,421,242,421,318.4z"/>
	</g>
</g>
<g>
	<g>
		<path d="M47.8,632.2c-0.1-53.2,20.5-103.3,58-141c37.5-37.7,87.5-58.6,140.7-58.7l0.1,60.6c-37,0.1-71.8,14.6-97.9,40.8
			c-26.1,26.2-40.4,61.1-40.4,98.1L47.8,632.2z"/>
	</g>
</g>
<g>
	<g>
		<path d="M246.6,1570.7c-53,0-102.9-20.6-140.5-58c-37.7-37.5-58.6-87.5-58.7-140.7l60.6-0.1c0.1,37,14.6,71.8,40.8,97.9
			c26.2,26.1,61.1,40.4,98.1,40.4l0.1,60.6C247,1570.7,246.8,1570.7,246.6,1570.7z"/>
	</g>
</g>
<g>
	<g>
		<path d="M599.7,1570.2l-0.1-60.6c37-0.1,71.8-14.6,97.9-40.8c26.1-26.2,40.4-61.1,40.4-98.1l60.6-0.1c0.1,53.2-20.5,103.3-58,141
			C702.9,1549.3,652.9,1570.1,599.7,1570.2z"/>
	</g>
</g>
<g class="st2">
	<path d="M2530.6,264l-0.5,189.4c0,13.1-1.9,26-5.6,38.4c-11.3,38.8-37.8,62.7-79.7,71.7c-9.1,2.2-21.6,3.3-37.5,3.3h-220.4V626
		c0,34.1-9.1,62.8-27.4,86.3c-18.3,23.4-44.2,41.1-77.6,53c-12.2,4.4-27.4,7.3-45.5,8.9c-12.2,0.6-29.2,0.5-51.1-0.5
		c-14.7-0.6-29.7-3.6-45-8.9c-68.5-23.8-102.7-74.6-102.7-152.4V388.2h83.5l0.5,230.7c0,44.1,21.9,72.2,65.7,84.4
		c16.6,4.1,32.5,4.1,47.8,0c40.6-11.3,62.4-39.4,65.2-84.4c0.3-1.6,0.5-4.5,0.5-8.9V287.9h84.9V497h82.5c0.3-21.6,0.5-39.2,0.5-53
		V287.9h85.4V497c28.8,1.3,49.4,0.9,61.9-0.9c14.4-2.2,23.3-10.5,26.7-24.9c1.9-7.5,2.8-15.3,2.8-23.4l0.5-183.8H2530.6z
		 M2255.8,107.8c30.3-0.3,45.6,14.7,46,45c0.3,30.3-14.7,45.5-45,45.5c-29.4,0-44.1-15-44.1-45
		C2213,123.3,2227.3,108.2,2255.8,107.8z M2315.4,0c30.3-0.3,45.6,14.7,46,45c0.3,30.3-14.7,45.5-45,45.5c-29.4,0-44.1-15-44.1-45
		C2272.5,15.5,2286.9,0.3,2315.4,0z M2372.1,107.8c30.3-0.3,45.6,14.7,46,45c0.3,30.3-14.7,45.5-45,45.5c-29.4,0-44.1-15-44.1-45
		C2329.3,123.3,2343.7,108.2,2372.1,107.8z"/>
	<path d="M2741.2,264v347.4c0,77.5-34.2,128.3-102.7,152.4c-15.3,5.3-30.3,8.3-45,8.9l-41.7-60c24.7-7.2,48.5-19.7,71.3-37.5
		c22.8-17.8,34.2-36.9,34.2-57.2V264H2741.2z"/>
	<path d="M3414.7,262.6v303.4h-454.9c-30,0-57.1-4.2-81.1-12.7c-55.3-20-87.4-59.2-96.1-117.7c-2.5-13.4-3.8-38.3-3.8-74.6v-50.6
		h84.4v15.9c0,25.3,0.3,47,0.9,65.2c0.6,14.7,2.2,26.4,4.7,35.2c9.4,34.7,33,56.6,70.8,65.6c10.9,2.8,22.2,4.2,33.8,4.2h169.3
		c-15-24.7-22.5-51.4-22.5-80.2c0-43.1,14.7-79.9,44.1-110.2c28.4-29.4,62.8-44.1,103.2-44.1L3414.7,262.6z M3298.4,332.9l-31,0.5
		c-49.4,0.9-74.1,28-74.1,81.1v3.8c0,52.2,24.5,78.3,73.6,78.3h74.6l-0.5-163.6H3298.4z M3278.2,107.8c30.3-0.3,45.6,14.7,46,45
		c0.3,30.3-14.7,45.5-45,45.5c-29.4,0-44.1-15-44.1-45C3235.4,123.3,3249.8,108.2,3278.2,107.8z"/>
	<path d="M3746.8,262.6v303.4h-147.3c-97.9,0-147-49.9-147.3-149.6c-0.3-42.8,14.2-79.5,43.6-110.2c29.1-30,63.6-44.9,103.7-44.5
		L3746.8,262.6z M3561.5,107.8c30.3-0.3,45.6,14.7,46,45c0.3,30.3-14.7,45.5-45,45.5c-29.4,0-44.1-15-44.1-45
		C3518.7,123.3,3533,108.2,3561.5,107.8z M3630.4,332.9l-31,0.5c-49.4,0.9-74.1,28-74.1,81.1v3.8c0,52.5,24.4,78.8,73.2,78.8h75
		l-0.5-164.1H3630.4z M3677.8,107.8c30.3-0.3,45.6,14.7,46,45c0.3,30.3-14.7,45.5-45,45.5c-29.4,0-44.1-15-44.1-45
		C3635,123.3,3649.4,108.2,3677.8,107.8z"/>
</g>
<g id="SHORFA" class="st2">
	<path d="M1842.2,1478.5c-33.9-8.7-61-19.7-81.1-33l41.4-89c19.1,12.2,42.2,22.1,69.2,29.8c27,7.7,53.6,11.5,79.5,11.5
		c52.5,0,78.7-13,78.7-39c0-12.2-7.2-20.9-21.5-26.2c-14.3-5.3-36.3-9.8-66-13.5c-35-5.3-63.9-11.4-86.7-18.3
		c-22.8-6.9-42.6-19.1-59.3-36.6s-25.1-42.4-25.1-74.7c0-27,7.8-51,23.5-71.9c15.6-20.9,38.4-37.2,68.4-48.9
		c30-11.7,65.3-17.5,106.2-17.5c30.2,0,60.3,3.3,90.3,9.9c30,6.6,54.7,15.8,74.4,27.4l-41.4,88.2c-37.7-21.2-78.7-31.8-123.3-31.8
		c-26.5,0-46.4,3.7-59.7,11.1c-13.3,7.4-19.9,17-19.9,28.6c0,13.3,7.2,22.5,21.5,27.8c14.3,5.3,37.1,10.3,68.4,15.1
		c35,5.8,63.6,12.1,85.9,18.7c22.3,6.6,41.6,18.7,58.1,36.2c16.4,17.5,24.7,41.9,24.7,73.1c0,26.5-8,50.1-23.9,70.8
		c-15.9,20.7-39.1,36.7-69.6,48.1c-30.5,11.4-66.7,17.1-108.6,17.1C1910.9,1491.6,1876.1,1487.2,1842.2,1478.5z"/>
	<path d="M2613.3,1098.9c32.6,31.8,48.9,79,48.9,141.5v244.9h-124.1v-225.8c0-33.9-7.4-59.2-22.3-75.9c-14.9-16.7-36.3-25-64.4-25
		c-31.3,0-56.2,9.7-74.8,29c-18.6,19.4-27.8,48.1-27.8,86.3v211.5h-124.1V895.4h124.1v206.7c16.4-16.4,36.3-29,59.7-37.8
		c23.3-8.7,48.8-13.1,76.4-13.1C2537.9,1051.2,2580.7,1067.1,2613.3,1098.9z"/>
	<path d="M2861.5,1463.4c-35.8-18.8-63.8-44.9-83.9-78.3c-20.2-33.4-30.2-71.3-30.2-113.7c0-42.4,10.1-80.3,30.2-113.7
		c20.1-33.4,48.1-59.5,83.9-78.3c35.8-18.8,76.2-28.2,121.3-28.2c45.1,0,85.4,9.4,120.9,28.2c35.5,18.8,63.4,44.9,83.5,78.3
		c20.1,33.4,30.2,71.3,30.2,113.7c0,42.4-10.1,80.3-30.2,113.7c-20.2,33.4-48,59.5-83.5,78.3c-35.5,18.8-75.8,28.2-120.9,28.2
		C2937.7,1491.6,2897.3,1482.2,2861.5,1463.4z M3061.1,1357.7c20.4-21.5,30.6-50.2,30.6-86.3c0-36-10.2-64.8-30.6-86.3
		c-20.4-21.5-46.5-32.2-78.3-32.2s-58.1,10.7-78.7,32.2c-20.7,21.5-31,50.2-31,86.3c0,36,10.3,64.8,31,86.3
		c20.7,21.5,46.9,32.2,78.7,32.2S3040.7,1379.1,3061.1,1357.7z"/>
	<path d="M3478.7,1067.1c25.2-10.6,54.2-15.9,87.1-15.9v114.5c-13.8-1.1-23.1-1.6-27.8-1.6c-35.5,0-63.4,9.9-83.5,29.8
		c-20.2,19.9-30.2,49.7-30.2,89.4v201.9h-124.1v-427.7h118.5v56.4C3433.5,1093.3,3453.5,1077.7,3478.7,1067.1z"/>
	<path d="M3779,1067.1h109.8v95.4h-106.6v322.8h-124.1v-322.8h-66v-95.4h66V1048c0-48.8,14.4-87.4,43.3-116.1
		c28.9-28.6,69.6-42.9,122.1-42.9c18.6,0,36.2,2,52.9,6c16.7,4,30.6,9.7,41.8,17.1l-32.6,89.8c-14.3-10.1-31-15.1-50.1-15.1
		c-37.7,0-56.5,20.7-56.5,62V1067.1z"/>
	<path d="M4268.1,1098.5c35.5,31.5,53.3,79.1,53.3,142.7v244.1h-116.1V1432c-23.3,39.7-66.8,59.6-130.4,59.6
		c-32.9,0-61.4-5.6-85.5-16.7c-24.1-11.1-42.6-26.5-55.3-46.1c-12.7-19.6-19.1-41.9-19.1-66.8c0-39.7,15-71,44.9-93.8
		c30-22.8,76.2-34.2,138.8-34.2h98.6c0-27-8.2-47.8-24.7-62.4c-16.4-14.6-41.1-21.9-74-21.9c-22.8,0-45.2,3.6-67.2,10.7
		c-22,7.2-40.7,16.8-56.1,29l-44.5-86.7c23.3-16.4,51.3-29.1,83.9-38.2c32.6-9,66.1-13.5,100.6-13.5
		C4181.7,1051.2,4232.6,1067,4268.1,1098.5z M4162.3,1393.4c16.4-9.8,28.1-24.2,35-43.3v-43.7h-85.1c-50.9,0-76.4,16.7-76.4,50.1
		c0,15.9,6.2,28.5,18.7,37.8c12.5,9.3,29.6,13.9,51.3,13.9C4127.1,1408.1,4145.9,1403.2,4162.3,1393.4z"/>
</g>
</svg>
