<?xml version="1.0" encoding="utf-8"?>
<!-- Generator: Adobe Illustrator 24.1.0, SVG Export Plug-In . SVG Version: 6.00 Build 0)  -->
<svg version="1.1" id="Capa_1" xmlns="http://www.w3.org/2000/svg" xmlns:xlink="http://www.w3.org/1999/xlink" x="0px" y="0px"
	 viewBox="0 0 512 512" style="enable-background:new 0 0 512 512;" xml:space="preserve">
<style type="text/css">
	.st0{fill:#FFFFFF;}
	.st1{opacity:0.15;enable-background:new    ;}
	.st2{fill:#55CDFF;}
</style>
<g id="color_line_1_">
	<path class="st0" d="M484.9,142.9c0-0.4,0-0.7,0-1.1c0-0.1,0-0.3,0-0.4c0-0.7-0.1-1.5-0.2-2.2c-0.1-0.9-0.3-1.7-0.5-2.6
		c-0.1-0.3-0.2-0.7-0.3-1c0-0.1-0.1-0.2-0.1-0.3c-0.3-0.8-0.5-1.6-0.9-2.4c0,0,0,0,0,0c-0.3-0.8-0.7-1.5-1.1-2.3
		c-1-1.9-2.3-3.6-3.7-5.2c-0.3-0.3-0.6-0.6-0.9-0.9c-0.1-0.1-0.2-0.2-0.4-0.4v0c-0.8-0.8-1.6-1.5-2.5-2.1c-0.5-0.3-0.9-0.7-1.4-1h0
		c-0.3-0.2-0.5-0.3-0.8-0.5c-4-2.4-8.6-3.8-13.6-3.8H53.5c-4.8,0-9.3,1.3-13.1,3.5c-2.1,1.2-4,2.6-5.6,4.3
		c-4.7,4.8-7.6,11.3-7.6,18.5v277.5c0,14.5,11.8,26.3,26.3,26.3h405.1c1.8,0,3.6-0.2,5.4-0.6c0.6-0.1,1.1-0.3,1.7-0.4
		c0.6-0.2,1.1-0.3,1.7-0.5c0.8-0.3,1.6-0.6,2.4-1c0.3-0.1,0.5-0.2,0.8-0.4c2-1,3.9-2.3,5.5-3.7c0.6-0.5,1.1-1,1.6-1.5
		c0.3-0.3,0.5-0.5,0.8-0.8c1.2-1.4,2.3-2.9,3.2-4.5c0,0,0,0,0,0c0.4-0.6,0.7-1.3,1-2c0.6-1.2,1-2.5,1.4-3.8c0.1-0.4,0.2-0.9,0.3-1.3
		c0-0.1,0-0.1,0-0.2c0.1-0.3,0.1-0.6,0.2-0.9c0-0.1,0-0.1,0-0.2c0.1-0.4,0.1-0.7,0.2-1.1c0-0.3,0.1-0.6,0.1-0.9c0-0.2,0-0.4,0-0.5
		c0-0.3,0-0.6,0-0.8c0-0.4,0-0.8,0-1.2V143.2C484.9,143.1,484.9,143,484.9,142.9z M53.5,120.4h405.1c4.2,0,8.1,1.1,11.5,3.1
		l-10,24.3l-37,89.7c-2.9,8.4-9,15.2-16.9,18.9V246c0-6.9-5.6-12.5-12.5-12.5h-23c-6.9,0-12.5,5.6-12.5,12.5v13.7H153.9V246
		c0-6.9-5.6-12.5-12.5-12.5h-23c-6.9,0-12.5,5.6-12.5,12.5v10.4c-8-3.8-14.1-10.7-17-19.1L47,136.4l-5.3-12.8
		C45.2,121.6,49.2,120.4,53.5,120.4z"/>
	<path class="st1" d="M484.9,143.2v277.5c0,0.4,0,0.8,0,1.2c0,0.3,0,0.6,0,0.8c0,0.2,0,0.4,0,0.5c0,0.3-0.1,0.6-0.1,0.9
		c0,0.4-0.1,0.7-0.2,1.1c0,0,0,0.1,0,0.2c-0.1,0.3-0.1,0.6-0.2,0.9c0,0.1,0,0.1,0,0.2c-0.1,0.5-0.2,0.9-0.3,1.3
		c-0.4,1.3-0.9,2.6-1.4,3.8c-0.3,0.7-0.6,1.3-1,2c0,0,0,0,0,0c-0.9,1.6-2,3.1-3.2,4.5c-0.3,0.3-0.5,0.5-0.8,0.8
		c-0.5,0.5-1.1,1-1.6,1.5c-1.7,1.5-3.5,2.7-5.5,3.7c-0.3,0.1-0.5,0.3-0.8,0.4c-0.8,0.3-1.6,0.7-2.4,1c-0.5,0.2-1.1,0.4-1.7,0.5
		c-0.5,0.2-1.1,0.3-1.7,0.4c0.3-1.2,0.5-2.5,0.6-3.7c0.1-0.9,0.1-1.7,0.1-2.6V162.8c0-2.1-0.3-4.2-0.7-6.2c-0.8-3.2-2.1-6.1-3.9-8.7
		l10-24.3c-3.4-2-7.3-3.1-11.5-3.1H53.5c-4.3,0-8.3,1.2-11.7,3.3l5.3,12.8H33.3c-0.6,0-1.1,0-1.7,0.1c-1.2,0.1-2.5,0.2-3.7,0.5
		c1.1-4.7,3.5-8.9,6.8-12.1c1.7-1.7,3.6-3.2,5.6-4.3c3.9-2.3,8.4-3.5,13.1-3.5h405c5,0,9.6,1.4,13.6,3.7c0.3,0.2,0.5,0.3,0.8,0.5h0
		c0.5,0.3,0.9,0.6,1.4,1c0.9,0.7,1.7,1.4,2.5,2.1v0c0.1,0.1,0.3,0.2,0.4,0.4c0.3,0.3,0.6,0.6,0.9,0.9c1.4,1.6,2.7,3.3,3.7,5.2
		c0.4,0.7,0.8,1.5,1.1,2.3c0,0,0,0,0,0c0.3,0.8,0.6,1.6,0.9,2.4c0,0.1,0.1,0.2,0.1,0.3c0.1,0.3,0.2,0.7,0.3,1
		c0.2,0.8,0.4,1.7,0.5,2.6c0.1,0.7,0.2,1.4,0.2,2.2c0,0.1,0,0.3,0,0.4c0,0.4,0,0.7,0,1.1C484.9,143,484.9,143.1,484.9,143.2z"/>
	<path d="M365,263.2c0,0.2,0,0.3,0,0.5c-0.2,1.7-1.7,3-3.4,3H150.4c-1.7,0-3.1-1.2-3.4-2.8c0-0.2-0.1-0.4-0.1-0.6
		c0-0.2,0-0.4,0.1-0.6c0.3-1.6,1.7-2.8,3.4-2.8h211.2c1.7,0,3.2,1.3,3.4,3C365,262.9,365,263,365,263.2z"/>
	<path d="M112.6,262.5c-0.5,1.4-1.8,2.4-3.3,2.4h0l0,0c-0.4,0-0.7,0-1-0.1c-0.8-0.3-1.6-0.5-2.4-0.9c-10.9-4.2-19.5-13-23.5-24.2
		L39.5,136.4l-3.4-8.1l-1.5-3.5l0,0l-0.5-1.1c-0.6-1.4-0.2-3,1-4c0.1-0.1,0.3-0.2,0.4-0.3c0.2-0.1,0.3-0.2,0.5-0.2
		c1.6-0.6,3.3-0.1,4.2,1.3c0,0,0,0,0,0c0.1,0.2,0.2,0.4,0.3,0.6l1.1,2.6l5.3,12.8l41.8,100.9c2.9,8.5,9,15.3,17,19.1
		c1.1,0.5,2.3,1,3.5,1.4c0.3,0.1,0.7,0.2,1,0.3C112.1,258.8,113.2,260.7,112.6,262.5z"/>
	<path d="M476.8,124.3L476.8,124.3c0.1,0.6,0,1.1-0.2,1.7l-0.9,2.2l-11.7,28.5L429.5,240c-3.9,11-12.5,19.8-23.4,24
		c-0.8,0.3-1.6,0.6-2.5,0.9c-0.3,0.1-0.7,0.2-1,0.2c-1.8,0-3.3-1.3-3.5-3.1c0-0.1,0-0.2,0-0.4c0-0.1,0-0.3,0-0.4
		c0.1-1.4,1.1-2.5,2.4-3c0.3-0.1,0.7-0.2,1-0.3c1.2-0.4,2.3-0.9,3.5-1.4c7.9-3.8,14-10.5,16.9-18.9l37-89.7l10-24.3l0.1-0.2
		c0.5-1.2,1.6-2,2.7-2.1h0c0.6-0.1,1.2,0,1.8,0.2C475.9,121.9,476.7,123.1,476.8,124.3z"/>
	<path class="st0" d="M370.6,237h23c5,0,9.1,4.1,9.1,9.1v42.7c0,5-4.1,9.1-9.1,9.1h-23c-5,0-9.1-4.1-9.1-9.1V246
		C361.5,241,365.6,237,370.6,237z"/>
	<path d="M393.6,233.5h-23c-6.9,0-12.5,5.6-12.5,12.5v42.7c0,6.9,5.6,12.5,12.5,12.5h23c6.9,0,12.5-5.6,12.5-12.5V246
		C406.1,239.1,400.5,233.5,393.6,233.5z M399.2,288.7c0,3.1-2.5,5.6-5.6,5.6h-23c-3.1,0-5.6-2.5-5.6-5.6V246c0-3.1,2.5-5.6,5.6-5.6
		h23c3.1,0,5.6,2.5,5.6,5.6V288.7z"/>
	<path class="st0" d="M118.4,237h23c5,0,9.1,4.1,9.1,9.1v42.7c0,5-4.1,9.1-9.1,9.1h-23c-5,0-9.1-4.1-9.1-9.1V246
		C109.3,241,113.4,237,118.4,237z"/>
	<path d="M141.4,233.5h-23c-6.9,0-12.5,5.6-12.5,12.5v42.7c0,6.9,5.6,12.5,12.5,12.5h23c6.9,0,12.5-5.6,12.5-12.5V246
		C153.9,239.1,148.3,233.5,141.4,233.5z M147,288.7c0,3.1-2.5,5.6-5.6,5.6h-23c-3.1,0-5.6-2.5-5.6-5.6V246c0-3.1,2.5-5.6,5.6-5.6h23
		c3.1,0,5.6,2.5,5.6,5.6V288.7z"/>
	<path class="st0" d="M362.8,97.4v19.5h-31.3V98.1c0-10.4-8.4-18.8-18.8-18.8H199.4c-10.4,0-18.8,8.4-18.8,18.8v18.8h-31.3V97.4
		c0.1-24.4,19.8-44.1,44.2-44.2h125.1C342.9,53.3,362.7,73.1,362.8,97.4z"/>
	<g>
		<path d="M318.5,49.8H193.5c-26.3,0-47.6,21.3-47.7,47.6V117c0,1.9,1.6,3.4,3.5,3.4h31.4c0.3,0,0.5,0,0.8-0.1c0.1,0,0.2,0,0.3-0.1
			c0,0,0.1,0,0.1,0c0.2,0,0.3-0.1,0.5-0.2c0.3-0.2,0.6-0.4,0.8-0.6c0.1-0.1,0.1-0.2,0.2-0.2c0.2-0.3,0.4-0.5,0.5-0.8
			c0-0.1,0.1-0.2,0.1-0.3c0-0.1,0.1-0.3,0.1-0.4c0-0.1,0-0.2,0-0.3c0-0.1,0-0.2,0-0.3V98.1c0-8.5,6.9-15.3,15.3-15.3h113.3
			c8.5,0,15.3,6.9,15.3,15.3V117c0,0.1,0,0.2,0,0.3c0,0.1,0,0.2,0,0.3c0,0.1,0.1,0.3,0.1,0.4c0,0.1,0.1,0.2,0.1,0.3
			c0.1,0.3,0.3,0.6,0.5,0.8c0.1,0.1,0.1,0.2,0.2,0.2c0.2,0.2,0.5,0.4,0.8,0.6c0.2,0.1,0.3,0.2,0.5,0.2c0,0,0.1,0,0.1,0
			c0.1,0,0.2,0.1,0.3,0.1c0.3,0.1,0.5,0.1,0.8,0.1h31.4c1.9,0,3.4-1.5,3.5-3.4V97.4C366.2,71.1,344.8,49.8,318.5,49.8z M359.3,113.5
			h-24.5l0-15.3c0-12.3-10-22.2-22.3-22.3H199.4c-12.3,0-22.2,10-22.3,22.2v15.4h-24.4v-16c0-22.5,18.3-40.7,40.8-40.7h125.1
			c22.5,0,40.7,18.2,40.8,40.7V113.5z"/>
		<path d="M330.6,120.3c-0.1,0-0.2,0-0.3-0.1c0,0-0.1,0-0.1,0c-0.2,0-0.3-0.1-0.5-0.2c-0.3-0.2-0.6-0.4-0.8-0.6
			c-0.1-0.1-0.1-0.2-0.2-0.2c-0.2-0.3-0.4-0.5-0.5-0.8c0-0.1-0.1-0.2-0.1-0.3c0-0.1-0.1-0.3-0.1-0.4c0-0.1,0-0.2,0-0.3
			c0-0.1,0-0.2,0-0.3H184c0,0.1,0,0.2,0,0.3c0,0.1,0,0.2,0,0.3c0,0.1-0.1,0.3-0.1,0.4c0,0.1-0.1,0.2-0.1,0.3
			c-0.1,0.3-0.3,0.6-0.5,0.8c-0.1,0.1-0.1,0.2-0.2,0.2c-0.2,0.2-0.5,0.4-0.8,0.6c-0.2,0.1-0.3,0.2-0.5,0.2c0,0-0.1,0-0.1,0
			c-0.1,0-0.2,0.1-0.3,0.1c-0.3,0.1-0.5,0.1-0.8,0.1h150.8C331.2,120.4,330.9,120.4,330.6,120.3z M458.5,113.5H53.5
			c-6.7,0-12.8,2.2-17.8,6c-0.1,0.1-0.3,0.2-0.4,0.3c-7,5.4-11.6,14-11.6,23.6v277.5c0,16.5,13.4,29.8,29.8,29.8h405.1
			c16.5,0,29.8-13.4,29.8-29.8V143.3C488.3,126.8,475,113.5,458.5,113.5z M481.4,420.7c0,10.6-7.2,19.4-16.9,22.1
			c-1.9,0.5-3.9,0.8-6,0.8H53.5c-12.6,0-22.9-10.3-22.9-22.9V143.3c0-2.4,0.4-4.7,1-6.8c0.9-3,2.5-5.8,4.6-8.2
			c1.6-1.8,3.5-3.4,5.6-4.7c3.4-2.1,7.5-3.2,11.7-3.3h405.1c4.2,0,8.1,1.1,11.5,3.1c2.1,1.2,4,2.8,5.6,4.6c3.6,4,5.8,9.4,5.8,15.2
			V420.7z M330.6,120.3c-0.1,0-0.2,0-0.3-0.1c0,0-0.1,0-0.1,0c-0.2,0-0.3-0.1-0.5-0.2c-0.3-0.2-0.6-0.4-0.8-0.6
			c-0.1-0.1-0.1-0.2-0.2-0.2c-0.2-0.3-0.4-0.5-0.5-0.8c0-0.1-0.1-0.2-0.1-0.3c0-0.1-0.1-0.3-0.1-0.4c0-0.1,0-0.2,0-0.3
			c0-0.1,0-0.2,0-0.3H184c0,0.1,0,0.2,0,0.3c0,0.1,0,0.2,0,0.3c0,0.1-0.1,0.3-0.1,0.4c0,0.1-0.1,0.2-0.1,0.3
			c-0.1,0.3-0.3,0.6-0.5,0.8c-0.1,0.1-0.1,0.2-0.2,0.2c-0.2,0.2-0.5,0.4-0.8,0.6c-0.2,0.1-0.3,0.2-0.5,0.2c0,0-0.1,0-0.1,0
			c-0.1,0-0.2,0.1-0.3,0.1c-0.3,0.1-0.5,0.1-0.8,0.1h150.8C331.2,120.4,330.9,120.4,330.6,120.3z"/>
		<path class="st2" d="M470.1,123.5l-10,24.3c-4.7-6.9-12.7-11.4-21.7-11.4c0,0,0,0,0,0H47l-5.3-12.8c3.4-2.1,7.5-3.2,11.7-3.3
			h405.1C462.7,120.4,466.7,121.5,470.1,123.5z"/>
		<path class="st1" d="M470.1,123.5l-10,24.3c-4.7-6.9-12.7-11.4-21.7-11.4c0,0,0,0,0,0H47l-5.3-12.8c3.4-2.1,7.5-3.2,11.7-3.3
			h405.1C462.7,120.4,466.7,121.5,470.1,123.5z"/>
		<path class="st2" d="M460,147.8l-37,89.7c-2.9,8.4-9,15.2-16.9,18.9V246c0-6.9-5.6-12.5-12.5-12.5h-23c-6.9,0-12.5,5.6-12.5,12.5
			v13.7H153.9V246c0-6.9-5.6-12.5-12.5-12.5h-23c-6.9,0-12.5,5.6-12.5,12.5v10.4c-8-3.8-14.1-10.7-17-19.1L47,136.4h391.3
			c0,0,0,0,0,0C447.3,136.4,455.3,141,460,147.8z"/>
	</g>
</g>
</svg>
