<?xml version="1.0" encoding="utf-8"?>
<!-- Generator: Adobe Illustrator 24.1.0, SVG Export Plug-In . SVG Version: 6.00 Build 0)  -->
<svg version="1.1" id="Capa_1" xmlns="http://www.w3.org/2000/svg" xmlns:xlink="http://www.w3.org/1999/xlink" x="0px" y="0px"
	 viewBox="0 0 512 512" style="enable-background:new 0 0 512 512;" xml:space="preserve">
<style type="text/css">
	.st0{fill:#FFFFFF;}
	.st1{opacity:0.15;fill:#FFFFFF;enable-background:new    ;}
	.st2{fill:#55CDFF;}
	.st3{opacity:0.15;enable-background:new    ;}
	.st4{fill:#323C6B;}
</style>
<g id="color_line">
	<path class="st0" d="M381.1,20.8H487v105.9H381.1L381.1,20.8z"/>
	<path class="st1" d="M381.1,385.4H487v105.9H381.1L381.1,385.4z"/>
	<path class="st2" d="M25,20.8h208v207.9H25L25,20.8z"/>
	<path class="st0" d="M25,385.4h105.9v105.9H25V385.4z"/>
	<path class="st3" d="M487,20.8v105.9h-20.3V38.1h-85.5V20.8L487,20.8z"/>
	<path class="st3" d="M487,385.4v105.9h-20.3v-88.6h-85.5v-17.3H487z"/>
	<path class="st3" d="M233,20.8v207.9h-20.3V38.1H25V20.8H233z"/>
	<path class="st3" d="M130.9,385.4v105.9h-20.3v-88.6H25v-17.3H130.9z"/>
	<g>
		<path class="st4" d="M130.9,494.7H117c-1.9,0-3.5-1.5-3.5-3.5s1.5-3.5,3.5-3.5h13.8c1.9,0,3.5,1.5,3.5,3.5
			S132.8,494.7,130.9,494.7z"/>
		<path class="st4" d="M91,494.7h-26c-1.9,0-3.5-1.5-3.5-3.5s1.5-3.5,3.5-3.5h26c1.9,0,3.5,1.5,3.5,3.5S92.9,494.7,91,494.7z"/>
		<path class="st4" d="M38.9,494.7H25.1c-1.9,0-3.5-1.5-3.5-3.5v-13.8c0-1.9,1.5-3.5,3.5-3.5s3.5,1.5,3.5,3.5v10.4h10.4
			c1.9,0,3.5,1.5,3.5,3.5S40.8,494.7,38.9,494.7z"/>
		<path d="M25.1,454.8c-1.9,0-3.5-1.5-3.5-3.5v-26c0-1.9,1.6-3.5,3.5-3.5c1.9,0,3.5,1.5,3.5,3.5v26C28.5,453.3,27,454.8,25.1,454.8z
			 M25.1,406.4c-1.9,0-3.5-1.5-3.5-3.5v-186c0-1.9,1.6-3.5,3.5-3.5c1.9,0,3.5,1.5,3.5,3.5v186C28.5,404.9,27,406.4,25.1,406.4z
			 M25.1,194.3c-1.9,0-3.5-1.5-3.5-3.5v-26c0-1.9,1.6-3.5,3.5-3.5c1.9,0,3.5,1.5,3.5,3.5v26C28.5,192.8,27,194.3,25.1,194.3
			L25.1,194.3z M25.1,142.3c-1.9,0-3.5-1.5-3.5-3.5v-26.1c0-1.9,1.6-3.5,3.5-3.5c1.9,0,3.5,1.5,3.5,3.5v26
			C28.5,140.7,27,142.2,25.1,142.3L25.1,142.3z M25.1,90.2c-1.9,0-3.5-1.5-3.5-3.5v-26c0-1.9,1.6-3.5,3.5-3.5c1.9,0,3.5,1.5,3.5,3.5
			v26C28.5,88.6,27,90.1,25.1,90.2L25.1,90.2z"/>
		<path class="st4" d="M25.1,38.1c-1.9,0-3.5-1.5-3.5-3.5V20.8c0-1.9,1.5-3.5,3.5-3.5h13.8c1.9,0,3.5,1.5,3.5,3.5s-1.5,3.5-3.5,3.5
			H28.5v10.4C28.5,36.5,27,38.1,25.1,38.1z"/>
		<path class="st4" d="M218,24.2h-29.8c-1.9,0-3.5-1.5-3.5-3.5s1.5-3.5,3.5-3.5H218c1.9,0,3.5,1.5,3.5,3.5S219.9,24.2,218,24.2
			L218,24.2z M158.3,24.2h-29.9c-1.9,0-3.5-1.5-3.5-3.5s1.5-3.5,3.5-3.5h29.8c1.9,0,3.5,1.5,3.5,3.5S160.2,24.2,158.3,24.2
			L158.3,24.2z M98.6,24.2H68.8c-1.9,0-3.5-1.5-3.5-3.5s1.5-3.5,3.5-3.5h29.8c1.9,0,3.5,1.5,3.5,3.5S100.5,24.2,98.6,24.2L98.6,24.2
			z"/>
		<path d="M381.1,24.2H217.3c-1.9,0-3.5-1.5-3.5-3.5s1.5-3.5,3.5-3.5h163.8c1.9,0,3.5,1.5,3.5,3.5S383,24.2,381.1,24.2z"/>
		<path d="M381.1,494.7H107.3c-1.9,0-3.5-1.5-3.5-3.5s1.5-3.5,3.5-3.5h273.8c1.9,0,3.5,1.5,3.5,3.5S383,494.7,381.1,494.7z"/>
		<path class="st4" d="M395,24.2h-13.8c-1.9,0-3.5-1.5-3.5-3.5s1.5-3.5,3.5-3.5H395c1.9,0,3.5,1.5,3.5,3.5S396.9,24.2,395,24.2z"/>
		<path class="st4" d="M447.1,24.2h-26c-1.9,0-3.5-1.5-3.5-3.5s1.5-3.5,3.5-3.5h26c1.9,0,3.5,1.5,3.5,3.5S449,24.2,447.1,24.2z"/>
		<path class="st4" d="M486.9,38.1c-1.9,0-3.5-1.5-3.5-3.5V24.2h-10.4c-1.9,0-3.5-1.5-3.5-3.5s1.5-3.5,3.5-3.5h13.8
			c1.9,0,3.5,1.5,3.5,3.5v13.8C490.4,36.5,488.9,38.1,486.9,38.1z"/>
		<path d="M486.9,454.8c-1.9,0-3.5-1.5-3.5-3.5v-26c0-1.9,1.5-3.5,3.5-3.5c1.9,0,3.5,1.5,3.5,3.5v26
			C490.4,453.3,488.8,454.8,486.9,454.8z M486.9,402.7c-1.9,0-3.5-1.5-3.5-3.5v-26c0-1.9,1.5-3.5,3.5-3.5c1.9,0,3.5,1.5,3.5,3.5v26
			C490.4,401.2,488.9,402.7,486.9,402.7z M486.9,392.2c-1.9,0-3.5-1.5-3.5-3.5v-276c0-1.9,1.5-3.5,3.5-3.5c1.9,0,3.5,1.5,3.5,3.5
			v276C490.4,390.7,488.9,392.2,486.9,392.2z M486.9,90.2c-1.9,0-3.5-1.5-3.5-3.5v-26c0-1.9,1.5-3.5,3.5-3.5c1.9,0,3.5,1.5,3.5,3.5
			v26C490.4,88.6,488.8,90.1,486.9,90.2L486.9,90.2z"/>
		<path class="st4" d="M486.9,494.7h-13.8c-1.9,0-3.5-1.5-3.5-3.5s1.5-3.5,3.5-3.5h10.4v-10.4c0-1.9,1.5-3.5,3.5-3.5
			c1.9,0,3.5,1.5,3.5,3.5v13.8C490.4,493.2,488.9,494.7,486.9,494.7z"/>
		<path class="st4" d="M447.1,494.7h-26c-1.9,0-3.5-1.5-3.5-3.5s1.5-3.5,3.5-3.5h26c1.9,0,3.5,1.5,3.5,3.5S449,494.7,447.1,494.7z"
			/>
		<path class="st4" d="M395,494.7h-13.8c-1.9,0-3.5-1.5-3.5-3.5s1.5-3.5,3.5-3.5H395c1.9,0,3.5,1.5,3.5,3.5S396.9,494.7,395,494.7z"
			/>
		<path d="M487,130.1H381.1c-1.9,0-3.5-1.5-3.5-3.5V20.8c0-1.9,1.5-3.5,3.5-3.5H487c1.9,0,3.5,1.5,3.5,3.5v105.9
			C490.4,128.5,488.9,130.1,487,130.1z M384.6,123.2h98.9V24.2h-98.9V123.2z"/>
		<path d="M487,494.7H381.1c-1.9,0-3.5-1.5-3.5-3.5V385.4c0-1.9,1.5-3.5,3.5-3.5H487c1.9,0,3.5,1.5,3.5,3.5v105.9
			C490.4,493.2,488.9,494.7,487,494.7z M384.6,487.8h98.9v-98.9h-98.9V487.8z"/>
		<path d="M233,232.1H25c-1.9,0-3.5-1.5-3.5-3.5V20.8c0-1.9,1.5-3.5,3.5-3.5h208c1.9,0,3.5,1.5,3.5,3.5v207.9
			C236.5,230.6,234.9,232.1,233,232.1z M28.5,225.2h201.1v-201H28.5V225.2z"/>
		<path d="M130.9,494.7H25c-1.9,0-3.5-1.5-3.5-3.5V385.4c0-1.9,1.5-3.5,3.5-3.5h105.9c1.9,0,3.5,1.5,3.5,3.5v105.9
			C134.4,493.2,132.8,494.7,130.9,494.7z M28.5,487.8h98.9v-98.9H28.5V487.8z"/>
	</g>
</g>
</svg>
