<?xml version="1.0" encoding="utf-8"?>
<!-- Generator: Adobe Illustrator 24.1.0, SVG Export Plug-In . SVG Version: 6.00 Build 0)  -->
<svg version="1.1" id="Capa_1" xmlns="http://www.w3.org/2000/svg" xmlns:xlink="http://www.w3.org/1999/xlink" x="0px" y="0px"
	 viewBox="0 0 512 512" style="enable-background:new 0 0 512 512;" xml:space="preserve">
<style type="text/css">
	.st0{fill:#FFFFFF;}
	.st1{fill:#55CDFF;}
	.st2{opacity:0.15;enable-background:new    ;}
</style>
<g id="color_line">
	<path class="st0" d="M31.2,166.1v305.2c0,11,8.8,19.9,19.8,20c0,0,0,0,0.1,0h409.8c11,0,20-8.9,20-19.9c0,0,0,0,0,0V166.1
		L31.2,166.1z"/>
	<path class="st1" d="M480.8,82.5v83.5H31.2V82.5c0-11,8.9-19.9,19.8-19.9c0,0,0,0,0,0h48v34.2c0,4.2,3.4,7.7,7.7,7.7c0,0,0,0,0,0
		h30.8c4.2,0,7.6-3.4,7.6-7.6c0,0,0-0.1,0-0.1V62.7h221.5v34.2c0,4.2,3.4,7.7,7.6,7.7h30.9c4.2,0,7.7-3.5,7.7-7.7c0,0,0,0,0,0V62.7
		h48C471.8,62.7,480.8,71.6,480.8,82.5L480.8,82.5z"/>
	<path class="st2" d="M480.8,166.1v305.3c0,11-8.9,19.9-19.9,19.9h-27.1c11,0,19.9-8.9,19.9-19.8c0,0,0-0.1,0-0.1V166.1L480.8,166.1
		z"/>
	<path class="st2" d="M106.8,104.6H119v7.8c0,4.2-3.4,7.7-7.6,7.7c0,0,0,0,0,0H92c-4.2,0-7.7-3.4-7.7-7.6c0,0,0,0,0,0V84.1H31.2
		v-1.6c0-10.9,8.8-19.8,19.8-19.9c0,0,0.1,0,0.1,0h48v34.2C99.1,101.1,102.5,104.6,106.8,104.6C106.8,104.6,106.8,104.6,106.8,104.6
		z"/>
	<path class="st2" d="M374.3,104.6h12.2v7.8c0,4.2-3.4,7.7-7.6,7.7c0,0,0,0,0,0h-19.4c-4.2,0-7.7-3.4-7.7-7.7V84.1H145.2V62.7h221.5
		v34.2C366.7,101.1,370.1,104.6,374.3,104.6z"/>
	<path class="st2" d="M480.8,82.5v83.5h-26.2V104c-0.1-11-9-19.8-19.9-19.9h-21.9V62.7h48.1C471.8,62.7,480.8,71.6,480.8,82.5
		L480.8,82.5z"/>
	<path class="st0" d="M145.2,28.4v68.5c0.1,4.2-3.3,7.7-7.5,7.7c0,0-0.1,0-0.1,0h-30.8c-4.2,0-7.7-3.4-7.7-7.7c0,0,0,0,0,0V28.4
		c0-4.2,3.4-7.6,7.6-7.6c0,0,0.1,0,0.1,0h30.8c4.2,0,7.6,3.3,7.6,7.5C145.2,28.3,145.2,28.3,145.2,28.4z"/>
	<path d="M137.6,108.1h-30.8c-6.2,0-11.2-5-11.2-11.2V28.4c0-6.1,5-11.1,11.2-11.1h30.8c6.1-0.1,11,4.8,11.1,10.9c0,0.1,0,0.1,0,0.2
		v68.5C148.7,103,143.7,108,137.6,108.1z M106.8,24.2c-2.3-0.1-4.2,1.8-4.3,4c0,0,0,0.1,0,0.1v68.5c0,2.3,1.8,4.2,4.2,4.3
		c0,0,0.1,0,0.1,0h30.8c2.3,0,4.2-1.9,4.2-4.2c0,0,0-0.1,0-0.1V28.4c0-2.3-1.7-4.1-4-4.2c-0.1,0-0.1,0-0.2,0L106.8,24.2z"/>
	<path class="st0" d="M412.8,28.4v68.5c0,4.2-3.4,7.7-7.6,7.7h-30.9c-4.2,0-7.6-3.5-7.6-7.7V28.4c0-4.2,3.4-7.6,7.6-7.6h30.9
		C409.4,20.7,412.8,24.1,412.8,28.4C412.8,28.3,412.8,28.4,412.8,28.4z"/>
	<path d="M405.2,108.1h-30.9c-6.1,0-11.1-5-11.1-11.2V28.4c0-6.1,5-11.1,11.1-11.1h30.9c6.1,0,11.1,5,11.1,11.1v68.5
		C416.3,103,411.3,108,405.2,108.1L405.2,108.1z M374.3,24.2c-2.3,0-4.2,1.9-4.2,4.2v68.5c0,2.3,1.8,4.2,4.2,4.3h30.9
		c2.3,0,4.2-1.9,4.2-4.3V28.4c0-2.3-1.9-4.2-4.2-4.2L374.3,24.2z"/>
	<path class="st0" d="M107.4,234.5h43.2c4.6,0,8.4,3.8,8.4,8.4v43.1c0,4.6-3.8,8.4-8.4,8.4h-43.2c-4.6,0-8.4-3.8-8.4-8.4v-43.1
		C99,238.2,102.8,234.5,107.4,234.5z"/>
	<path d="M150.6,297.8h-43.2c-6.5,0-11.8-5.3-11.8-11.9v-43.1c0-6.5,5.3-11.8,11.8-11.9h43.2c6.5,0,11.8,5.3,11.9,11.9v43.1
		C162.4,292.5,157.1,297.8,150.6,297.8z M107.4,237.9c-2.7,0-4.9,2.2-4.9,4.9v43.1c0,2.7,2.2,4.9,4.9,4.9h43.2
		c2.7,0,4.9-2.2,4.9-4.9v-43.1c0-2.7-2.2-4.9-4.9-4.9L107.4,237.9z"/>
	<path class="st0" d="M107.4,360.5h43.2c4.6,0,8.4,3.8,8.4,8.4v43.2c0,4.6-3.8,8.4-8.4,8.4h-43.2c-4.6,0-8.4-3.8-8.4-8.4v-43.2
		C99,364.3,102.8,360.5,107.4,360.5z"/>
	<path d="M150.6,423.9h-43.2c-6.5,0-11.8-5.3-11.8-11.8v-43.2c0-6.5,5.3-11.8,11.8-11.8h43.2c6.5,0,11.8,5.3,11.8,11.8v43.2
		C162.4,418.6,157.1,423.9,150.6,423.9z M107.4,364c-2.7,0-4.9,2.2-4.9,4.9v43.2c0,2.7,2.2,4.9,4.9,4.9h43.2c2.7,0,4.9-2.2,4.9-4.9
		v-43.2c0-2.7-2.2-4.9-4.9-4.9H107.4z"/>
	<path class="st0" d="M361.4,360.5h43.2c4.6,0,8.4,3.8,8.4,8.4v43.2c0,4.6-3.8,8.4-8.4,8.4h-43.2c-4.6,0-8.4-3.8-8.4-8.4v-43.2
		C353,364.3,356.8,360.5,361.4,360.5z"/>
	<path d="M404.6,423.9h-43.2c-6.5,0-11.8-5.3-11.8-11.8v-43.2c0-6.5,5.3-11.8,11.8-11.8h43.2c6.5,0,11.8,5.3,11.9,11.8v43.2
		C416.4,418.6,411.1,423.9,404.6,423.9z M361.4,364c-2.7,0-4.9,2.2-4.9,4.9v43.2c0,2.7,2.2,4.9,4.9,4.9h43.2c2.7,0,4.9-2.2,4.9-4.9
		v-43.2c0-2.7-2.2-4.9-4.9-4.9H361.4z"/>
	<path class="st0" d="M234.5,360.5h43.1c4.6,0,8.4,3.8,8.4,8.4v43.2c0,4.6-3.8,8.4-8.4,8.4h-43.1c-4.6,0-8.4-3.8-8.4-8.4v-43.2
		C226.1,364.3,229.8,360.5,234.5,360.5z"/>
	<path d="M277.5,423.9h-43.1c-6.5,0-11.8-5.3-11.9-11.8v-43.2c0-6.5,5.3-11.8,11.9-11.8h43.1c6.5,0,11.8,5.3,11.9,11.8v43.2
		C289.4,418.6,284.1,423.9,277.5,423.9L277.5,423.9z M234.5,364c-2.7,0-4.9,2.2-4.9,4.9v43.2c0,2.7,2.2,4.9,4.9,4.9h43.1
		c2.7,0,4.9-2.2,4.9-4.9v-43.2c0-2.7-2.2-4.9-4.9-4.9H234.5z"/>
	<path class="st0" d="M361.4,234.5h43.2c4.6,0,8.4,3.8,8.4,8.4v43.1c0,4.6-3.8,8.4-8.4,8.4h-43.2c-4.6,0-8.4-3.8-8.4-8.4v-43.1
		C353,238.2,356.8,234.5,361.4,234.5z"/>
	<path d="M404.6,297.8h-43.2c-6.5,0-11.8-5.3-11.8-11.9v-43.1c0-6.5,5.3-11.8,11.8-11.9h43.2c6.5,0,11.8,5.3,11.9,11.9v43.1
		C416.4,292.5,411.1,297.8,404.6,297.8z M361.4,237.9c-2.7,0-4.9,2.2-4.9,4.9v43.1c0,2.7,2.2,4.9,4.9,4.9h43.2
		c2.7,0,4.9-2.2,4.9-4.9v-43.1c0-2.7-2.2-4.9-4.9-4.9L361.4,237.9z"/>
	<path class="st1" d="M234.5,234.5h43.1c4.6,0,8.4,3.8,8.4,8.4v43.1c0,4.6-3.8,8.4-8.4,8.4h-43.1c-4.6,0-8.4-3.8-8.4-8.4v-43.1
		C226.1,238.2,229.8,234.5,234.5,234.5z"/>
	<g>
		<path d="M277.5,297.8h-43.1c-6.5,0-11.8-5.3-11.9-11.9v-43.1c0-6.5,5.3-11.8,11.9-11.9h43.1c6.5,0,11.8,5.3,11.8,11.9v43.1
			C289.4,292.5,284.1,297.8,277.5,297.8L277.5,297.8z M234.5,237.9c-2.7,0-4.9,2.2-4.9,4.9v43.1c0,2.7,2.2,4.9,4.9,4.9h43.1
			c2.7,0,4.9-2.2,4.9-4.9v-43.1c0-2.7-2.2-4.9-4.9-4.9L234.5,237.9z"/>
		<path d="M480.8,169.5H31.2c-1.9,0-3.5-1.5-3.5-3.5V82.5c0-12.9,10.5-23.3,23.3-23.3h48c1.9,0,3.5,1.5,3.5,3.5v34.2
			c0,2.3,1.8,4.2,4.2,4.3c0,0,0.1,0,0.1,0h30.8c2.3,0,4.2-1.9,4.2-4.2c0,0,0-0.1,0-0.1V62.7c0-1.9,1.5-3.5,3.5-3.5h221.5
			c1.9,0,3.5,1.5,3.5,3.5v34.2c0,2.3,1.8,4.2,4.2,4.3h30.9c2.3,0,4.2-1.9,4.2-4.3V62.7c0-1.9,1.5-3.5,3.5-3.5h48
			c12.9,0,23.4,10.4,23.4,23.3v83.5C484.2,168,482.7,169.5,480.8,169.5L480.8,169.5z M34.7,162.6h442.7V82.5
			c0-9.1-7.4-16.4-16.5-16.4h-44.6v30.7c0,6.1-4.9,11.1-11.1,11.2h-30.9c-6.1,0-11.1-5-11.1-11.2V66.1H148.7v30.7
			c0,6.1-4.9,11.1-11.1,11.2h-30.8c-6.2,0-11.2-5-11.2-11.2V66.1H51.1c-9.1,0-16.4,7.3-16.4,16.4L34.7,162.6z"/>
		<path d="M460.8,494.7H51.1c-12.9,0-23.3-10.5-23.3-23.4V166.1c0-1.9,1.5-3.5,3.5-3.5h449.6c1.9,0,3.5,1.5,3.5,3.5v305.2
			C484.2,484.2,473.8,494.7,460.8,494.7z M34.6,169.5v301.8c0,9.1,7.3,16.5,16.4,16.5h409.8c9.1,0,16.5-7.4,16.5-16.5V169.5
			L34.6,169.5z"/>
	</g>
</g>
</svg>
