<?xml version="1.0" encoding="utf-8"?>
<!-- Generator: Adobe Illustrator 24.1.0, SVG Export Plug-In . SVG Version: 6.00 Build 0)  -->
<svg version="1.1" id="Layer_1" xmlns="http://www.w3.org/2000/svg" xmlns:xlink="http://www.w3.org/1999/xlink" x="0px" y="0px"
	 viewBox="0 0 512 512" style="enable-background:new 0 0 512 512;" xml:space="preserve">
<style type="text/css">
	.st0{fill:#E4F4FF;}
	.st1{fill:#EEEFEE;}
	.st2{fill:#323C6B;}
	.st3{fill:#55CDFF;}
	.st4{opacity:0.15;}
	.st5{fill:#FFFFFF;}
	.st6{fill:#FCD462;}
	.st7{fill:#F7BE56;}
</style>
<g id="color_line">
	<path class="st0" d="M65.5,381.8h-15c-16.4,0-29.7-13.4-29.7-29.8V104.8c0-16.4,13.3-29.7,29.7-29.8h352.1
		c16.4,0,29.8,13.3,29.8,29.8v11.1"/>
	<path d="M65.5,385.3h-15c-18.3,0-33.2-14.9-33.2-33.2V104.8c0-18.3,14.8-33.2,33.2-33.2h352.1c18.3,0,33.2,14.9,33.2,33.2v11.1
		c0,1.9-1.5,3.5-3.5,3.5c-1.9,0-3.5-1.5-3.5-3.5v-11.1c0-14.5-11.8-26.3-26.3-26.3H50.5c-14.5,0-26.2,11.8-26.2,26.3v247.2
		c0,14.5,11.7,26.3,26.2,26.3h15c1.9,0,3.5,1.5,3.5,3.5S67.4,385.3,65.5,385.3C65.5,385.3,65.5,385.3,65.5,385.3z"/>
	<path class="st1" d="M491.2,373.4v33.9c0,16.4-13.3,29.6-29.7,29.6l0,0H95.1c-16.3,0-29.6-13.2-29.7-29.6v-61.6l128.3-146.2
		l117.8,143.1l81.7-91.2L491.2,373.4z"/>
	<path class="st2" d="M461.6,440.4H95.1c-18.3,0-33.1-14.8-33.1-33v-61.6c0-0.8,0.3-1.7,0.9-2.3l128.2-146.2
		c1.3-1.4,3.4-1.6,4.9-0.3c0.1,0.1,0.3,0.3,0.4,0.4l115.3,140l79-88.2c0.7-0.8,1.6-1.2,2.7-1.2c1,0,2,0.5,2.6,1.3l98,121.9
		c0.5,0.6,0.8,1.4,0.8,2.2v33.9C494.7,425.6,479.9,440.4,461.6,440.4z M68.9,347.1v60.3c0,14.4,11.8,26.1,26.2,26.1h366.5
		c14.4,0,26.2-11.7,26.2-26.1v-32.7l-94.7-117.8l-79,88.1c-0.7,0.8-1.6,1.2-2.6,1.2c-1,0-2-0.5-2.6-1.3l-115.3-140L68.9,347.1z"/>
	<path class="st3" d="M491.2,373.4v33.9c0,16.4-13.3,29.6-29.7,29.6l0,0H95.1c-16.3,0-29.6-13.2-29.7-29.6v-61.6l128.3-146.2
		l117.8,143.1l81.7-91.2L491.2,373.4z"/>
	<path class="st4" d="M491.2,373.4v33.9c0,16.4-13.3,29.6-29.7,29.6H95.1c-13.2,0-24.9-8.7-28.5-21.4c4.3,2.4,9.1,3.6,14,3.6h366.5
		c16.4,0,29.7-13.2,29.7-29.6v-34L491.2,373.4z"/>
	<path class="st5" d="M491.2,145.6v227.8l-98-121.9l-81.7,91.2L193.7,199.5L65.5,345.8V145.6c0-16.4,13.2-29.6,29.6-29.7
		c0,0,0,0,0,0h366.5C478,115.9,491.2,129.2,491.2,145.6C491.2,145.6,491.2,145.6,491.2,145.6z"/>
	<path class="st4" d="M491.2,145.6v227.8l-16.7-20.8V165.8c0-16.4-13.2-29.6-29.6-29.7c0,0,0,0-0.1,0H78.4c-4.2,0-8.3,0.9-12.1,2.6
		c3.2-13.4,15.1-22.8,28.9-22.8h366.4C478,115.9,491.2,129.2,491.2,145.6C491.2,145.6,491.2,145.6,491.2,145.6z"/>
	<circle class="st6" cx="329.1" cy="198.6" r="39.4"/>
	<path class="st7" d="M357.8,225.4c1.7-4.4,2.6-9.1,2.6-13.8c0-21.7-17.5-39.4-39.3-39.4c-11,0-21.5,4.5-28.9,12.6
		c7.6-20.4,30.3-30.7,50.7-23c20.4,7.6,30.7,30.3,23,50.7C364.1,217.2,361.4,221.6,357.8,225.4z"/>
	<g>
		<path d="M491.2,376.9c-1,0-2-0.5-2.7-1.3l-95.5-118.7L314.1,345c-0.7,0.8-1.6,1.2-2.6,1.2c-1,0-2-0.5-2.6-1.3l-115.3-140L68.1,348
			c-1.3,1.4-3.4,1.6-4.9,0.3c-0.8-0.7-1.2-1.6-1.2-2.6V145.6c0-18.3,14.8-33.1,33.1-33.1h366.5c18.3,0,33.1,14.8,33.1,33.1v227.8
			C494.7,375.3,493.2,376.9,491.2,376.9z M393.2,248.1L393.2,248.1c1.1,0,2.1,0.5,2.7,1.3l91.9,114.2v-218
			c0-14.5-11.7-26.2-26.2-26.2H95.1c-14.5,0-26.2,11.7-26.2,26.2v191l122.2-139.3c1.3-1.4,3.4-1.6,4.9-0.3c0.1,0.1,0.3,0.3,0.4,0.4
			l115.3,140l79-88.2C391.3,248.5,392.2,248.1,393.2,248.1z"/>
		<path d="M461.6,440.4H95.1c-18.3,0-33.1-14.8-33.1-33v-61.6c0-0.8,0.3-1.7,0.9-2.3l128.2-146.2c1.3-1.4,3.4-1.6,4.9-0.3
			c0.1,0.1,0.3,0.3,0.4,0.4l115.3,140l79-88.2c0.7-0.8,1.6-1.2,2.7-1.2c1,0,2,0.5,2.6,1.3l98,121.9c0.5,0.6,0.8,1.4,0.8,2.2v33.9
			C494.7,425.6,479.9,440.4,461.6,440.4z M68.9,347.1v60.3c0,14.4,11.8,26.1,26.2,26.1h366.5c14.4,0,26.2-11.7,26.2-26.1v-32.7
			l-94.7-117.8l-79,88.1c-0.7,0.8-1.6,1.2-2.6,1.2c-1,0-2-0.5-2.6-1.3l-115.3-140L68.9,347.1z"/>
		<path d="M329.1,241.5c-23.7,0-42.9-19.2-42.9-42.9s19.2-42.9,42.9-42.9c23.7,0,42.8,19.2,42.9,42.8
			C371.9,222.3,352.7,241.5,329.1,241.5z M329.1,162.7c-19.9,0-35.9,16.1-35.9,35.9c0,19.9,16.1,35.9,35.9,35.9
			c19.9,0,35.9-16.1,35.9-35.9c0,0,0,0,0,0C365,178.7,348.9,162.7,329.1,162.7L329.1,162.7z"/>
	</g>
	<path class="st5" d="M246.3,300.6c-2.1,1.7-5.2,1.3-6.9-0.8L202,252.7c-1.7-2.1-1.3-5.2,0.8-6.9s5.2-1.3,6.9,0.8l0,0l37.4,47.1
		C248.8,295.8,248.4,298.9,246.3,300.6C246.3,300.6,246.3,300.6,246.3,300.6z"/>
	<path class="st5" d="M258.6,316c-2.1,1.7-5.2,1.3-6.9-0.8l-1.6-2c-1.7-2.1-1.3-5.2,0.8-6.9s5.2-1.3,6.9,0.8l1.6,2
		C261.1,311.2,260.7,314.3,258.6,316C258.6,316,258.6,316,258.6,316L258.6,316z"/>
</g>
</svg>
