<?xml version="1.0" encoding="utf-8"?>
<!-- Generator: Adobe Illustrator 24.1.0, SVG Export Plug-In . SVG Version: 6.00 Build 0)  -->
<svg version="1.1" id="color_line" xmlns="http://www.w3.org/2000/svg" xmlns:xlink="http://www.w3.org/1999/xlink" x="0px" y="0px"
	 viewBox="0 0 512 512" style="enable-background:new 0 0 512 512;" xml:space="preserve">
<style type="text/css">
	.st0{fill:#55CDFF;}
	.st1{fill:#E4F4FF;}
	.st2{opacity:0.15;}
	.st3{opacity:3.000000e-02;}
	.st4{fill:#FFFFFF;}
</style>
<path class="st0" d="M123.6,489.5c0.9-20.4,4.6-65.2,17.5-92.9c14.3-30.3,73.5-49.8,109.5-59c15.9,17.2,38.8,26,62.1,23.8
	c18.2-1.7,35-10.3,47.2-23.9c36.2,9,95.8,28.7,110.1,59.1c12.9,27.8,16.6,72.6,17.6,92.9L123.6,489.5L123.6,489.5z"/>
<path class="st1" d="M232,217.9c0-40.6,32.9-73.6,73.6-73.6c2.3,0,4.7,0.1,7,0.3c38.3,4.3,67,36.9,66.6,75.4v28.1
	c0.4,38.5-28.3,71.1-66.6,75.4c-40.5,3.9-76.4-25.8-80.3-66.3c-0.2-2.3-0.3-4.7-0.3-7L232,217.9L232,217.9z"/>
<path class="st2" d="M487.6,489.5h-22.6c-1.7-22.8-6.2-57.1-16.7-79.8c-13.7-29.2-69.4-48.5-105.8-58c6.5-3.7,12.4-8.5,17.4-14.2
	c36.2,9.1,95.8,28.7,110.1,59.1C483,424.3,486.7,469.1,487.6,489.5z"/>
<path class="st3" d="M379.2,220v28.1c0.1,23.7-10.8,46-29.4,60.6c7.3-12.1,11.2-25.9,11.2-40v-28.1c0.4-38.5-28.3-71.1-66.6-75.4
	c-18.6-1.8-37.2,3.6-52,15c14.5-24.5,41.9-38.4,70.2-35.6C350.9,149,379.6,181.6,379.2,220L379.2,220z"/>
<path class="st0" d="M185.5,153.7l5.1,48.4l-51.5-26.6c-8,1.6-16.2,2.4-24.4,2.4c-53.9,0-97.6-34.6-97.6-77.4s43.7-77.4,97.5-77.4
	s97.6,34.6,97.6,77.4C211.7,121.3,201.9,140.8,185.5,153.7L185.5,153.7z"/>
<path class="st2" d="M191.4,148.2c4.5-8.9,6.9-18.7,6.9-28.7c0-42.8-43.7-77.4-97.6-77.4c-28.4-0.6-55.9,10-76.6,29.5
	c14.3-28.5,49.4-48.6,90.4-48.6c53.9,0,97.6,34.6,97.6,77.4C211.9,118.5,204.5,135.7,191.4,148.2z"/>
<g>
	<path d="M73.9,103.1h-7.1c-1.9,0-3.5-1.5-3.5-3.5s1.5-3.5,3.5-3.5h7.1c1.9,0,3.5,1.5,3.5,3.5S75.8,103.1,73.9,103.1z"/>
	<path d="M118.2,103.1h-7.1c-1.9,0-3.5-1.5-3.5-3.5s1.5-3.5,3.5-3.5h7.1c1.9,0,3.5,1.5,3.5,3.5S120.1,103.1,118.2,103.1z"/>
	<path d="M162.5,103.1h-7.1c-1.9,0-3.5-1.5-3.5-3.5s1.5-3.5,3.5-3.5h7.1c1.9,0,3.5,1.5,3.5,3.5S164.4,103.1,162.5,103.1z"/>
	<path d="M487.6,493h-364c-0.9,0-1.9-0.4-2.5-1c-0.7-0.7-1-1.6-1-2.5c0.9-18.7,4.3-65.2,17.9-94.2c15.2-32.1,76.6-51.9,111.8-60.9
		c1.2-0.3,2.5,0.1,3.4,1c15.1,16.4,37.1,24.8,59.3,22.7c17.3-1.6,33.4-9.8,44.9-22.7c0.9-0.9,2.2-1.3,3.4-1
		c35.4,8.9,97.1,28.5,112.4,61c13.5,29.1,17,75.6,17.9,94.3c0.1,1.9-1.4,3.5-3.3,3.6C487.7,493,487.7,493,487.6,493L487.6,493z
		 M127.3,486.1H484c-1.1-20.1-4.8-61.8-17-88c-14.2-30.2-77.2-49.4-105.8-56.7c-12.6,13.4-29.7,21.7-48,23.5
		c-23.6,2.3-47-6.3-63.6-23.3c-28.5,7.4-91.2,26.6-105.3,56.6C132.1,424.3,128.4,466,127.3,486.1z"/>
	<path d="M305.5,327.3c-19.1,0.1-37.6-7.1-51.7-20.1c-16-14.6-25.2-35.3-25.2-57v-32.4c0-21.7,9.2-42.4,25.2-57
		c16-14.7,37.6-21.9,59.2-19.7c40,4.6,70,38.6,69.7,78.9v28.1c0.3,40.2-29.7,74.2-69.7,78.9C310.5,327.2,308,327.3,305.5,327.3z
		 M305.5,147.7c-17.4,0-34.2,6.5-47,18.3c-14.6,13.3-22.9,32.1-22.9,51.9v32.4c0,19.8,8.3,38.6,22.9,51.9
		c14.6,13.4,34.2,19.9,53.9,17.9c36.4-4.3,63.7-35.3,63.4-72V220c0.3-36.7-27-67.7-63.4-72C310,147.8,307.8,147.7,305.5,147.7
		L305.5,147.7L305.5,147.7z"/>
	<path d="M190.6,205.6c-0.6,0-1.1-0.1-1.6-0.4l-50.5-26.1c-7.9,1.5-15.9,2.3-23.9,2.3c-55.7,0-101-36.3-101-80.9s45.3-80.8,101-80.8
		s101,36.3,101,80.8c-0.4,21.2-10.1,41.2-26.5,54.7l4.9,46.6c0.2,1.9-1.2,3.6-3.1,3.8C190.9,205.6,190.7,205.6,190.6,205.6
		L190.6,205.6z M139.1,172c0.6,0,1.1,0.1,1.6,0.4l45.8,23.7l-4.4-42.1c-0.1-1.1,0.3-2.3,1.2-3c15.6-12.2,25-30.8,25.4-50.6
		c0-40.8-42.2-73.9-94.1-73.9s-94.1,33.2-94.1,73.9s42.2,74,94.1,74c8,0,15.9-0.8,23.7-2.4C138.6,172,138.8,172,139.1,172z"/>
</g>
<path class="st4" d="M251.5,240.1c-2.3,0-4.2-1.9-4.2-4.2v-3.7c0-2.3,1.9-4.2,4.2-4.2c2.3,0,4.2,1.9,4.2,4.2v3.7
	C255.7,238.2,253.8,240.1,251.5,240.1L251.5,240.1z"/>
<path class="st4" d="M251.8,220.9c-0.1,0-0.3,0-0.4,0c-2.3-0.2-3.9-2.3-3.7-4.5l0,0c2.5-24.1,19.6-44.2,43-50.5
	c2.2-0.6,4.5,0.7,5.1,3c0.6,2.2-0.7,4.5-3,5.1l0,0c-20.1,5.4-34.7,22.6-36.9,43.3C255.8,219.3,254,220.9,251.8,220.9z"/>
</svg>
