<?xml version="1.0" encoding="utf-8"?>
<!-- Generator: Adobe Illustrator 24.1.0, SVG Export Plug-In . SVG Version: 6.00 Build 0)  -->
<svg version="1.1" id="Layer_1" xmlns="http://www.w3.org/2000/svg" xmlns:xlink="http://www.w3.org/1999/xlink" x="0px" y="0px"
	 viewBox="0 0 512 512" style="enable-background:new 0 0 512 512;" xml:space="preserve">
<style type="text/css">
	.st0{fill:#55CDFF;}
	.st1{fill:#323C6B;}
	.st2{opacity:0.15;}
	.st3{fill:#E4F4FF;}
	.st4{fill:#BBBBCD;}
</style>
<g id="Numbers">
	<text transform="matrix(1 0 0 1 186.7344 -2702.1416)" style="fill:#FF0000; font-family:'ArialMT'; font-size:124.5405px;">10</text>
	<text transform="matrix(1 0 0 1 186.7344 -1844.1963)" style="fill:#FF0000; font-family:'ArialMT'; font-size:124.5405px;">20</text>
	<text transform="matrix(1 0 0 1 186.7344 -986.251)" style="fill:#FF0000; font-family:'ArialMT'; font-size:124.5405px;">30</text>
	<text transform="matrix(1 0 0 1 186.7344 1587.5889)" style="fill:#FF0000; font-family:'ArialMT'; font-size:124.5405px;">60</text>
	<text transform="matrix(1 0 0 1 186.7344 2445.5342)" style="fill:#FF0000; font-family:'ArialMT'; font-size:124.5405px;">70</text>
	<text transform="matrix(1 0 0 1 186.7344 3303.4795)" style="fill:#FF0000; font-family:'ArialMT'; font-size:124.5405px;">80</text>
	<text transform="matrix(1 0 0 1 186.7344 4161.4248)" style="fill:#FF0000; font-family:'ArialMT'; font-size:124.5405px;">90</text>
	<text transform="matrix(1 0 0 1 152.1055 5019.3701)" style="fill:#FF0000; font-family:'ArialMT'; font-size:124.5405px;">100</text>
	
		<text transform="matrix(1 0 0 1 156.7266 5877.3154)" style="fill:#FF0000; font-family:'ArialMT'; font-size:124.5405px; letter-spacing:-8;">1</text>
	<text transform="matrix(1 0 0 1 216.7422 5877.3154)" style="fill:#FF0000; font-family:'ArialMT'; font-size:124.5405px;">10</text>
	<text transform="matrix(1 0 0 1 152.1055 6735.2607)" style="fill:#FF0000; font-family:'ArialMT'; font-size:124.5405px;">120</text>
	<text transform="matrix(1 0 0 1 152.1055 7593.21)" style="fill:#FF0000; font-family:'ArialMT'; font-size:124.5405px;">130</text>
	<text transform="matrix(1 0 0 1 152.1055 8451.1563)" style="fill:#FF0000; font-family:'ArialMT'; font-size:124.5405px;">140</text>
	<text transform="matrix(1 0 0 1 152.1055 9309.1016)" style="fill:#FF0000; font-family:'ArialMT'; font-size:124.5405px;">150</text>
	<text transform="matrix(1 0 0 1 152.1055 10167.0469)" style="fill:#FF0000; font-family:'ArialMT'; font-size:124.5405px;">160</text>
	<text transform="matrix(1 0 0 1 152.1055 11024.9961)" style="fill:#FF0000; font-family:'ArialMT'; font-size:124.5405px;">170</text>
	<text transform="matrix(1 0 0 1 152.1055 11882.9414)" style="fill:#FF0000; font-family:'ArialMT'; font-size:124.5405px;">180</text>
	<text transform="matrix(1 0 0 1 152.1055 12740.8867)" style="fill:#FF0000; font-family:'ArialMT'; font-size:124.5405px;">190</text>
	<text transform="matrix(1 0 0 1 152.1055 13598.832)" style="fill:#FF0000; font-family:'ArialMT'; font-size:124.5405px;">200</text>
	<text transform="matrix(1 0 0 1 152.1055 14456.7773)" style="fill:#FF0000; font-family:'ArialMT'; font-size:124.5405px;">210</text>
	<text transform="matrix(1 0 0 1 152.1055 15314.7227)" style="fill:#FF0000; font-family:'ArialMT'; font-size:124.5405px;">220</text>
	<text transform="matrix(1 0 0 1 152.1055 16172.668)" style="fill:#FF0000; font-family:'ArialMT'; font-size:124.5405px;">230</text>
	<text transform="matrix(1 0 0 1 152.1055 17030.6172)" style="fill:#FF0000; font-family:'ArialMT'; font-size:124.5405px;">240</text>
	<text transform="matrix(1 0 0 1 152.1055 17888.5625)" style="fill:#FF0000; font-family:'ArialMT'; font-size:124.5405px;">250</text>
	<text transform="matrix(1 0 0 1 152.1055 18746.5078)" style="fill:#FF0000; font-family:'ArialMT'; font-size:124.5405px;">260</text>
	<text transform="matrix(1 0 0 1 152.1055 19604.457)" style="fill:#FF0000; font-family:'ArialMT'; font-size:124.5405px;">270</text>
	<text transform="matrix(1 0 0 1 152.1055 20462.4023)" style="fill:#FF0000; font-family:'ArialMT'; font-size:124.5405px;">280</text>
	<text transform="matrix(1 0 0 1 152.1055 21320.3477)" style="fill:#FF0000; font-family:'ArialMT'; font-size:124.5405px;">290</text>
	<text transform="matrix(1 0 0 1 152.1055 22178.293)" style="fill:#FF0000; font-family:'ArialMT'; font-size:124.5405px;">300</text>
</g>
<g id="Layer_5">
	<path class="st0" d="M491.2,117.6c0,42-34.1,76.1-76.1,76.1c-22.8,0-44.4-10.2-58.9-27.9c-9-10.9-14.7-24.1-16.5-38.1
		c-0.5-3.4-0.7-6.8-0.7-10.2c0-42,34.1-76.1,76.1-76.1C457.2,41.5,491.2,75.6,491.2,117.6z"/>
	<path class="st1" d="M415.1,197.2c-39.8,0-73.6-29.5-78.9-68.9c-0.5-3.5-0.7-7.1-0.7-10.6c0-43.9,35.6-79.6,79.6-79.6
		c43.9,0,79.6,35.6,79.6,79.6S459.1,197.2,415.1,197.2z M415.1,45c-40.1,0-72.6,32.5-72.6,72.6c0,3.2,0.2,6.5,0.7,9.7
		c4.9,36.1,35.6,63,72,63c40.1,0,72.6-32.5,72.6-72.6S455.3,45,415.1,45z"/>
	<path class="st2" d="M461.5,57.4c25.6,33.3,19.4,81-13.9,106.6c-27.3,21-65.2,21-92.5,0.1c0.4,0.5,0.8,1.1,1.2,1.7
		c26.5,32.6,74.4,37.5,107,11s37.5-74.4,11-107C470.5,65.2,466.2,61.1,461.5,57.4z"/>
	<path class="st0" d="M491.2,394.4c0,42-34.1,76.1-76.1,76.1c-42,0-76.1-34.1-76.1-76.1c0-1.7,0.1-3.3,0.1-4.9
		c2.5-42,38.6-73.9,80.5-71.4C460,320.5,491.4,354,491.2,394.4z"/>
	<path class="st1" d="M415.1,473.9c-43.9,0-79.5-35.6-79.6-79.6c0-1.6,0.1-3.2,0.1-4.8c2.7-43.9,40.4-77.3,84.3-74.6
		c43.9,2.7,77.3,40.4,74.6,84.3C492,441.2,457.2,473.9,415.1,473.9z M415.1,321.7c-38.3,0-70,29.8-72.5,68c-0.1,1.6-0.1,3.1-0.1,4.7
		c0,40.1,32.5,72.6,72.6,72.6c40.1,0,72.6-32.5,72.6-72.6C487.8,354.3,455.3,321.7,415.1,321.7L415.1,321.7z"/>
	<path class="st2" d="M461.5,334.2c25.5,33.3,19.2,81-14.1,106.6c-27.3,20.9-65.2,20.9-92.5,0c25.4,33.4,73.1,39.9,106.6,14.4
		s39.9-73.1,14.4-106.6C471.8,343.2,466.9,338.3,461.5,334.2z"/>
	<path class="st0" d="M173,256c0,3.9-0.3,7.7-0.9,11.6c-6.4,41.6-45.3,70.1-86.9,63.8c-41.6-6.4-70.1-45.3-63.8-86.9
		c6.4-41.6,45.3-70.1,86.9-63.8c33.4,5.1,59.5,31.7,64,65.2C172.8,249.2,173,252.6,173,256z"/>
	<path class="st1" d="M96.9,335.6c-43.9,0-79.6-35.6-79.6-79.6c0-43.9,35.6-79.6,79.6-79.6c39.9,0,73.6,29.5,78.9,69
		c1,7.5,0.9,15.2-0.2,22.7C169.6,306.9,136.2,335.6,96.9,335.6z M96.9,183.4c-40.1,0-72.7,32.5-72.7,72.6
		c0,40.1,32.5,72.7,72.6,72.7c35.9,0,66.4-26.2,71.9-61.6c1.1-6.8,1.1-13.8,0.2-20.6C164.1,210.3,133.3,183.3,96.9,183.4z"/>
	<path class="st2" d="M172.3,245.9c-1.8-14-7.6-27.2-16.5-38.1c-3.7-4.5-8-8.6-12.6-12.2c8.3,10.6,13.6,23.1,15.3,36.4
		c0.5,3.3,0.7,6.7,0.7,10.1c0,3.9-0.3,7.7-0.9,11.6c-6.3,41.5-45.1,70-86.6,63.6c-12.8-1.9-24.8-7.1-35-15
		c25.6,33.3,73.3,39.5,106.6,14c15.5-11.9,25.9-29.4,28.8-48.8c0.6-3.8,0.9-7.7,0.9-11.6C173,252.6,172.8,249.2,172.3,245.9z"/>
	<path class="st3" d="M356.3,165.8l-184,80.1c-1.8-14-7.6-27.2-16.5-38.1l184-80C341.6,141.8,347.3,155,356.3,165.8z"/>
	<path class="st1" d="M172.3,249.4c-1.7,0-3.2-1.3-3.5-3c-1.8-13.4-7.2-26-15.8-36.4c-1.2-1.5-1-3.7,0.5-4.9
		c0.2-0.2,0.5-0.4,0.8-0.5l184-80c1.7-0.8,3.8,0,4.6,1.7c0.1,0.3,0.2,0.6,0.3,1c1.8,13.3,7.2,25.9,15.8,36.3c1.2,1.5,1,3.7-0.5,4.9
		c-0.2,0.2-0.5,0.4-0.8,0.5l-184,80.1C173.2,249.3,172.8,249.4,172.3,249.4z M161.2,209.2c6.9,9.4,11.6,20.3,13.8,31.8l175.8-76.5
		c-6.9-9.4-11.6-20.2-13.8-31.7L161.2,209.2z"/>
	<path class="st2" d="M347.8,152.7l-179.3,78c1.8,4.9,3.1,10,3.8,15.2l184-80.1C353,161.8,350.1,157.4,347.8,152.7z"/>
	<path class="st4" d="M344.2,144.8c-2.2-5.5-3.7-11.2-4.5-17l-3.1,1.3C338.5,134.6,341.1,139.9,344.2,144.8z"/>
	<path class="st4" d="M157.3,207.1l-1.6,0.7c1.8,2.3,3.6,4.7,5.1,7.2C159.8,212.3,158.6,209.7,157.3,207.1z"/>
	<path class="st3" d="M353.2,350.2c-8.3,11.5-13.1,25.1-14,39.3l-184.3-84.1c9.1-10.8,15.1-23.8,17.2-37.8L353.2,350.2z"/>
	<path class="st1" d="M339.2,392.9c-0.5,0-1-0.1-1.4-0.3l-184.3-84.1c-1-0.5-1.7-1.3-1.9-2.4c-0.2-1.1,0-2.2,0.7-3
		c8.7-10.3,14.4-22.7,16.4-36c0.3-1.9,2-3.2,3.9-2.9c0.3,0,0.6,0.1,0.9,0.3L354.6,347c1.7,0.8,2.5,2.8,1.7,4.6
		c-0.1,0.2-0.2,0.4-0.3,0.6c-7.9,11-12.5,24-13.4,37.5C342.5,391.5,341,393,339.2,392.9L339.2,392.9z M160.3,304l175.9,80.3
		c1.5-11.6,5.5-22.8,11.8-32.7l-173.3-79.1C172.3,284,167.4,294.7,160.3,304z"/>
	<path class="st4" d="M174.9,268.8l-2.8-1.3c-0.9,5.5-2.4,10.8-4.4,16C170.6,278.9,173,274,174.9,268.8z"/>
	<path class="st4" d="M350.6,354.4c0.9-1.4,1.7-2.9,2.6-4.2l-0.6-0.3C351.9,351.4,351.2,352.9,350.6,354.4z"/>
	<path class="st2" d="M163.5,292.3c-2.5,4.6-5.4,9-8.7,13l184.3,84.1c0.4-5.3,1.4-10.6,2.9-15.7L163.5,292.3z"/>
	<path d="M415.1,197.2c-39.8,0-73.6-29.5-78.9-68.9c-0.5-3.5-0.7-7.1-0.7-10.6c0-43.9,35.6-79.6,79.6-79.6
		c43.9,0,79.6,35.6,79.6,79.6S459.1,197.2,415.1,197.2z M415.1,45c-40.1,0-72.6,32.5-72.6,72.6c0,3.2,0.2,6.5,0.7,9.7
		c4.9,36.1,35.6,63,72,63c40.1,0,72.6-32.5,72.6-72.6S455.3,45,415.1,45z"/>
	<path d="M415.1,473.9c-43.9,0-79.5-35.6-79.6-79.6c0-1.6,0.1-3.2,0.1-4.8c2.7-43.9,40.4-77.3,84.3-74.6
		c43.9,2.7,77.3,40.4,74.6,84.3C492,441.2,457.2,473.9,415.1,473.9z M415.1,321.7c-38.3,0-70,29.8-72.5,68c-0.1,1.6-0.1,3.1-0.1,4.7
		c0,40.1,32.5,72.6,72.6,72.6c40.1,0,72.6-32.5,72.6-72.6C487.8,354.3,455.3,321.7,415.1,321.7L415.1,321.7z"/>
	<path d="M96.9,335.6c-43.9,0-79.6-35.6-79.6-79.6c0-43.9,35.6-79.6,79.6-79.6c39.9,0,73.6,29.5,78.9,69c1,7.5,0.9,15.2-0.2,22.7
		C169.6,306.9,136.2,335.6,96.9,335.6z M96.9,183.4c-40.1,0-72.7,32.5-72.7,72.6c0,40.1,32.5,72.7,72.6,72.7
		c35.9,0,66.4-26.2,71.9-61.6c1.1-6.8,1.1-13.8,0.2-20.6C164.1,210.3,133.3,183.3,96.9,183.4z"/>
	<path d="M172.3,249.4c-1.7,0-3.2-1.3-3.5-3c-1.8-13.4-7.2-26-15.8-36.4c-1.2-1.5-1-3.7,0.5-4.9c0.2-0.2,0.5-0.4,0.8-0.5l184-80
		c1.7-0.8,3.8,0,4.6,1.7c0.1,0.3,0.2,0.6,0.3,1c1.8,13.3,7.2,25.9,15.8,36.3c1.2,1.5,1,3.7-0.5,4.9c-0.2,0.2-0.5,0.4-0.8,0.5
		l-184,80.1C173.2,249.3,172.8,249.4,172.3,249.4z M161.2,209.2c6.9,9.4,11.6,20.3,13.8,31.8l175.8-76.5
		c-6.9-9.4-11.6-20.2-13.8-31.7L161.2,209.2z"/>
	<path d="M339.2,392.9c-0.5,0-1-0.1-1.4-0.3l-184.3-84.1c-1-0.5-1.7-1.3-1.9-2.4c-0.2-1.1,0-2.2,0.7-3c8.7-10.3,14.4-22.7,16.4-36
		c0.3-1.9,2-3.2,3.9-2.9c0.3,0,0.6,0.1,0.9,0.3L354.6,347c1.7,0.8,2.5,2.8,1.7,4.6c-0.1,0.2-0.2,0.4-0.3,0.6
		c-7.9,11-12.5,24-13.4,37.5C342.5,391.5,341,393,339.2,392.9L339.2,392.9z M160.3,304l175.9,80.3c1.5-11.6,5.5-22.8,11.8-32.7
		l-173.3-79.1C172.3,284,167.4,294.7,160.3,304z"/>
</g>
</svg>
