<?xml version="1.0" encoding="utf-8"?>
<!-- Generator: Adobe Illustrator 24.1.0, SVG Export Plug-In . SVG Version: 6.00 Build 0)  -->
<svg version="1.1" id="color_line" xmlns="http://www.w3.org/2000/svg" xmlns:xlink="http://www.w3.org/1999/xlink" x="0px" y="0px"
	 viewBox="0 0 512 512" style="enable-background:new 0 0 512 512;" xml:space="preserve">
<style type="text/css">
	.st0{fill:#55CDFF;}
	.st1{opacity:0.15;}
	.st2{fill:#FFFFFF;}
</style>
<path class="st0" d="M451.2,106.9l40.1,6v273.7c0,10.4-8.4,18.8-18.8,18.9H297.8c-0.4,23.1-19.5,41.5-42.6,41
	c-22.5-0.4-40.6-18.5-41-41H39.6c-10.4,0-18.8-8.5-18.8-18.9V112.9l40.1-6"/>
<path class="st1" d="M209.7,388.8c0.1,5.8,1.4,11.5,3.9,16.7h-174c-9.6,0-17.6-7.2-18.7-16.7c0.5,0.1,0.9,0.1,1.4,0.1H209.7z"/>
<path class="st1" d="M491.2,112.9v273.6c0,10.4-8.4,18.8-18.8,18.9H297.8c-0.5,23.1-19.6,41.4-42.7,40.9
	c-14.8-0.3-28.4-8.4-35.6-21.4c20.6,10.6,45.8,2.5,56.4-18.1c2.9-5.6,4.5-11.8,4.6-18.2h174.6c10.4-0.1,18.8-8.5,18.8-18.9V110.3
	L491.2,112.9z"/>
<path class="st2" d="M256,386.6c-38.6-33.5-118.5-44-195.1-29.9v-289c76.6-14.1,156.5-3.6,195.1,29.9V386.6z"/>
<path class="st2" d="M256,386.6c38.6-33.5,118.5-44,195.1-29.9v-289C374.5,53.6,294.6,64.1,256,97.6V386.6z"/>
<path class="st1" d="M451.1,67.7v21.4C384.8,73.1,294.6,73.3,256,106.9v-9.3C294.6,64.1,374.5,53.6,451.1,67.7L451.1,67.7z"/>
<path class="st1" d="M60.9,67.7v21.4c66.3-16.1,156.5-15.8,195.1,17.8v-9.3C217.4,64.1,137.5,53.6,60.9,67.7L60.9,67.7z"/>
<g>
	<path d="M150.6,188h-29.1c-1.2,0-2.4-0.7-3-1.7L103.9,161c-0.6-1.1-0.6-2.4,0-3.5l14.5-25.2c0.6-1.1,1.8-1.7,3-1.7h29.1
		c1.2,0,2.4,0.7,3,1.7l14.5,25.2c0.6,1.1,0.6,2.4,0,3.5l-14.5,25.2C152.9,187.3,151.8,188,150.6,188L150.6,188z M123.4,181.1h25.1
		l12.6-21.7l-12.6-21.7h-25.1l-12.6,21.7L123.4,181.1z"/>
	<path d="M194.2,213.2H165c-1.2,0-2.4-0.7-3-1.7l-14.5-25.2c-0.6-1.1-0.6-2.4,0-3.5l14.5-25.2c0.6-1.1,1.8-1.7,3-1.7h29.1
		c1.2,0,2.4,0.7,3,1.7l14.5,25.2c0.6,1.1,0.6,2.4,0,3.5l-14.5,25.2C196.5,212.5,195.4,213.2,194.2,213.2z M167,206.3h25.1l12.6-21.8
		l-12.6-21.7H167l-12.6,21.7L167,206.3z"/>
	<path d="M121.4,137.6c-1.2,0-2.3-0.6-3-1.7l-9.6-15.7c-1-1.6-0.5-3.8,1.2-4.8c1.6-1,3.8-0.5,4.8,1.2l9.6,15.7
		c1,1.6,0.5,3.8-1.1,4.8c0,0,0,0,0,0C122.7,137.4,122.1,137.6,121.4,137.6z"/>
	<path d="M150.6,137.6c-0.6,0-1.3-0.2-1.8-0.5c-1.6-1-2.1-3.1-1.1-4.8l9.6-15.7c1-1.6,3.1-2.1,4.8-1.2c1.6,1,2.1,3.1,1.2,4.8
		l-9.6,15.7C152.9,136.9,151.8,137.6,150.6,137.6z"/>
	<path d="M108.2,162.8H91.3c-1.9,0-3.5-1.5-3.5-3.5s1.5-3.5,3.5-3.5h16.8c1.9,0,3.5,1.5,3.5,3.5S110.1,162.8,108.2,162.8
		L108.2,162.8z"/>
	<path d="M203.7,228.9c-1.2,0-2.3-0.6-3-1.7l-9.6-15.7c-1-1.6-0.5-3.8,1.2-4.8c1.6-1,3.8-0.5,4.8,1.2l0,0l9.6,15.7
		c1,1.6,0.5,3.8-1.1,4.8c0,0,0,0,0,0C205,228.7,204.4,228.9,203.7,228.9z"/>
	<path d="M155.4,228.9c-0.6,0-1.3-0.2-1.8-0.5c-1.6-1-2.1-3.1-1.1-4.8l9.6-15.7c1-1.6,3.1-2.1,4.8-1.2c1.6,1,2.1,3.1,1.2,4.8
		l-9.6,15.7C157.7,228.2,156.6,228.9,155.4,228.9z"/>
	<path d="M225.6,188h-16.9c-1.9,0-3.5-1.5-3.5-3.5s1.5-3.5,3.5-3.5h16.9c1.9,0,3.5,1.5,3.5,3.5S227.5,188,225.6,188z"/>
	<path d="M217.1,305.7c-0.6,0-1.2-0.2-1.7-0.5c-55-31.8-118.2-17.1-118.9-16.9c-1.8,0.5-3.7-0.6-4.2-2.5s0.6-3.7,2.5-4.2
		c0,0,0.1,0,0.1,0c2.7-0.6,66.5-15.5,124,17.7c1.7,1,2.2,3.1,1.3,4.7C219.5,305,218.4,305.7,217.1,305.7z"/>
	<path d="M294.9,305.7c-1.9,0-3.5-1.5-3.5-3.5c0-1.2,0.7-2.4,1.7-3c57.5-33.2,121.3-18.3,124-17.6c1.9,0.4,3.1,2.3,2.6,4.1
		c-0.4,1.9-2.3,3.1-4.1,2.6c0,0-0.1,0-0.1,0c-0.6-0.2-63.9-14.8-118.9,16.9C296.1,305.6,295.5,305.7,294.9,305.7z"/>
	<path d="M294.9,226.9c-1.9,0-3.5-1.5-3.5-3.5c0-1.2,0.7-2.4,1.7-3c57.4-33.2,121.3-18.3,124-17.7c1.9,0.4,3.1,2.3,2.6,4.1
		c-0.4,1.9-2.3,3.1-4.1,2.6c0,0-0.1,0-0.1,0c-0.6-0.2-63.9-14.8-118.9,16.9C296.1,226.7,295.5,226.9,294.9,226.9z"/>
	<path d="M294.9,148.1c-1.9,0-3.5-1.5-3.5-3.5c0-1.2,0.7-2.4,1.7-3c57.4-33.2,121.3-18.3,124-17.7c1.9,0.4,3.1,2.3,2.6,4.1
		c-0.4,1.9-2.3,3.1-4.1,2.6c0,0-0.1,0-0.1,0c-0.6-0.2-63.9-14.8-118.9,16.9C296.1,147.9,295.5,148.1,294.9,148.1z"/>
	<path d="M256,449.9c-23.3-0.1-42.8-17.8-45.1-41H39.6c-12.3,0-22.3-10-22.3-22.3V112.9c0-1.7,1.3-3.2,2.9-3.4l40.1-6
		c1.9-0.3,3.6,1,3.9,2.9c0.3,1.9-1,3.7-2.9,3.9c0,0,0,0,0,0l-37.1,5.6v270.7c0,8.5,6.9,15.4,15.4,15.4h174.6c1.9,0,3.4,1.5,3.5,3.4
		c0.4,21.2,17.9,38,39.1,37.6c20.6-0.4,37.2-17,37.6-37.6c0-1.9,1.6-3.4,3.5-3.4h174.6c8.5,0,15.4-6.9,15.4-15.4V115.9l-37.1-5.6
		c-1.9-0.3-3.2-2-2.9-3.9c0.3-1.9,2-3.2,3.9-2.9l40.1,6c1.7,0.3,2.9,1.7,2.9,3.4v273.7c0,12.3-10,22.3-22.3,22.3H301.1
		C298.7,432.1,279.3,449.8,256,449.9L256,449.9z"/>
	<path d="M256,390c-1.9,0-3.5-1.5-3.5-3.5v-289c0-1,0.4-2,1.2-2.6c38.2-33.1,117.7-45.5,198-30.7c1.6,0.3,2.8,1.7,2.8,3.4v289
		c0,1-0.5,2-1.2,2.7c-0.8,0.6-1.8,0.9-2.8,0.7c-78.3-14.4-155.6-2.7-192.2,29.1C257.6,389.7,256.8,390,256,390L256,390z M259.5,99.2
		v280.2c39.3-29.1,113.2-39.8,188.2-26.8v-282C371.2,57.1,296.1,68.5,259.5,99.2L259.5,99.2z"/>
	<path d="M256,390c-0.8,0-1.6-0.3-2.3-0.9c-36.7-31.8-113.9-43.5-192.2-29.1c-1.9,0.3-3.7-0.9-4-2.8c0-0.2-0.1-0.4-0.1-0.6v-289
		c0-1.7,1.2-3.1,2.8-3.4c80.3-14.8,159.9-2.4,198,30.7c0.8,0.7,1.2,1.6,1.2,2.6v289C259.5,388.5,257.9,390,256,390L256,390L256,390z
		 M127,347.1c51.4,0,97.4,11.4,125.5,32.3V99.2c-36.7-30.7-111.7-42-188.2-28.6v282C85,349,106,347.1,127,347.1z"/>
</g>
<g>
	<path class="st2" d="M38.2,210.9c1.6-1.6,4.3-1.6,5.9,0c0.8,0.8,1.2,1.8,1.2,2.9l-0.1,46c0,2.3-1.9,4.2-4.2,4.2
		c-2.3,0-4.2-1.9-4.2-4.2l0.1-46C37,212.8,37.4,211.7,38.2,210.9z"/>
	<path class="st2" d="M38.1,270c1.6-1.6,4.3-1.6,5.9,0c0.8,0.8,1.2,1.8,1.2,2.9v2.4c0,2.3-1.9,4.1-4.2,4.1c-2.3,0-4.2-1.9-4.2-4.1
		V273C36.9,271.9,37.4,270.8,38.1,270z"/>
</g>
</svg>
