<?xml version="1.0" encoding="utf-8"?>
<!-- Generator: Adobe Illustrator 24.1.0, SVG Export Plug-In . SVG Version: 6.00 Build 0)  -->
<svg version="1.1" id="line_color" xmlns="http://www.w3.org/2000/svg" xmlns:xlink="http://www.w3.org/1999/xlink" x="0px" y="0px"
	 viewBox="0 0 512 512" style="enable-background:new 0 0 512 512;" xml:space="preserve">
<style type="text/css">
	.st0{fill:#55CDFF;}
	.st1{opacity:0.15;}
	.st2{fill:#E4F4FF;}
	.st3{fill:#FFFFFF;}
	.st4{fill:#323C6B;}
</style>
<path class="st0" d="M451.6,122.9v72.9c-2.8,0-5.5,0.3-8.2,0.8c-18.5,4.2-31.6,20.8-31.3,39.9v112.8H100V235.4
	c0-21.9-17.7-39.6-39.6-39.6v-72.9c0-37.9,30.6-68.6,68.5-68.6h254.2C421,54.3,451.6,85,451.6,122.9L451.6,122.9z"/>
<path class="st1" d="M451.6,122.9v72.9c-2.8,0-5.5,0.3-8.2,0.8c-4.9,1-9.6,3-13.7,5.9v-56.4c0-37.9-30.6-68.6-68.5-68.6H107
	c-11.9-0.1-23.6,3.1-33.9,9.1c-0.1,0-0.2,0-0.2,0.1c-0.8,0.3-1.7,0.6-2.6,0.9c12.3-20.6,34.6-33.3,58.6-33.3h254.2
	C421,54.3,451.6,85,451.6,122.9z"/>
<path class="st2" d="M491.2,235.4v147.9c0,21.9-17.7,39.6-39.6,39.6c0,0,0,0,0,0H60.4c-21.9,0-39.6-17.7-39.6-39.6c0,0,0,0,0,0
	V236.4c-0.3-19,12.8-35.6,31.3-39.9c2.7-0.5,5.5-0.8,8.3-0.8c21.9,0,39.6,17.8,39.6,39.6v113.9h312V236.4
	c-0.3-19,12.8-35.6,31.3-39.9c2.7-0.5,5.5-0.8,8.2-0.8C473.5,195.8,491.2,213.5,491.2,235.4L491.2,235.4z"/>
<path class="st1" d="M491.2,235.4v147.9c0,21.9-17.7,39.6-39.6,39.6c0,0,0,0,0,0H60.4c-15.8,0-30-9.4-36.3-23.8
	c4,1.4,8.3,2.1,12.5,2.1h391.2c21.9,0,39.6-17.7,39.6-39.6c0,0,0,0,0,0V213.6c0-5.4-1.1-10.8-3.3-15.8
	C480.3,203.2,491.2,218.4,491.2,235.4z"/>
<path class="st0" d="M366,301.6H149.3c-26.3,0-47.6,21.3-47.6,47.6h312C413.7,322.9,392.4,301.6,366,301.6
	C366,301.6,366,301.6,366,301.6z"/>
<path d="M413.6,352.7h-312c-1.9,0-3.5-1.5-3.5-3.5c0.1-28.2,22.9-51.1,51.1-51.1H366c28.2,0.1,51.1,22.9,51.1,51.1
	C417.1,351.2,415.6,352.7,413.6,352.7C413.7,352.7,413.6,352.7,413.6,352.7z M105.3,345.8h304.8c-1.8-23-21-40.7-44-40.7H149.3
	C126.3,305.1,107.1,322.8,105.3,345.8L105.3,345.8z"/>
<path class="st3" d="M87.8,454.1H62.3v-31.2h51L87.8,454.1z"/>
<path d="M87.9,457.5H62.3c-1.9,0-3.5-1.5-3.5-3.5v-31.2c0-1.9,1.5-3.5,3.5-3.5h51c1.9,0,3.5,1.6,3.5,3.5c0,0.8-0.3,1.6-0.8,2.2
	l-25.5,31.2C89.9,457,88.9,457.5,87.9,457.5z M65.8,450.6h20.4l19.9-24.3H65.8L65.8,450.6z"/>
<path class="st3" d="M424.1,454.1h25.5v-31.2h-51L424.1,454.1z"/>
<g>
	<path d="M449.7,457.5h-25.5c-1,0-2-0.5-2.7-1.3l-25.5-31.2c-1.2-1.5-1-3.7,0.5-4.9c0.6-0.5,1.4-0.8,2.2-0.8h51
		c1.9,0,3.5,1.5,3.5,3.5v31.2C453.1,456,451.6,457.5,449.7,457.5z M425.8,450.6h20.4v-24.3h-40.3L425.8,450.6z"/>
	<path d="M168.8,145.6c-0.9,0-1.8-0.4-2.4-1L146.7,125c-1.4-1.3-1.4-3.5-0.1-4.9c1.3-1.4,3.5-1.4,4.9-0.1c0,0,0.1,0.1,0.1,0.1
		l19.6,19.6c1.4,1.3,1.4,3.5,0,4.9C170.6,145.2,169.7,145.6,168.8,145.6z"/>
	<path d="M149.2,145.6c-1.9,0-3.5-1.5-3.5-3.5c0-0.9,0.4-1.8,1-2.5l19.6-19.6c1.3-1.4,3.5-1.4,4.9-0.1c1.4,1.3,1.4,3.5,0.1,4.9
		c0,0-0.1,0.1-0.1,0.1l-19.6,19.6C151,145.2,150.1,145.6,149.2,145.6z"/>
	<path d="M265.8,145.6c-0.9,0-1.8-0.4-2.4-1L243.7,125c-1.3-1.4-1.3-3.6,0.1-4.9c1.3-1.3,3.5-1.3,4.8,0l19.6,19.6
		c1.4,1.3,1.4,3.5,0,4.9C267.6,145.2,266.7,145.6,265.8,145.6z"/>
	<path d="M246.2,145.6c-1.9,0-3.5-1.5-3.5-3.5c0-0.9,0.4-1.8,1-2.4l19.6-19.6c1.4-1.3,3.6-1.3,4.9,0.1c1.3,1.3,1.3,3.5,0,4.8
		l-19.6,19.6C248,145.2,247.1,145.6,246.2,145.6L246.2,145.6z"/>
	<path d="M217.3,219.1c-0.9,0-1.8-0.4-2.4-1l-19.6-19.6c-1.4-1.3-1.4-3.5-0.1-4.9c1.3-1.4,3.5-1.4,4.9-0.1c0,0,0.1,0.1,0.1,0.1
		l19.6,19.6c1.4,1.3,1.4,3.5,0,4.9C219.1,218.7,218.2,219.1,217.3,219.1z"/>
	<path d="M197.7,219.1c-1.9,0-3.5-1.6-3.5-3.5c0-0.9,0.4-1.8,1-2.4l19.6-19.6c1.3-1.4,3.5-1.4,4.9-0.1c1.4,1.3,1.4,3.5,0.1,4.9
		c0,0-0.1,0.1-0.1,0.1L200.1,218C199.5,218.7,198.6,219.1,197.7,219.1z"/>
	<path d="M314.3,219.1c-0.9,0-1.8-0.4-2.4-1l-19.6-19.6c-1.3-1.4-1.3-3.6,0.1-4.9c1.3-1.3,3.5-1.3,4.8,0l19.6,19.6
		c1.4,1.3,1.4,3.5,0,4.9C316.1,218.7,315.2,219.1,314.3,219.1z"/>
	<path d="M294.7,219.1c-1.9,0-3.5-1.5-3.5-3.5c0-0.9,0.4-1.8,1-2.5l19.6-19.6c1.4-1.3,3.6-1.3,4.9,0.1c1.3,1.3,1.3,3.5,0,4.8
		L297.1,218C296.5,218.7,295.6,219.1,294.7,219.1z"/>
	<path d="M362.8,145.6c-0.9,0-1.8-0.4-2.4-1L340.7,125c-1.3-1.4-1.3-3.6,0.1-4.9c1.3-1.3,3.5-1.3,4.8,0l19.6,19.6
		c1.4,1.3,1.4,3.5,0,4.9C364.6,145.2,363.7,145.6,362.8,145.6z"/>
	<path d="M343.2,145.6c-1.9,0-3.5-1.5-3.5-3.5c0-0.9,0.4-1.8,1-2.5l19.6-19.6c1.3-1.4,3.5-1.4,4.9-0.1c1.4,1.3,1.4,3.5,0.1,4.9
		c0,0-0.1,0.1-0.1,0.1l-19.6,19.6C345,145.2,344.1,145.6,343.2,145.6z"/>
	<path class="st4" d="M412,352.7H100c-1.9,0-3.5-1.5-3.5-3.5V235.4c0-19.9-16.2-36.1-36.1-36.2c-1.9,0-3.5-1.5-3.5-3.5v-72.9
		c0-39.8,32.2-72,72-72.1h254.2c39.8,0.1,71.9,32.3,72,72.1v72.9c0,1.9-1.5,3.5-3.5,3.5c-2.5,0-5.1,0.3-7.6,0.8
		c-16.9,3.9-28.8,19.1-28.6,36.5v112.8C415.5,351.2,413.9,352.7,412,352.7L412,352.7z M103.4,345.8h305.1V236.4
		c-0.3-20.7,13.9-38.7,34.1-43.2c1.8-0.4,3.6-0.6,5.5-0.8v-69.5c0-35.9-29.1-65.1-65-65.2H128.9c-35.9,0.1-65,29.2-65,65.2v69.5
		c22.3,1.9,39.5,20.5,39.6,43V345.8z"/>
</g>
<path class="st3" d="M88.1,127.4c-2.5,0-4.5-2-4.5-4.5c0-25.1,20.3-45.4,45.3-45.5h3.3c2.5,0,4.5,2,4.5,4.5s-2,4.5-4.5,4.5h-3.3
	c-20.1,0.1-36.3,16.4-36.3,36.5C92.6,125.4,90.6,127.4,88.1,127.4C88.1,127.4,88.1,127.4,88.1,127.4L88.1,127.4z"/>
<path class="st3" d="M160.3,86.4h-4.1c-2.5,0-4.5-2-4.5-4.5s2-4.5,4.5-4.5l0,0h4.1c2.5,0,4.5,2,4.5,4.5S162.7,86.4,160.3,86.4z"/>
<path d="M451.6,426.3H60.4c-23.8,0-43.1-19.3-43.1-43.1V236.4c-0.3-20.7,14-38.7,34.1-43.2c3-0.6,6-0.9,9-0.9
	c23.8,0.1,43,19.3,43,43.1v110.4h305.1V236.4c-0.6-23.8,18.2-43.6,42-44.2c23.8-0.6,43.6,18.2,44.2,42c0,0.4,0,0.8,0,1.1v147.9
	C494.7,407,475.4,426.3,451.6,426.3L451.6,426.3z M60.4,199.2c-2.6,0-5.1,0.3-7.6,0.8c-16.9,3.9-28.9,19.1-28.6,36.5v146.8
	c0,20,16.2,36.2,36.2,36.2h391.2c20,0,36.2-16.2,36.2-36.2V235.4c-0.1-20.1-16.5-36.3-36.6-36.2c-2.4,0-4.8,0.3-7.1,0.7
	c-16.9,3.9-28.8,19.1-28.6,36.5v112.8c0,1.9-1.5,3.5-3.5,3.5H100c-1.9,0-3.5-1.5-3.5-3.5V235.4C96.5,215.4,80.3,199.3,60.4,199.2
	L60.4,199.2z"/>
</svg>
