<?xml version="1.0" encoding="utf-8"?>
<!-- Generator: Adobe Illustrator 16.0.0, SVG Export Plug-In . SVG Version: 6.00 Build 0)  -->
<!DOCTYPE svg PUBLIC "-//W3C//DTD SVG 1.1//EN" "http://www.w3.org/Graphics/SVG/1.1/DTD/svg11.dtd">
<svg version="1.1" id="Layer_1" xmlns="http://www.w3.org/2000/svg" xmlns:xlink="http://www.w3.org/1999/xlink" x="0px" y="0px"
	 width="30px" height="30px" viewBox="-7 -7 30 30" enable-background="new -7 -7 30 30" xml:space="preserve">
<path fill="#FFFFFF" d="M-6.372-6.372c0.835-0.837,2.193-0.839,3.03-0.004C-3.34-6.374-3.34-6.374-3.337-6.372L8.001,4.971
	L19.342-6.372c0.837-0.837,2.193-0.837,3.03,0s0.837,2.197,0,3.034L11.031,8.001l11.341,11.341c0.837,0.837,0.837,2.193,0,3.03
	s-2.193,0.837-3.03,0L8.001,11.031L-3.337,22.372c-0.837,0.837-2.197,0.837-3.034,0s-0.837-2.193,0-3.03L4.971,8.001L-6.372-3.337
	C-7.208-4.172-7.21-5.53-6.376-6.367C-6.374-6.37-6.374-6.37-6.372-6.372z"/>
</svg>
