<?xml version="1.0" encoding="utf-8"?>
<!-- Generator: Adobe Illustrator 24.1.2, SVG Export Plug-In . SVG Version: 6.00 Build 0)  -->
<svg version="1.1" id="Layer_1" xmlns="http://www.w3.org/2000/svg" xmlns:xlink="http://www.w3.org/1999/xlink" x="0px" y="0px"
	 viewBox="0 0 309.2 308.9" style="enable-background:new 0 0 309.2 308.9;" xml:space="preserve">
<style type="text/css">
	.st0{fill:#F61C0D;}
</style>
<g>
	<path class="st0" d="M1,203.2c0-32.5,0-65,0-97.4c0.5-3.2,0.9-6.5,1.6-9.7C9.8,65.6,34.8,45.7,66,45.7c59.3-0.1,118.7,0,178,0
		c4.9,0,9.9,0.4,14.6,1.5c30.1,7,50,31.9,50.2,62.9c0.2,29.6,0.1,59.1,0,88.7c0,11.4-2.5,22.3-8.4,32.2
		c-12.8,21.3-31.8,32.2-56.7,32.2c-59.1,0.1-118.3,0-177.4,0c-1.5,0-3,0-4.5-0.1c-27.6-1.3-51.6-20.7-58.4-47.4
		C2.4,211.7,1.8,207.4,1,203.2z M112.6,154.6c0,13,0,26.1,0,39.1c0,5.7,1.9,6.9,7,4.5c26.7-12.7,53.5-25.5,80.2-38.3
		c1.6-0.8,3.6-2.7,3.6-4c0-1.4-2-3.3-3.6-4.1c-26.7-13.7-53.5-27.2-80.3-40.8c-4.8-2.4-6.9-1.1-6.9,4.3
		C112.6,128.3,112.6,141.5,112.6,154.6z"/>
</g>
</svg>
