<?xml version="1.0" encoding="utf-8"?>
<!-- Generator: Adobe Illustrator 16.0.0, SVG Export Plug-In . SVG Version: 6.00 Build 0)  -->
<!DOCTYPE svg PUBLIC "-//W3C//DTD SVG 1.1//EN" "http://www.w3.org/Graphics/SVG/1.1/DTD/svg11.dtd">
<svg version="1.1" id="Capa_1" xmlns="http://www.w3.org/2000/svg" xmlns:xlink="http://www.w3.org/1999/xlink" x="0px" y="0px"
	 width="512px" height="512px" viewBox="0 0 512 512" enable-background="new 0 0 512 512" xml:space="preserve">
<g>
	<g>
		<g>
			<path fill="#55CDFF" d="M331.908,189.345l-56.758,89.892l87.224,162.009h128.581L331.908,189.345z"/>
		</g>
	</g>
	<g>
		<path d="M502,431.245H368.347L208.791,134.883h57.4c3.41,0,6.586-1.739,8.425-4.613c1.838-2.874,2.084-6.487,0.651-9.583
			l-10.57-22.867l10.57-22.868c1.433-3.096,1.186-6.709-0.651-9.583c-1.839-2.874-5.015-4.613-8.425-4.613h-69.615
			c-5.523,0-10,4.477-10,10l0.133,60.261L25.072,431.245H10c-5.523,0-10,4.477-10,10c0,5.522,4.477,10,10,10h492
			c5.521,0,10-4.478,10-10C512,435.722,507.521,431.245,502,431.245z M196.709,154.633l48.202,89.532l-1.977,5.422
			c-1.813,4.97-6.01,8.463-11.227,9.342c-5.218,0.88-10.327-1.044-13.669-5.146l-20.395-25.031
			c-1.774-2.178-4.383-3.509-7.188-3.667c-2.805-0.159-5.547,0.87-7.556,2.834l-14.756,14.428c-2.941,2.876-6.828,4.335-10.93,4.117
			c-3.076-0.165-5.926-1.256-8.261-3.127L196.709,154.633z M250.552,80.755l-5.948,12.868c-1.23,2.662-1.23,5.73,0,8.392
			l5.948,12.867H206.71V85.564c0-0.555-0.046-1.099-0.133-1.629v-3.18H250.552z M47.787,431.245l91.63-170.194
			c4.974,3.174,10.735,5.063,16.724,5.385c9.617,0.519,19.095-3.05,25.986-9.787l6.928-6.775l13.48,16.544
			c6.677,8.194,16.32,12.731,26.591,12.731c1.951,0,3.927-0.164,5.907-0.498c8.78-1.479,16.344-6.072,21.544-12.82l89.057,165.416
			L47.787,431.245L47.787,431.245z"/>
	</g>
</g>
</svg>
