<?xml version="1.0" encoding="utf-8"?>
<!-- Generator: Adobe Illustrator 16.0.0, SVG Export Plug-In . SVG Version: 6.00 Build 0)  -->
<!DOCTYPE svg PUBLIC "-//W3C//DTD SVG 1.1//EN" "http://www.w3.org/Graphics/SVG/1.1/DTD/svg11.dtd">
<svg version="1.1" id="Capa_1" xmlns="http://www.w3.org/2000/svg" xmlns:xlink="http://www.w3.org/1999/xlink" x="0px" y="0px"
	 width="512px" height="512px" viewBox="0 0 512 512" enable-background="new 0 0 512 512" xml:space="preserve">
<g>
	<g>
		<ellipse fill="#55CDFF" cx="255.948" cy="225.2" rx="74.48" ry="74.48"/>
	</g>
	<g>
		<path d="M406.322,324.331l-40.232-20.529c5.759-33.811,10.229-68.621,10.229-95.228c0-74.855-31.3-127.189-57.559-157.911
			C290.297,17.361,261.943,1.845,260.75,1.201c-2.965-1.602-6.537-1.602-9.502,0c-1.193,0.643-29.547,16.16-58.011,49.462
			c-26.258,30.722-57.558,83.056-57.558,157.911c0,26.606,4.469,61.416,10.229,95.228l-40.231,20.529
			c-3.954,2.019-6.104,6.399-5.282,10.761l22.388,118.704c0.623,3.3,2.86,6.067,5.957,7.367c1.244,0.521,2.56,0.779,3.869,0.779
			c1.952,0,3.891-0.571,5.561-1.689l44.64-29.862h25.43c-0.732,3.385-1.106,6.855-1.106,10.357
			c0,24.308,34.746,61.108,41.712,68.239c1.882,1.926,4.461,3.012,7.153,3.012c2.692,0,5.272-1.086,7.153-3.012
			c6.966-7.131,41.712-43.933,41.712-68.239c0-3.502-0.374-6.973-1.106-10.357h25.431l44.641,29.862
			c1.671,1.117,3.609,1.689,5.561,1.689c1.311,0,2.626-0.258,3.869-0.779c3.098-1.3,5.334-4.067,5.957-7.367l22.388-118.704
			C412.427,330.73,410.276,326.35,406.322,324.331z M207.92,64.271c19.509-22.987,39.267-36.959,48.08-42.592
			c8.82,5.638,28.574,19.608,48.08,42.592c5.689,6.704,10.918,13.616,15.685,20.729h-127.53
			C197.001,77.887,202.23,70.975,207.92,64.271L207.92,64.271z M180.329,105h151.342c16.379,31.244,24.648,65.914,24.648,103.574
			c0,61.133-25.646,171.975-32.827,201.816H188.508c-7.183-29.838-32.827-140.662-32.827-201.816
			C155.681,170.914,163.95,136.244,180.329,105L180.329,105z M121.438,338.742l28.147-14.363
			c7.481,40.135,15.906,76.007,19.564,91.09l-29.516,19.745L121.438,338.742z M284.865,440.749
			c0,10.148-15.143,31.078-28.865,46.555c-13.724-15.477-28.865-36.407-28.865-46.555c0-3.565,0.654-7.073,1.915-10.357h53.901
			C284.211,433.676,284.865,437.184,284.865,440.749z M372.368,435.214l-29.517-19.743c3.658-15.082,12.082-50.955,19.564-91.091
			l28.146,14.363L372.368,435.214z"/>
		<path d="M256,257.132c17.609,0,31.936-14.327,31.936-31.937c0-17.61-14.326-31.935-31.936-31.935
			c-17.609,0-31.936,14.326-31.936,31.936C224.064,242.806,238.391,257.132,256,257.132z M256,213.26
			c6.582,0,11.936,5.355,11.936,11.936c0,6.582-5.354,11.937-11.936,11.937s-11.936-5.355-11.936-11.937
			C244.064,218.614,249.418,213.26,256,213.26z"/>
	</g>
</g>
</svg>
