<?xml version="1.0" encoding="utf-8"?>
<!-- Generator: Adobe Illustrator 16.0.0, SVG Export Plug-In . SVG Version: 6.00 Build 0)  -->
<!DOCTYPE svg PUBLIC "-//W3C//DTD SVG 1.1//EN" "http://www.w3.org/Graphics/SVG/1.1/DTD/svg11.dtd">
<svg version="1.1" id="Capa_1" xmlns="http://www.w3.org/2000/svg" xmlns:xlink="http://www.w3.org/1999/xlink" x="0px" y="0px"
	 width="512px" height="512px" viewBox="0 0 512 512" enable-background="new 0 0 512 512" xml:space="preserve">
<g>
	<g>
		<path fill="#55CDFF" d="M329.913,260.001H229.137c0,0-0.006,0.001-0.016,0.003V158.936c-0.147-1.313-1.282-2.318-2.635-2.284
			c-55.87,1.406-100.73,47.137-100.731,103.346c-0.002,57.038,46.33,103.377,103.366,103.386v-0.018
			c0.012,0.012,0.019,0.018,0.019,0.018c56.209-0.001,101.94-44.86,103.346-100.731
			C332.523,261.201,331.364,260.001,329.913,260.001z"/>
	</g>
	<g>
		<path d="M462.492,97.868c0.01-2.593-0.995-5.098-2.799-6.96c-0.101-0.103-0.161-0.166-0.169-0.173L370.722,2.891
			C368.085,0.362,363.646,0,363.646,0C363.635,0,80.911,0,80.911,0C63.595,0,49.508,13.983,49.508,31.172v449.656
			c0,17.188,14.087,31.172,31.403,31.172h350.178c17.316,0,31.403-13.983,31.403-31.172V97.872
			C462.492,97.871,462.492,97.87,462.492,97.868L462.492,97.868z M373.689,33.958l38.889,38.468l15.586,15.418H373.69
			L373.689,33.958L373.689,33.958z M431.089,492H80.911c-6.288,0-11.403-5.012-11.403-11.172V31.172
			c0-6.16,5.116-11.172,11.403-11.172h272.778v77.844c0,5.522,4.477,10,10,10h78.803v372.984
			C442.492,486.988,437.376,492,431.089,492z"/>
		<path fill="#55CDFF" d="M275.802,102.888c-3.37-0.062-6.698,1.22-9.116,3.576c-2.408,2.35-3.791,5.628-3.791,8.993v100.776
			c0,5.523,4.478,10,10,10h100.777c3.366,0,6.646-1.383,8.995-3.793c2.356-2.416,3.659-5.739,3.574-9.116
			C384.717,152.922,336.208,104.412,275.802,102.888L275.802,102.888z M282.895,206.233v-82.854
			c43.651,4.629,78.227,39.203,82.856,82.854H282.895z"/>
		<path fill="#A4EAFF" d="M369.051,420.064H142.949c-5.523,0-10,4.477-10,10c0,5.521,4.477,10,10,10h226.102c5.523,0,10-4.479,10-10
			C379.051,424.541,374.574,420.064,369.051,420.064z"/>
	</g>
</g>
</svg>
