<?xml version="1.0" encoding="utf-8"?>
<!-- Generator: Adobe Illustrator 16.0.0, SVG Export Plug-In . SVG Version: 6.00 Build 0)  -->
<!DOCTYPE svg PUBLIC "-//W3C//DTD SVG 1.1//EN" "http://www.w3.org/Graphics/SVG/1.1/DTD/svg11.dtd">
<svg version="1.1" id="Capa_1" xmlns="http://www.w3.org/2000/svg" xmlns:xlink="http://www.w3.org/1999/xlink" x="0px" y="0px"
	 width="1000px" height="1000px" viewBox="0 0 1000 1000" enable-background="new 0 0 1000 1000" xml:space="preserve">
<g>
	<g>
		<path d="M768.939,400.252c-49.242-51.768-114.899-88.384-188.131-103.535v-45.455c0-10.101-3.788-20.202-11.364-26.515
			c-7.575-6.313-16.414-11.364-26.515-11.364h-20.202l-1.263-194.444C521.465,7.576,512.626,0,502.525,0
			c-11.363,0-18.939,8.838-18.939,18.939l1.263,194.444h-20.202c-10.101,0-20.202,3.788-26.516,11.364
			c-6.313,7.576-11.363,16.414-11.363,26.515v44.192c-77.021,16.414-143.939,53.03-195.707,104.798
			C161.616,469.697,119.95,564.394,119.95,670.454c0,11.364,8.838,18.939,18.939,18.939h202.021
			c5.051,36.616,20.202,69.445,45.454,94.697c29.041,29.041,69.445,46.717,113.637,46.717s84.596-17.677,113.637-46.717
			c25.252-25.253,40.403-58.081,45.454-94.697h202.021c11.363,0,18.939-8.838,18.939-18.939
			C880.051,565.656,837.121,469.697,768.939,400.252z M463.384,252.525h78.283v37.879c-1.263,0-1.263,0-2.525,0
			c-2.525,0-3.788,0-6.313,0c-10.101-1.263-21.465-1.263-31.565-1.263c-10.101-1.263-20.202,0-30.303,0
			c-2.525,0-5.051,0-7.576,1.263V252.525z M587.121,756.313c-22.728,22.727-53.03,35.354-85.858,35.354
			c-34.091,0-64.394-13.889-85.858-35.354c-17.677-17.677-30.303-40.404-34.091-66.92h119.949h121.212
			C617.424,714.646,606.061,738.637,587.121,756.313z M642.677,650.253H501.263H359.849H159.091
			c5.051-87.122,41.667-165.404,99.748-222.223c53.031-53.03,122.475-88.384,200.757-97.222c2.525,0,6.313-1.263,8.839-1.263
			c10.101-1.263,21.465-1.263,31.565-1.263c11.363,0,21.465,0,32.828,1.263c2.525,0,6.313,1.263,8.839,1.263
			c78.282,8.838,147.728,44.192,200.757,97.222c58.081,58.081,94.697,135.102,99.748,222.223H642.677z"/>
	</g>
</g>
<g>
	<g>
		<path d="M501.263,857.323c-11.363,0-18.939,8.838-18.939,18.939v104.798c0,11.364,8.839,18.939,18.939,18.939
			c11.363,0,18.939-8.838,18.939-18.939V876.263C520.202,864.899,512.626,857.323,501.263,857.323z"/>
	</g>
</g>
<g>
	<g>
		<path d="M674.242,929.293l-53.03-90.909c-5.05-8.838-17.677-12.626-26.515-7.576c-8.839,5.051-12.627,17.678-7.576,26.516
			l53.03,90.909c5.051,8.838,17.677,12.626,26.516,7.575C675.505,950.758,679.293,938.132,674.242,929.293z"/>
	</g>
</g>
<g>
	<g>
		<path d="M780.303,809.344l-90.909-53.03c-8.838-5.051-21.464-2.525-26.515,7.575c-5.051,8.839-2.525,21.465,7.576,26.516
			l90.908,53.03c8.839,5.05,21.465,2.525,26.516-7.576C792.93,827.021,790.404,814.394,780.303,809.344z"/>
	</g>
</g>
<g>
	<g>
		<path d="M339.646,763.889c-5.051-8.838-17.677-12.626-26.516-7.575l-90.909,53.03c-8.838,5.05-12.626,17.677-7.576,26.515
			c5.05,8.839,17.677,12.626,26.515,7.576l90.909-53.03C340.909,784.091,344.697,772.728,339.646,763.889z"/>
	</g>
</g>
<g>
	<g>
		<path d="M407.828,830.808c-8.838-5.05-21.465-1.262-26.515,7.576l-53.03,90.909c-5.051,8.838-2.525,21.465,7.575,26.515
			c8.839,5.051,21.465,2.525,26.516-7.575l53.03-90.909C420.455,848.484,417.93,835.858,407.828,830.808z"/>
	</g>
</g>
</svg>
