<?xml version="1.0" encoding="utf-8"?>
<!-- Generator: Adobe Illustrator 16.0.0, SVG Export Plug-In . SVG Version: 6.00 Build 0)  -->
<!DOCTYPE svg PUBLIC "-//W3C//DTD SVG 1.1//EN" "http://www.w3.org/Graphics/SVG/1.1/DTD/svg11.dtd">
<svg version="1.1" id="Layer_1" xmlns="http://www.w3.org/2000/svg" xmlns:xlink="http://www.w3.org/1999/xlink" x="0px" y="0px"
	 width="512px" height="512px" viewBox="0 0 512 512" enable-background="new 0 0 512 512" xml:space="preserve">
<path d="M470.71,182.379v-33.734c-0.029-27.353-22.196-49.519-49.549-49.548H90.839c-27.353,0.029-49.52,22.196-49.548,49.548
	v33.734C17.469,186.436,0.034,207.062,0,231.226v99.097c0.034,24.164,17.469,44.791,41.291,48.847v25.477
	c0,4.561,3.697,8.258,8.258,8.258h24.774c3.789,0,7.092-2.58,8.01-6.256l6.7-26.776H414.71l6.699,26.776
	c0.918,3.676,4.221,6.256,8.01,6.256h24.774c4.561,0,8.258-3.697,8.258-8.258v-24.774c27.354-0.029,49.52-22.195,49.549-49.549
	v-99.097C511.967,207.062,494.531,186.436,470.71,182.379z M67.871,396.387H57.807v-16.516H72L67.871,396.387z M82.581,363.354
	H49.548c-18.235-0.02-33.012-14.797-33.032-33.032v-99.097c0-18.243,14.789-33.032,33.032-33.032s33.032,14.79,33.032,33.032
	V363.354z M412.903,363.354H99.097v-49.548c0.021-18.235,14.797-33.013,33.032-33.032h247.742
	c18.234,0.02,33.012,14.797,33.032,33.032V363.354z M412.903,231.226v45.688c-9.068-8.155-20.836-12.664-33.032-12.655H132.129
	c-12.196-0.009-23.964,4.5-33.032,12.655v-45.688c-0.034-24.164-17.469-44.79-41.29-48.846v-33.734
	c0.021-18.235,14.797-33.011,33.032-33.032h330.322c18.235,0.021,33.013,14.797,33.032,33.032v33.734
	C430.372,186.436,412.937,207.062,412.903,231.226z M445.936,396.387h-10.064l-4.129-16.516h14.193V396.387z M495.483,330.322
	c-0.02,18.235-14.797,33.013-33.032,33.032h-33.032V231.226c0-18.243,14.79-33.032,33.032-33.032
	c18.243,0,33.032,14.79,33.032,33.032V330.322z"/>
</svg>
