<?xml version="1.0"?>
<svg xmlns="http://www.w3.org/2000/svg" width="512" height="512" viewBox="0 0 512 512"><g><path d="M504,416V192a8,8,0,0,0-8-8H472V80a8,8,0,0,0-8-8H352a8,8,0,0,0-8,8v40H288a8,8,0,0,0-8,8v56H192V96a8,8,0,0,0-8-8H64a8,8,0,0,0-8,8v88H16a8,8,0,0,0-8,8V416a8,8,0,0,0,8,8H29.25L8.34,493.7A7.991,7.991,0,0,0,16,504H40a8.011,8.011,0,0,0,7.16-4.42L84.94,424H427.06l37.78,75.58A8.011,8.011,0,0,0,472,504h24a7.991,7.991,0,0,0,7.66-10.3L482.75,424H496A8,8,0,0,0,504,416ZM392,88h32v48H392Zm-32,0h16v56a8,8,0,0,0,8,8h48a8,8,0,0,0,8-8V88h16v96H360Zm-64,48h48v48H296ZM152,104h24v80H152Zm-40,0h24v80H112Zm-40,0H96v80H72ZM35.06,488H26.75l19.2-64H67.06ZM248,408H24V200H248Zm237.25,80h-8.31l-32-64h21.11ZM488,408H264V200H488Z"/><path d="M288,272a8,8,0,0,0-8,8v48a8,8,0,0,0,16,0V280A8,8,0,0,0,288,272Z"/><path d="M224,336a8,8,0,0,0,8-8V280a8,8,0,0,0-16,0v48A8,8,0,0,0,224,336Z"/></g></svg>
