<?xml version="1.0" encoding="utf-8"?>
<!-- Generator: Adobe Illustrator 16.0.0, SVG Export Plug-In . SVG Version: 6.00 Build 0)  -->
<!DOCTYPE svg PUBLIC "-//W3C//DTD SVG 1.1//EN" "http://www.w3.org/Graphics/SVG/1.1/DTD/svg11.dtd">
<svg version="1.1" id="Layer_1" xmlns="http://www.w3.org/2000/svg" xmlns:xlink="http://www.w3.org/1999/xlink" x="0px" y="0px"
	 width="600px" height="600px" viewBox="0 0 600 600" enable-background="new 0 0 600 600" xml:space="preserve">
<path d="M274.359,70.301c0-5.903-4.781-10.684-10.684-10.684H70.301c-5.903,0-10.684,4.781-10.684,10.684v193.375
	c0,5.903,4.781,10.684,10.684,10.684h193.375c5.903,0,10.684-4.781,10.684-10.684V70.301z M252.992,252.992H80.984V80.984h172.007
	V252.992z"/>
<path d="M540.383,70.301c0-5.903-4.781-10.684-10.684-10.684H336.324c-5.902,0-10.684,4.781-10.684,10.684v193.375
	c0,5.903,4.781,10.684,10.684,10.684h193.375c5.902,0,10.684-4.781,10.684-10.684V70.301z M519.016,252.992H347.008V80.984h172.008
	V252.992z"/>
<path d="M274.359,336.324c0-5.902-4.781-10.684-10.684-10.684H70.301c-5.903,0-10.684,4.781-10.684,10.684v193.375
	c0,5.902,4.781,10.684,10.684,10.684h193.375c5.903,0,10.684-4.781,10.684-10.684V336.324z M252.992,517.947H80.984V347.008h172.007
	V517.947z"/>
<path d="M540.383,336.324c0-5.902-4.781-10.684-10.684-10.684H336.324c-5.902,0-10.684,4.781-10.684,10.684v193.375
	c0,5.902,4.781,10.684,10.684,10.684h193.375c5.902,0,10.684-4.781,10.684-10.684V336.324z M519.016,517.947H347.008V347.008
	h172.008V517.947z"/>
</svg>
