<svg id="Icons" height="512" viewBox="0 0 74 74" width="512" xmlns="http://www.w3.org/2000/svg"><path d="m3.17 46.84a1 1 0 0 1 -1-1v-42.8a1 1 0 0 1 1-1h67.83a1 1 0 0 1 1 1v7.48a1 1 0 0 1 -2 0v-6.48h-65.83v41.8a1 1 0 0 1 -1 1z"/><path d="m71 46.84a1 1 0 0 1 -1-1v-18.36a1 1 0 0 1 2 0v18.36a1 1 0 0 1 -1 1z"/><path d="m71 21.48a1 1 0 0 1 -1-1v-2.96a1 1 0 1 1 2 0v2.96a1 1 0 0 1 -1 1z"/><path d="m71 46.835h-9.7a1 1 0 0 1 -1-1v-6.756a1 1 0 0 1 1-1h9.7a1 1 0 0 1 1 1v6.756a1 1 0 0 1 -1 1zm-8.7-2h7.7v-4.756h-7.7z"/><path d="m71 71.957h-.015a48.469 48.469 0 0 1 -19.1-3.941 1 1 0 0 1 -.282-1.638 27.9 27.9 0 0 0 8.7-20.47 1 1 0 1 1 2-.145 29.441 29.441 0 0 1 -8.248 21 46.732 46.732 0 0 0 15.945 3.17v-24.1a1 1 0 0 1 2 0v25.124a1 1 0 0 1 -1 1z"/><path d="m12.7 46.835h-9.7a1 1 0 0 1 -1-1v-6.756a1 1 0 0 1 1-1h9.7a1 1 0 0 1 1 1v6.756a1 1 0 0 1 -1 1zm-8.7-2h7.7v-4.756h-7.7z"/><path d="m3 71.957a1 1 0 0 1 -1-1v-25.122a1 1 0 0 1 2 0v24.1a46.732 46.732 0 0 0 15.953-3.175 29.441 29.441 0 0 1 -8.248-21 .984.984 0 0 1 1.068-.924 1 1 0 0 1 .927 1.068 28.013 28.013 0 0 0 8.7 20.471 1 1 0 0 1 -.282 1.638 48.469 48.469 0 0 1 -19.1 3.941z"/><path d="m61.3 40.08a1 1 0 0 1 -.307-.049c-.238-.077-23.807-8-24.9-36.949a1 1 0 0 1 .961-1.038.986.986 0 0 1 1.038.961c1.042 27.517 22.6 34.825 23.519 35.122a1 1 0 0 1 -.311 1.953z"/><path d="m63.593 40.079a1 1 0 0 1 -.638-.231c-.628-.521-15.359-13.042-15.65-36.792a1 1 0 0 1 .987-1.013h.013a1 1 0 0 1 1 .988c.279 22.791 14.782 35.157 14.929 35.28a1 1 0 0 1 -.641 1.768z"/><path d="m67.189 40.079a1 1 0 0 1 -.89-.542c-7.88-15.3-7.522-35.657-7.5-36.516a.984.984 0 0 1 1.022-.977 1 1 0 0 1 .979 1.021c0 .206-.361 20.72 7.282 35.556a1 1 0 0 1 -.889 1.458z"/><path d="m12.875 40.08a1 1 0 0 1 -.308-1.953c.918-.3 22.478-7.605 23.52-35.122a.984.984 0 0 1 1.038-.961 1 1 0 0 1 .961 1.038c-.572 15.11-7.295 24.347-12.835 29.436a36.057 36.057 0 0 1 -12.069 7.513 1 1 0 0 1 -.307.049z"/><path d="m10.581 40.079a1 1 0 0 1 -.642-1.768c.147-.123 14.65-12.489 14.93-35.28a1 1 0 0 1 1-.988h.013a1 1 0 0 1 .988 1.013c-.291 23.75-15.023 36.271-15.65 36.792a1 1 0 0 1 -.639.231z"/><path d="m6.984 40.079a1 1 0 0 1 -.884-1.458c7.643-14.836 7.285-35.35 7.281-35.556a1 1 0 0 1 2-.044c.02.859.378 21.22-7.5 36.516a1 1 0 0 1 -.897.542z"/></svg>