<?xml version="1.0" encoding="utf-8"?>
<!-- Generator: Adobe Illustrator 24.1.0, SVG Export Plug-In . SVG Version: 6.00 Build 0)  -->
<svg version="1.1" id="Capa_1" xmlns="http://www.w3.org/2000/svg" xmlns:xlink="http://www.w3.org/1999/xlink" x="0px" y="0px"
	 viewBox="0 0 512 512" style="enable-background:new 0 0 512 512;" xml:space="preserve">
<style type="text/css">
	.st0{fill:#FFFFFF;}
	.st1{fill:#55CDFF;}
	.st2{opacity:0.1;fill:#606060;enable-background:new    ;}
</style>
<g id="color_line">
	<path class="st0" d="M167.4,489.5h162.9c9.6,0,19.1-1.5,28.2-4.3l13.1-4.2V315.8h-29.1c-12-14.7-26.4-27.1-42.7-36.8
		c-30.9-17.2-63.9-33.9-67.3-75.6c-0.6-9.8-7.2-18.3-16.5-21.4l-1.7-0.5c-12.4-3.9-25.6,2.9-29.6,15.3c-0.4,1.1-0.6,2.3-0.8,3.5
		c-4.8,30.4-4.5,78.6,39.5,97.9h-33L167.4,489.5z"/>
	<path class="st1" d="M385.7,298.4h53.9c7.7,0,14,6.3,14,14v170.1c0,7.7-6.3,14-14,14h-53.9c-7.7,0-14-6.3-14-14V312.4
		C371.7,304.7,378,298.4,385.7,298.4z"/>
	<path class="st2" d="M453.7,460.9v21.6c0,7.7-6.2,14-14,14h-54c-7.7,0-14-6.3-14-14l0,0v-21.6c0,7.7,6.2,14,13.9,14l0,0h54
		C447.4,474.9,453.7,468.7,453.7,460.9z"/>
	<path class="st1" d="M86.1,50l18,36.6l40.3,5.9L115.2,121l6.9,40.2l-36.1-19L50,161l6.9-40.2L27.7,92.4L68,86.5L86.1,50z"/>
	<path class="st1" d="M387,50l-18,36.6l-40.3,5.9l29.2,28.5l-6.9,40.2l36.1-19l36.1,19l-6.9-40.2l29.2-28.5l-40.3-5.9L387,50z"/>
	<path class="st1" d="M236.5,21.8l18,36.6l40.4,5.9l-29.2,28.5l6.9,40.2l-36.1-19l-36.1,19l6.9-40.2l-29.2-28.5l40.3-5.9L236.5,21.8
		z"/>
	<path class="st2" d="M272.6,132.9l-15.3-8.1l-3.5-25.2l12-11.6L272.6,132.9z"/>
	<path class="st2" d="M104.1,86.5l40.3,5.8L130.3,106l-37.7-5.5l-15.8-32L86,50L104.1,86.5z"/>
	<path class="st2" d="M328.6,92.4l44.8-6.5l-6.6,13.3l-27,4L328.6,92.4z"/>
	<path class="st2" d="M415.8,116l7.3,45l-15.3-8l-3.9-25.3L415.8,116z"/>
	<path class="st2" d="M445.4,92.4l-14.1,13.7l-37.7-5.5l-15.8-32L387,50l18.1,36.6L445.4,92.4z"/>
	<path class="st2" d="M178.2,64.2l44.5-6.3l-6.6,13.3L189.2,75L178.2,64.2z"/>
	<path class="st2" d="M31.1,94l40-5.6l-6.6,13.3l-22.4,3.1L31.1,94z"/>
	<path class="st2" d="M294.9,64.2l-14.1,13.7L243,72.5l-15.8-31.9l9.3-18.7l18,36.6L294.9,64.2z"/>
	<path d="M330.4,493h-163c-1.9,0-3.5-1.5-3.5-3.4c0-0.1,0-0.3,0-0.4l23-191.2c0.2-1.7,1.7-3.1,3.5-3H210
		c-34.7-23.6-33.7-68.6-29.5-95c2.3-14.7,16.1-24.8,30.8-22.5c1.4,0.2,2.7,0.5,4,0.9l1.7,0.5c10.7,3.5,18.2,13.1,19,24.4
		c3.1,38.2,33,54.8,61.9,70.8l3.6,2c16.2,9.5,30.7,21.8,42.6,36.4h27.5c1.9,0,3.5,1.5,3.5,3.5v165c0,1.5-1,2.8-2.4,3.3l-13.1,4.2
		C350.2,491.5,340.3,493,330.4,493L330.4,493z M171.3,486.1h159.1c9.2,0,18.3-1.4,27.1-4.2l10.7-3.4V319.3h-25.7c-1,0-2-0.5-2.6-1.2
		c-11.6-14.4-25.8-26.6-41.7-36l-3.6-2c-30.5-16.9-62-34.4-65.5-76.3c-0.5-8.4-6.1-15.7-14.1-18.3l-1.7-0.5
		c-10.6-3.4-21.9,2.4-25.2,13c-0.3,1-0.6,2-0.7,3.1c-5.3,33.1-3,76.4,37.5,94.2c1.8,0.8,2.5,2.8,1.8,4.6c-0.6,1.3-1.8,2.1-3.2,2.1
		h-29.9L171.3,486.1z"/>
	<path class="st0" d="M186.9,298.4H110c-13.2,0-23.9,10.7-23.9,23.9c0,13.2,10.7,23.9,23.9,23.9h76.9c13.2,0,23.9-10.7,23.9-23.9
		C210.8,309.1,200.1,298.4,186.9,298.4L186.9,298.4z"/>
	<path d="M186.9,349.6H110c-15.1,0-27.4-12.2-27.4-27.4c0-15.1,12.2-27.4,27.4-27.4h76.9c15.1,0,27.4,12.2,27.4,27.4
		C214.2,337.4,202,349.6,186.9,349.6L186.9,349.6z M110,301.9c-11.3,0-20.4,9.1-20.4,20.4s9.1,20.4,20.4,20.4h76.9
		c11.3,0,20.4-9.1,20.4-20.4s-9.1-20.4-20.4-20.4H110z"/>
	<path class="st0" d="M195.3,346.2h-74.4c-13.2,0-23.9,10.7-23.9,23.9c0,13.2,10.7,23.9,23.9,23.9h74.4c13.2,0,23.9-10.7,23.9-23.9
		C219.1,356.9,208.4,346.2,195.3,346.2L195.3,346.2z"/>
	<path d="M195.3,397.4h-74.4c-15.1,0-27.4-12.2-27.4-27.4c0-15.1,12.2-27.4,27.4-27.4h74.4c15.1,0,27.4,12.2,27.4,27.4
		C222.6,385.2,210.4,397.4,195.3,397.4L195.3,397.4z M120.9,349.6c-11.3,0-20.4,9.1-20.4,20.4s9.1,20.4,20.4,20.4h74.4
		c11.3,0,20.4-9.1,20.4-20.4s-9.1-20.4-20.4-20.4H120.9z"/>
	<path class="st0" d="M200.1,394H131c-13.2,0-23.9,10.7-23.9,23.9c0,13.2,10.7,23.9,23.9,23.9h69.1c13.2,0,23.9-10.7,23.9-23.9
		S213.3,394,200.1,394L200.1,394z"/>
	<path d="M200.1,445.2H131c-15.1,0-27.4-12.2-27.4-27.4s12.2-27.4,27.4-27.4l0,0h69.1c15.1,0,27.4,12.2,27.4,27.4
		S215.2,445.2,200.1,445.2L200.1,445.2z M131,397.4c-11.3,0-20.4,9.1-20.4,20.4s9.1,20.4,20.4,20.4h69.1c11.3,0,20.4-9.1,20.4-20.4
		s-9.1-20.4-20.4-20.4l0,0H131z"/>
	<path class="st0" d="M203.5,441.8h-59.2c-13.2,0-23.9,10.7-23.9,23.9c0,13.2,10.7,23.9,23.9,23.9l0,0h59.2
		c13.2,0,23.9-10.7,23.9-23.9S216.7,441.8,203.5,441.8L203.5,441.8z"/>
	<g>
		<path d="M203.5,493h-59.2c-15.1-0.2-27.2-12.7-26.9-27.8c0.2-14.8,12.2-26.7,26.9-26.9h59.2c15.1-0.2,27.5,11.8,27.8,26.9
			c0.2,15.1-11.8,27.5-26.9,27.8C204.1,493,203.8,493,203.5,493z M144.3,445.2c-11.3,0.2-20.3,9.5-20.1,20.8
			c0.2,11,9.1,19.9,20.1,20.1h59.2c11.3,0.2,20.6-8.8,20.8-20.1c0.2-11.3-8.8-20.6-20.1-20.8c-0.3,0-0.5,0-0.8,0H144.3z"/>
		<path d="M439.7,500h-53.9c-9.6,0-17.5-7.8-17.5-17.5V312.4c0-9.6,7.8-17.5,17.5-17.5h53.9c9.6,0,17.5,7.8,17.5,17.5v170.1
			C457.1,492.2,449.3,500,439.7,500z M385.7,301.9c-5.8,0-10.5,4.7-10.6,10.6v170.1c0,5.8,4.7,10.5,10.6,10.6h53.9
			c5.8,0,10.5-4.7,10.6-10.6V312.4c0-5.8-4.7-10.5-10.6-10.6L385.7,301.9z"/>
		<path d="M122.1,164.5c-0.6,0-1.1-0.1-1.6-0.4L86,146l-34.5,18.1c-1.7,0.9-3.8,0.2-4.7-1.4c-0.4-0.7-0.5-1.4-0.3-2.2l6.6-38.4
			L25.2,94.8c-1.4-1.3-1.4-3.5-0.1-4.9c0.5-0.5,1.2-0.9,2-1l38.5-5.6L83,48.4c1-1.7,3.2-2.3,4.9-1.3c0.5,0.3,1,0.8,1.3,1.3
			l17.2,34.9L145,89c1.9,0.3,3.2,2,2.9,3.9c-0.1,0.8-0.5,1.4-1,2L119,122.1l6.6,38.4c0.3,1.9-0.9,3.7-2.8,4
			C122.6,164.5,122.4,164.5,122.1,164.5L122.1,164.5z M86.1,138.6c0.6,0,1.1,0.1,1.6,0.4l29.9,15.7l-5.7-33.3
			c-0.2-1.1,0.2-2.3,1-3.1L137,94.8L103.6,90c-1.1-0.2-2.1-0.9-2.6-1.9L86.1,57.8L71.1,88c-0.5,1-1.5,1.7-2.6,1.9l-33.4,4.8
			l24.2,23.6c0.8,0.8,1.2,1.9,1,3.1l-5.7,33.3L84.4,139C84.9,138.7,85.5,138.6,86.1,138.6z"/>
		<path d="M423.1,164.5c-0.6,0-1.1-0.1-1.6-0.4L387,145.9L352.5,164c-1.7,0.9-3.8,0.2-4.7-1.4c-0.4-0.7-0.5-1.4-0.3-2.2l6.6-38.4
			l-27.9-27.2c-1.4-1.3-1.4-3.5-0.1-4.9c0.5-0.5,1.2-0.9,2-1l38.6-5.6l17.2-34.9c1-1.7,3.2-2.3,4.9-1.3c0.5,0.3,1,0.8,1.3,1.3
			l17.2,34.9l38.5,5.6c1.9,0.3,3.2,2,2.9,3.9c-0.1,0.8-0.5,1.4-1,2L420,122.1l6.6,38.4c0.3,1.9-0.9,3.7-2.8,4
			C423.5,164.5,423.3,164.5,423.1,164.5L423.1,164.5z M387,138.6c0.6,0,1.1,0.1,1.6,0.4l29.9,15.7l-5.7-33.3c-0.2-1.1,0.2-2.3,1-3.1
			L438,94.8L404.6,90c-1.1-0.2-2.1-0.9-2.6-1.9l-15-30.3L372.1,88c-0.5,1-1.5,1.7-2.6,1.9l-33.4,4.8l24.2,23.6
			c0.8,0.8,1.2,1.9,1,3.1l-5.7,33.3l29.9-15.7C385.9,138.7,386.4,138.6,387,138.6L387,138.6z"/>
		<path d="M272.6,136.3c-0.6,0-1.1-0.1-1.6-0.4l-34.5-18.1L202,135.9c-1.7,0.9-3.8,0.2-4.7-1.4c-0.4-0.7-0.5-1.4-0.3-2.2l6.6-38.4
			l-27.9-27.2c-1.4-1.3-1.4-3.5-0.1-4.9c0.5-0.5,1.2-0.9,2-1l38.5-5.6l17.2-34.9c1-1.7,3.2-2.3,4.9-1.3c0.5,0.3,1,0.8,1.3,1.3
			l17.2,34.9l38.5,5.6c1.9,0.3,3.2,2,2.9,3.9c-0.1,0.8-0.5,1.4-1,2l-27.9,27.2l6.6,38.4c0.3,1.9-0.9,3.7-2.8,4
			C273,136.3,272.8,136.3,272.6,136.3L272.6,136.3z M236.5,110.4c0.6,0,1.1,0.1,1.6,0.4l29.9,15.7l-5.7-33.3c-0.2-1.1,0.2-2.3,1-3.1
			l24.2-23.6l-33.4-4.8c-1.1-0.2-2.1-0.9-2.6-1.9l-14.9-30.3l-14.9,30.3c-0.5,1-1.5,1.7-2.6,1.9l-33.4,4.8l24.2,23.6
			c0.8,0.8,1.2,1.9,1,3.1l-5.7,33.3l29.9-15.7C235.4,110.6,236,110.4,236.5,110.4L236.5,110.4z"/>
	</g>
</g>
</svg>
