<?xml version="1.0" encoding="utf-8"?>
<!-- Generator: Adobe Illustrator 24.1.0, SVG Export Plug-In . SVG Version: 6.00 Build 0)  -->
<svg version="1.1" id="Capa_1" xmlns="http://www.w3.org/2000/svg" xmlns:xlink="http://www.w3.org/1999/xlink" x="0px" y="0px"
	 viewBox="0 0 512 512" style="enable-background:new 0 0 512 512;" xml:space="preserve">
<style type="text/css">
	.st0{fill:#FFFFFF;}
	.st1{fill:#55CDFF;}
	.st2{fill:#A4EAFF;}
	.st3{opacity:0.1;fill:#606060;enable-background:new    ;}
	.st4{fill:#323C6B;}
</style>
<path class="st0" d="M66.4,370.1v27.7h24.9l18.4-27.7"/>
<path d="M91.3,401.6H66.4c-2.1,0-3.8-1.7-3.8-3.8v-27.7c0-2.1,1.7-3.8,3.8-3.8s3.8,1.7,3.8,3.8V394h19.1l17.3-26
	c1.1-1.8,3.5-2.3,5.2-1.2c1.8,1.1,2.3,3.5,1.2,5.2c0,0,0,0.1-0.1,0.1l-18.4,27.7C93.7,400.9,92.5,401.6,91.3,401.6z"/>
<path class="st0" d="M445.7,370.1v27.7h-24.9l-18.4-27.7"/>
<path d="M445.7,401.6h-24.9c-1.3,0-2.5-0.6-3.2-1.7l-18.4-27.7c-1.1-1.8-0.6-4.1,1.2-5.2c1.7-1.1,4-0.6,5.2,1l17.3,26H442v-23.9
	c0-2.1,1.7-3.8,3.8-3.8c2.1,0,3.8,1.7,3.8,3.8v27.7C449.5,399.9,447.8,401.6,445.7,401.6z"/>
<path class="st1" d="M337.8,305.9V171.1c0-18.9-15.3-34.1-34.1-34.1h-95.2c-18.9,0-34.1,15.3-34.1,34.1v134.8L337.8,305.9z"/>
<path class="st2" d="M434.7,305.9V244c0-14.1,8-26.9,20.7-32.9l-0.1-8.5c-0.1-14.6-12-26.4-26.6-26.4h-91v129.7L434.7,305.9z"/>
<path class="st2" d="M77.3,244v61.9h97V176.2h-91c-14.6,0-26.5,11.8-26.6,26.4l-0.1,8.5C69.2,217.2,77.3,230,77.3,244L77.3,244z"/>
<path class="st3" d="M337.7,171.1V197h-1.4v-5c0-18.8-15.3-34.1-34.1-34.1H207c-15.1,0-28.3,9.9-32.7,24.3v-11
	c0-18.8,15.2-34.1,34.1-34.1h95.3C322.5,137,337.7,152.3,337.7,171.1L337.7,171.1z"/>
<path class="st3" d="M455.5,211.1c-1.3,0.6-2.5,1.3-3.6,2c-4.2-9.8-13.9-16.1-24.5-16.1h-89.6v-20.9h91c14.6,0,26.5,11.8,26.6,26.4
	L455.5,211.1z"/>
<path class="st3" d="M174.3,176.2v5.9c-0.9,3.2-1.4,6.5-1.4,9.9v5.1h-91c-10.1,0-19.4,5.7-23.9,14.8c-0.4-0.3-0.9-0.5-1.4-0.8
	l0.1-8.5c0.1-14.6,12-26.4,26.6-26.4H174.3z"/>
<path class="st4" d="M35.3,284.2c-0.2,0-0.4,0-0.6,0c-2.8-0.4-5.6-1.1-8.3-2.1c-1.9-0.8-2.9-3-2.1-4.9c0.7-1.7,2.6-2.7,4.4-2.3
	l7.4,1.9c2,0.5,3.2,2.6,2.7,4.6C38.5,283,37,284.1,35.3,284.2z"/>
<path class="st1" d="M472.9,207.4c-6-0.3-12,1-17.4,3.7c-12.7,6.1-20.7,18.9-20.7,32.9v66.7c0,11.7-9.5,21.2-21.2,21.2l0,0H98.5
	c-11.7,0-21.2-9.5-21.2-21.2l0,0V244c0-14.1-8-26.9-20.7-32.9c-5.4-2.7-11.4-4-17.4-3.7c-20.3,0.8-36,17.8-35.3,38.1
	c0.6,14.8,9.9,27.7,23.7,32.9v57c0,20.5,16.6,37.2,37.2,37.2l0,0h382.5c20.5,0,37.2-16.6,37.2-37.2l0,0v-57.1
	c19-7.1,28.5-28.3,21.4-47.3C500.7,217.3,487.7,207.9,472.9,207.4L472.9,207.4z M434.7,305.9H77.3 M27.8,278.4l7.4,1.9
	C32.7,280,30.2,279.4,27.8,278.4z M476.8,280.3l7.4-1.9C481.8,279.4,479.3,280,476.8,280.3L476.8,280.3z"/>
<path class="st3" d="M492,252.2c0.6,9.3-2.3,18.4-8.2,25.7h1.9c14.5-6.1,23.5-20.7,22.4-36.4c-1.5-18.6-16.6-33.2-35.2-34.1
	c-11.1-0.4-21.8,4.2-29.1,12.6c4.1-1.4,8.5-2.1,12.9-1.9C475.4,218.9,490.5,233.5,492,252.2z"/>
<path class="st3" d="M468.4,283v74c0,5.4-1.6,10.6-4.7,15c12.1-2.6,20.8-13.3,20.8-25.7v-67.9L468.4,283z"/>
<path class="st0" d="M413.6,331.9H98.5c-11.7,0-21.2-9.5-21.2-21.2l0,0v-4.8h357.5v4.8C434.7,322.4,425.3,331.9,413.6,331.9
	L413.6,331.9z"/>
<g>
	<path class="st4" d="M413.6,335.6H98.4c-13.8,0-24.9-11.2-25-25v-4.8c0-2.1,1.7-3.8,3.8-3.8h357.5c2.1,0,3.8,1.7,3.8,3.8v4.8
		C438.5,324.5,427.4,335.6,413.6,335.6L413.6,335.6z M81.1,309.7v1c0,9.6,7.8,17.4,17.4,17.4h315.1c9.6,0,17.4-7.8,17.4-17.4v-1
		H81.1z"/>
	<path d="M337.8,309.7H174.3c-2.1,0-3.8-1.7-3.8-3.8V171.1c0-20.9,17-37.9,37.9-37.9h95.2c20.9,0,37.9,17,37.9,37.9v134.8
		C341.6,308,339.9,309.7,337.8,309.7L337.8,309.7L337.8,309.7z M178.1,302.1H334v-131c0-16.8-13.6-30.3-30.3-30.3h-95.2
		c-16.8,0-30.3,13.6-30.3,30.3L178.1,302.1z"/>
	<path d="M434.7,309.7h-97c-2.1,0-3.8-1.7-3.8-3.8V176.2c0-2.1,1.7-3.8,3.8-3.8h91c16.7,0,30.3,13.5,30.4,30.2l0.1,8.5
		c0,1.5-0.8,2.8-2.2,3.5c-11.3,5.5-18.5,16.9-18.5,29.5V306C438.5,308,436.8,309.7,434.7,309.7L434.7,309.7z M341.5,302.1H431V244
		c0-14.6,7.9-28.1,20.7-35.2l-0.1-6.2c-0.1-12.5-10.3-22.6-22.8-22.6h-87.2L341.5,302.1z"/>
	<path d="M174.3,309.7h-97c-2.1,0-3.8-1.7-3.8-3.8V244c0-12.6-7.2-24-18.5-29.5c-1.3-0.6-2.2-2-2.2-3.5l0.1-8.5
		c0.1-16.7,13.7-30.2,30.4-30.2h91c2.1,0,3.8,1.7,3.8,3.8v129.7C178.2,308,176.5,309.7,174.3,309.7
		C174.4,309.7,174.3,309.7,174.3,309.7L174.3,309.7z M81.1,302.1h89.4V180H83.3c-12.5,0-22.7,10.1-22.8,22.6l-0.1,6.2
		c12.8,7.1,20.7,20.6,20.7,35.2C81.1,244,81.1,302.1,81.1,302.1z"/>
	<path d="M447.3,376.4H64.7c-22.6,0-41-18.3-41-41l0,0v-54.5c-15.4-7-24.9-22.8-23.7-39.7c1.6-20.5,18.3-36.6,38.8-37.6
		c6.7-0.3,13.3,1.1,19.3,4.1C72.2,214.4,81,228.5,81,244v58.1h350V244c0-15.5,8.9-29.6,22.9-36.4c5.9-3,12.6-4.4,19.2-4.1
		c20.6,1,37.2,17.1,38.8,37.6c1.2,16.9-8.2,32.8-23.7,39.7v54.6C488.2,358,469.9,376.4,447.3,376.4L447.3,376.4z M31.4,283.5v52
		c0,18.4,14.9,33.4,33.4,33.4l0,0h382.6c18.4,0,33.4-14.9,33.4-33.4l0,0v-52c-1.1,0.2-2.2,0.5-3.3,0.6c-2,0.3-3.9-1-4.3-3
		s0.8-3.9,2.8-4.4l7.3-1.9c13.6-5.1,22.2-18.6,21.2-33.1c-1.3-16.7-14.8-29.8-31.6-30.5c-5.4-0.2-10.8,0.9-15.6,3.3
		c-11.4,5.4-18.6,16.9-18.6,29.5v66.7c0,13.8-11.2,24.9-25,25H98.4c-13.8,0-24.9-11.2-25-25V244c0-12.6-7.2-24.1-18.5-29.5
		c-4.9-2.4-10.3-3.6-15.7-3.4C22.6,211.9,9,225,7.7,241.7c-1.1,14.5,7.6,28,21.2,33.1l7.3,1.9c2,0.5,3.3,2.6,2.8,4.6
		c-0.5,1.9-2.3,3.2-4.3,2.8C33.6,283.9,32.5,283.7,31.4,283.5L31.4,283.5z M81.1,309.7v1c0,9.6,7.8,17.4,17.4,17.4h315.1
		c9.6,0,17.4-7.8,17.4-17.4v-1H81.1z"/>
</g>
</svg>
