<?xml version="1.0" encoding="utf-8"?>
<!-- Generator: Adobe Illustrator 24.1.0, SVG Export Plug-In . SVG Version: 6.00 Build 0)  -->
<svg version="1.1" id="Capa_1" xmlns="http://www.w3.org/2000/svg" xmlns:xlink="http://www.w3.org/1999/xlink" x="0px" y="0px"
	 viewBox="0 0 512 512" style="enable-background:new 0 0 512 512;" xml:space="preserve">
<style type="text/css">
	.st0{fill:#55CDFF;}
	.st1{fill:#323C6B;}
	.st2{opacity:0.15;}
	.st3{fill:#FFFFFF;}
	.st4{opacity:0.1;fill:#606060;enable-background:new    ;}
	.st5{fill:#EEEFEE;}
</style>
<g id="color_styel">
	<path class="st0" d="M435.9,159.1v302.1c0,16.5-13.4,30-30,30H106.1c-16.5,0-30-13.4-30-30V159.1H435.9z"/>
	<path class="st1" d="M405.9,494.7H106.1c-18.4,0-33.4-15-33.4-33.4V159.1c0-1.9,1.5-3.5,3.5-3.5H436c1.9,0,3.5,1.5,3.5,3.5v302.1
		C439.3,479.7,424.4,494.7,405.9,494.7z M79.6,162.6v298.7c0,14.6,11.9,26.5,26.5,26.5H406c14.6,0,26.5-11.9,26.5-26.5V162.6H79.6z"
		/>
	<path class="st2" d="M422.1,159.1v288.3c0,16.5-13.4,30-30,30H92.2c-4.5,0-9-1.1-13-3.1c5,10.3,15.4,16.9,26.9,16.9H406
		c16.5,0,30-13.4,30-30V159.1H422.1z"/>
	<path class="st3" d="M89.9,124.5H422v34.6H89.9V124.5z"/>
	<path class="st1" d="M422.1,162.6H89.9c-1.9,0-3.5-1.5-3.5-3.5v-34.6c0-1.9,1.5-3.5,3.5-3.5H422c1.9,0,3.5,1.5,3.5,3.5v34.6
		C425.5,161,424,162.6,422.1,162.6z M93.4,155.7h325.2V128H93.4V155.7z"/>
	<path class="st4" d="M408.2,124.5H422v34.6h-13.8V124.5z"/>
	<g>
		<path d="M405.9,494.7H106.1c-18.4,0-33.4-15-33.4-33.4V159.1c0-1.9,1.5-3.5,3.5-3.5H436c1.9,0,3.5,1.5,3.5,3.5v302.1
			C439.3,479.7,424.4,494.7,405.9,494.7z M79.6,162.6v298.7c0,14.6,11.9,26.5,26.5,26.5H406c14.6,0,26.5-11.9,26.5-26.5V162.6H79.6z
			"/>
		<path d="M422.1,162.6H89.9c-1.9,0-3.5-1.5-3.5-3.5v-34.6c0-1.9,1.5-3.5,3.5-3.5H422c1.9,0,3.5,1.5,3.5,3.5v34.6
			C425.5,161,424,162.6,422.1,162.6z M93.4,155.7h325.2V128H93.4V155.7z"/>
		<path d="M360.2,193.8h-6.9v-72.3c0-53.8-43.6-97.3-97.3-97.3s-97.3,43.6-97.3,97.3v72.3h-6.9v-72.3C151.7,64,198.4,17.3,256,17.3
			S360.2,64,360.2,121.5V193.8z"/>
	</g>
	<path class="st5" d="M377.1,214.2c0,11.2-9.1,20.3-20.4,20.3s-20.3-9.1-20.3-20.4c0-11.2,9.1-20.3,20.3-20.3
		C368,193.8,377.1,202.9,377.1,214.2L377.1,214.2z"/>
	<path d="M356.8,238c-13.1,0-23.8-10.7-23.8-23.8s10.7-23.8,23.8-23.8c13.1,0,23.8,10.7,23.8,23.8C380.6,227.3,369.9,238,356.8,238
		L356.8,238z M356.8,197.3c-9.3,0-16.9,7.6-16.8,16.9c0,9.3,7.6,16.9,16.9,16.8c9.3,0,16.8-7.5,16.8-16.8
		C373.7,204.9,366.1,197.3,356.8,197.3L356.8,197.3z"/>
	<path class="st5" d="M175.5,214.2c0,11.2-9.1,20.3-20.4,20.3c-11.2,0-20.3-9.1-20.3-20.4c0-11.2,9.1-20.3,20.3-20.3
		C166.4,193.8,175.5,202.9,175.5,214.2L175.5,214.2z"/>
	<path d="M155.2,238c-13.1,0-23.8-10.7-23.8-23.8s10.7-23.8,23.8-23.8s23.8,10.7,23.8,23.8S168.3,238,155.2,238L155.2,238z
		 M155.2,197.3c-9.3,0-16.9,7.6-16.8,16.9c0,9.3,7.6,16.9,16.9,16.8c9.3,0,16.8-7.5,16.8-16.8C172.1,204.9,164.5,197.3,155.2,197.3
		L155.2,197.3z"/>
</g>
</svg>
