<?xml version="1.0" encoding="utf-8"?>
<!-- Generator: Adobe Illustrator 24.1.0, SVG Export Plug-In . SVG Version: 6.00 Build 0)  -->
<svg version="1.1" id="Capa_1" xmlns="http://www.w3.org/2000/svg" xmlns:xlink="http://www.w3.org/1999/xlink" x="0px" y="0px"
	 viewBox="0 0 512 512" style="enable-background:new 0 0 512 512;" xml:space="preserve">
<style type="text/css">
	.st0{fill:#FFFFFF;}
	.st1{fill:#55CDFF;}
	.st2{opacity:0.1;fill:#606060;enable-background:new    ;}
	.st3{opacity:0.15;}
	.st4{fill:#E4F4FF;}
</style>
<path class="st0" d="M73.2,248.4h365.7v242.8H73.2V248.4z"/>
<path d="M477.9,494.7H34.1c-1.9,0-3.5-1.5-3.5-3.5c0-1.9,1.5-3.5,3.5-3.5h443.8c1.9,0,3.5,1.5,3.5,3.5
	C481.4,493.1,479.8,494.7,477.9,494.7z"/>
<path class="st1" d="M477.9,248.4H34.1L256,20.7L477.9,248.4z"/>
<path class="st2" d="M412.5,248.4h26.4v242.8h-26.4V248.4z"/>
<path class="st3" d="M477.9,248.4h-33.8L239.2,38.1L256,20.7L477.9,248.4z"/>
<path class="st0" d="M257.5,88.8c-16.7,0-30.2,13.5-30.2,30.2s13.5,30.2,30.2,30.2s30.2-13.5,30.2-30.2S274.2,88.8,257.5,88.8
	L257.5,88.8z"/>
<path d="M257.5,152.6c-18.6,0-33.7-15.1-33.6-33.7c0-18.6,15.1-33.7,33.7-33.6c18.6,0,33.6,15.1,33.6,33.6
	C291.1,137.6,276.1,152.6,257.5,152.6L257.5,152.6z M257.5,92.3c-14.8,0-26.7,12-26.7,26.7c0,14.8,12,26.7,26.7,26.7
	c14.8,0,26.7-12,26.7-26.7C284.2,104.2,272.3,92.3,257.5,92.3z"/>
<path class="st4" d="M134.8,373.4v117.8h115.8V373.4c0-32-25.9-57.9-57.9-57.9l0,0C160.8,315.5,134.8,341.4,134.8,373.4L134.8,373.4
	L134.8,373.4z"/>
<g>
	<path d="M250.7,494.7H134.8c-1.9,0-3.5-1.5-3.5-3.5V373.4c0.4-33.9,28.1-61.1,62-60.7c33.4,0.4,60.4,27.3,60.7,60.7v117.8
		C254.1,493.1,252.6,494.7,250.7,494.7z M138.3,487.8h108.9V373.4c-0.3-30.1-25-54.2-55.1-53.8c-29.6,0.3-53.5,24.2-53.8,53.8V487.8
		z"/>
	<path d="M222.2,409.9c-1.9,0-3.5-1.5-3.5-3.5v-17c0-1.9,1.5-3.5,3.5-3.5c1.9,0,3.5,1.5,3.5,3.5v17
		C225.6,408.4,224.1,409.9,222.2,409.9z"/>
	<path d="M477.9,251.8H34.1c-1.9,0-3.5-1.6-3.5-3.5c0-0.9,0.4-1.8,1-2.4L253.5,18.3c1.4-1.3,3.6-1.3,5,0L480.4,246
		c1.3,1.4,1.3,3.6-0.1,4.9C479.7,251.5,478.8,251.9,477.9,251.8L477.9,251.8z M42.3,244.9h427.4L256,25.7L42.3,244.9z"/>
	<path d="M438.8,494.7H73.2c-1.9,0-3.5-1.5-3.5-3.5V248.4c0-1.9,1.5-3.5,3.5-3.5h365.6c1.9,0,3.5,1.5,3.5,3.5v242.9
		C442.3,493.1,440.7,494.7,438.8,494.7z M76.6,487.8h358.7v-236H76.6V487.8z"/>
</g>
</svg>
